<svg width="40" height="200" viewBox="0 0 40 200" fill="none" xmlns="http://www.w3.org/2000/svg">
<rect x="0.5" y="16.5" width="39" height="39" rx="7.5" fill="white"/>
<rect x="0.5" y="16.5" width="39" height="39" rx="7.5" stroke="#E9E9E9"/>
<path d="M20 44.0418C19.7417 44.0418 19.4917 44.0085 19.2833 43.9335C16.1 42.8418 11.0417 38.9668 11.0417 33.2418C11.0417 30.3252 13.4 27.9585 16.3 27.9585C17.7083 27.9585 19.025 28.5085 20 29.4918C20.975 28.5085 22.2917 27.9585 23.7 27.9585C26.6 27.9585 28.9583 30.3335 28.9583 33.2418C28.9583 38.9752 23.9 42.8418 20.7167 43.9335C20.5083 44.0085 20.2583 44.0418 20 44.0418ZM16.3 29.2085C14.0917 29.2085 12.2917 31.0168 12.2917 33.2418C12.2917 38.9335 17.7667 42.1002 19.6917 42.7585C19.8417 42.8085 20.1667 42.8085 20.3167 42.7585C22.2333 42.1002 27.7167 38.9418 27.7167 33.2418C27.7167 31.0168 25.9167 29.2085 23.7083 29.2085C22.4417 29.2085 21.2667 29.8002 20.5083 30.8252C20.275 31.1418 19.7417 31.1418 19.5083 30.8252C18.7333 29.7918 17.5667 29.2085 16.3 29.2085Z" fill="#9A9A9A"/>
<rect x="0.5" y="72.5" width="39" height="39" rx="7.5" fill="white"/>
<rect x="0.5" y="72.5" width="39" height="39" rx="7.5" stroke="#E9E9E9"/>
<g clip-path="url(#clip0_23350_9408)">
<path fill-rule="evenodd" clip-rule="evenodd" d="M24.3079 98.7692C23.2882 98.7692 22.4618 97.9428 22.4618 96.9231C22.4618 95.9034 23.2882 95.0769 24.3079 95.0769C25.3276 95.0769 26.1541 95.9034 26.1541 96.9231C26.1541 97.9428 25.3276 98.7692 24.3079 98.7692ZM15.6926 93.8462C14.6729 93.8462 13.8464 93.0197 13.8464 92C13.8464 90.9809 14.6729 90.1538 15.6926 90.1538C16.7122 90.1538 17.5387 90.9809 17.5387 92C17.5387 93.0197 16.7122 93.8462 15.6926 93.8462ZM24.3079 85.2308C25.3276 85.2308 26.1541 86.0572 26.1541 87.0769C26.1541 88.0966 25.3276 88.9231 24.3079 88.9231C23.2882 88.9231 22.4618 88.0966 22.4618 87.0769C22.4618 86.0572 23.2882 85.2308 24.3079 85.2308ZM24.3079 93.8462C23.2187 93.8462 22.2679 94.4154 21.7209 95.2689L18.4255 93.3859C18.6384 92.9674 18.7695 92.5009 18.7695 92C18.7695 91.6905 18.7098 91.3975 18.6249 91.1157L22.0532 89.1569C22.615 89.7662 23.4138 90.1538 24.3079 90.1538C26.0076 90.1538 27.3849 88.7766 27.3849 87.0769C27.3849 85.3772 26.0076 84 24.3079 84C22.6082 84 21.231 85.3772 21.231 87.0769C21.231 87.3865 21.2907 87.6794 21.3756 87.9618L17.9473 89.92C17.3855 89.3114 16.5867 88.9231 15.6926 88.9231C13.9929 88.9231 12.6156 90.3003 12.6156 92C12.6156 93.6997 13.9929 95.0769 15.6926 95.0769C16.3941 95.0769 17.0335 94.8332 17.551 94.4381L17.5387 94.4615L21.2649 96.5908C21.2526 96.7016 21.231 96.8086 21.231 96.9231C21.231 98.6228 22.6082 100 24.3079 100C26.0076 100 27.3849 98.6228 27.3849 96.9231C27.3849 95.2234 26.0076 93.8462 24.3079 93.8462Z" fill="#646464"/>
</g>
<defs>
<clipPath id="clip0_23350_9408">
<rect width="16" height="16" fill="white" transform="translate(12 84)"/>
</clipPath>
</defs>
</svg>
