<svg width="257" height="32" viewBox="0 0 257 32" fill="none" xmlns="http://www.w3.org/2000/svg">
<rect width="257" height="32" fill="#FFBB37"/>
<path d="M157.16 21.76H157.72C158.569 21.76 159.19 21.5873 159.582 21.242C159.983 20.8967 160.179 20.3227 160.17 19.52C160.17 19.3053 160.156 19.0813 160.128 18.848C160.1 18.6053 160.063 18.3487 160.016 18.078L159.722 16.216L161.248 15.978L161.402 17L163.712 16.622V15.418H165.252V17.364C165.252 17.784 165.336 18.064 165.504 18.204C165.672 18.3347 165.961 18.4 166.372 18.4H166.792V20.08L166.372 20.5H166.218C165.509 20.5 164.958 20.36 164.566 20.08C164.174 19.7907 163.917 19.324 163.796 18.68L161.682 19.03C161.691 19.1047 161.696 19.1793 161.696 19.254C161.696 19.3287 161.696 19.394 161.696 19.45C161.696 20.122 161.612 20.7287 161.444 21.27C161.276 21.8113 161.024 22.2733 160.688 22.656C160.352 23.048 159.937 23.3467 159.442 23.552C158.947 23.7573 158.378 23.86 157.734 23.86H157.16V21.76ZM160.156 14.858C159.913 14.858 159.713 14.7833 159.554 14.634C159.405 14.4847 159.33 14.2467 159.33 13.92C159.33 13.5933 159.405 13.3553 159.554 13.206C159.713 13.0567 159.913 12.982 160.156 12.982H160.436C160.679 12.982 160.875 13.0567 161.024 13.206C161.183 13.3553 161.262 13.5933 161.262 13.92C161.262 14.2467 161.183 14.4847 161.024 14.634C160.875 14.7833 160.679 14.858 160.436 14.858H160.156ZM165.434 23.51C165.191 23.51 164.991 23.4353 164.832 23.286C164.683 23.1367 164.608 22.8987 164.608 22.572C164.608 22.2453 164.683 22.0073 164.832 21.858C164.991 21.7087 165.191 21.634 165.434 21.634H165.714C165.957 21.634 166.153 21.7087 166.302 21.858C166.461 22.0073 166.54 22.2453 166.54 22.572C166.54 22.8987 166.461 23.1367 166.302 23.286C166.153 23.4353 165.957 23.51 165.714 23.51H165.434ZM163.222 23.51C162.979 23.51 162.779 23.4353 162.62 23.286C162.471 23.1367 162.396 22.8987 162.396 22.572C162.396 22.2453 162.471 22.0073 162.62 21.858C162.779 21.7087 162.979 21.634 163.222 21.634H163.502C163.745 21.634 163.941 21.7087 164.09 21.858C164.249 22.0073 164.328 22.2453 164.328 22.572C164.328 22.8987 164.249 23.1367 164.09 23.286C163.941 23.4353 163.745 23.51 163.502 23.51H163.222ZM166.791 18.82L167.211 18.4H168.429C168.42 18.344 168.415 18.288 168.415 18.232C168.415 18.176 168.415 18.12 168.415 18.064C168.415 16.9347 169.068 15.992 170.375 15.236L171.271 14.718H173.119L174.225 17.686C174.328 17.9753 174.454 18.1667 174.603 18.26C174.762 18.3533 174.995 18.4 175.303 18.4H175.723V20.08L175.303 20.5C174.687 20.5 174.202 20.4067 173.847 20.22C173.492 20.024 173.198 19.7207 172.965 19.31L172.881 19.324V20.5H171.103C170.422 20.5 169.876 20.3647 169.465 20.094C169.054 19.814 168.765 19.464 168.597 19.044H168.471C168.21 20.0147 167.65 20.5 166.791 20.5V18.82ZM169.689 17.868C169.689 18.0733 169.768 18.2133 169.927 18.288C170.086 18.3627 170.277 18.4 170.501 18.4H172.559L171.859 16.552L170.585 17.056C170.286 17.1773 170.062 17.3033 169.913 17.434C169.764 17.5553 169.689 17.7 169.689 17.868ZM177.787 19.716C177.572 20.0053 177.301 20.2107 176.975 20.332C176.657 20.444 176.242 20.5 175.729 20.5V18.82L176.149 18.4C176.494 18.4 176.746 18.3487 176.905 18.246C177.063 18.1433 177.194 17.9613 177.297 17.7L177.689 16.734C177.81 16.4353 177.945 16.1553 178.095 15.894C178.244 15.6327 178.421 15.404 178.627 15.208C178.832 15.012 179.061 14.858 179.313 14.746C179.574 14.634 179.873 14.578 180.209 14.578C181.086 14.578 181.744 14.9233 182.183 15.614C182.631 16.3047 182.855 17.2613 182.855 18.484V18.89L181.525 20.864L177.787 19.716ZM178.557 17.77L181.371 18.624V18.484C181.371 17.924 181.235 17.4853 180.965 17.168C180.694 16.8507 180.325 16.692 179.859 16.692C179.56 16.692 179.299 16.7713 179.075 16.93C178.86 17.0887 178.697 17.3407 178.585 17.686L178.557 17.77ZM192.333 22.768C190.895 22.768 189.808 22.432 189.071 21.76C188.343 21.0973 187.979 20.1547 187.979 18.932C187.979 18.512 188.035 18.0407 188.147 17.518C188.268 16.986 188.431 16.4727 188.637 15.978L189.981 16.37C189.794 16.7713 189.645 17.1773 189.533 17.588C189.43 17.9987 189.379 18.3533 189.379 18.652C189.379 19.24 189.589 19.6973 190.009 20.024C190.429 20.3413 191.017 20.5 191.773 20.5H192.893C193.686 20.5 194.269 20.318 194.643 19.954C195.016 19.59 195.203 19.0207 195.203 18.246C195.203 18.0313 195.179 17.756 195.133 17.42C195.086 17.084 195.03 16.7667 194.965 16.468L194.685 15.166L196.197 14.872L196.463 16.16C196.528 16.468 196.579 16.8227 196.617 17.224C196.663 17.616 196.687 17.9567 196.687 18.246C196.687 19.7953 196.332 20.934 195.623 21.662C194.923 22.3993 193.826 22.768 192.333 22.768ZM192.193 15.25C191.95 15.25 191.749 15.1753 191.591 15.026C191.441 14.8767 191.367 14.6387 191.367 14.312C191.367 13.9853 191.441 13.7473 191.591 13.598C191.749 13.4487 191.95 13.374 192.193 13.374H192.473C192.715 13.374 192.911 13.4487 193.061 13.598C193.219 13.7473 193.299 13.9853 193.299 14.312C193.299 14.6387 193.219 14.8767 193.061 15.026C192.911 15.1753 192.715 15.25 192.473 15.25H192.193ZM197.742 18.876L200.01 18.344L198.918 12.17L200.57 11.876L201.648 17.924C201.984 17.8213 202.259 17.7093 202.474 17.588C202.698 17.4667 202.875 17.3313 203.006 17.182C203.137 17.0233 203.225 16.8413 203.272 16.636C203.328 16.4213 203.356 16.174 203.356 15.894V10.14H205.036V17.42C205.036 18.0733 205.363 18.4 206.016 18.4H206.576V20.08L206.156 20.5C205.251 20.4907 204.588 20.2573 204.168 19.8C203.748 19.3427 203.538 18.624 203.538 17.644V17.504H203.454C203.323 18.2787 203.099 18.8807 202.782 19.31C202.474 19.7393 202.045 20.0193 201.494 20.15L198.218 20.92L197.742 18.876ZM206.571 18.82L206.991 18.4H208.111V18.33C207.924 18.0593 207.779 17.77 207.677 17.462C207.583 17.154 207.537 16.8227 207.537 16.468C207.537 16.0107 207.616 15.5813 207.775 15.18C207.943 14.7787 208.167 14.4287 208.447 14.13C208.736 13.822 209.072 13.584 209.455 13.416C209.847 13.2387 210.271 13.15 210.729 13.15C211.485 13.15 212.101 13.304 212.577 13.612C213.053 13.92 213.449 14.34 213.767 14.872L212.269 16.202C212.063 15.8753 211.825 15.6373 211.555 15.488C211.284 15.3293 210.962 15.25 210.589 15.25C210.066 15.25 209.66 15.3573 209.371 15.572C209.081 15.7773 208.937 16.076 208.937 16.468C208.937 16.944 209.137 17.3127 209.539 17.574C209.94 17.826 210.505 17.952 211.233 17.952C211.475 17.952 211.732 17.9333 212.003 17.896C212.273 17.8587 212.521 17.8073 212.745 17.742L214.103 17.364L214.635 19.254L212.577 19.884C212.175 20.0053 211.788 20.108 211.415 20.192C211.041 20.2667 210.631 20.3273 210.183 20.374C209.735 20.4207 209.221 20.4533 208.643 20.472C208.064 20.4907 207.373 20.5 206.571 20.5V18.82ZM216.235 10.14H217.915V20.5H216.235V10.14ZM215.577 23.09H216.165L216.179 23.02C215.992 22.8147 215.899 22.5673 215.899 22.278C215.899 21.886 216.039 21.5593 216.319 21.298C216.608 21.046 216.977 20.92 217.425 20.92C217.696 20.92 217.957 20.976 218.209 21.088C218.461 21.2 218.68 21.354 218.867 21.55L218.195 22.488C217.971 22.264 217.714 22.152 217.425 22.152C217.266 22.152 217.136 22.1893 217.033 22.264C216.94 22.3387 216.893 22.4273 216.893 22.53C216.893 22.838 217.215 22.992 217.859 22.992H218.895V24.224H215.577V23.09Z" fill="white"/>
<path fill-rule="evenodd" clip-rule="evenodd" d="M230.5 9.7002C230.686 9.7002 230.864 9.78316 230.995 9.93085C231.127 10.0785 231.2 10.2788 231.2 10.4877V11.2752H231.9C232.086 11.2752 232.264 11.3582 232.395 11.5058C232.527 11.6535 232.6 11.8538 232.6 12.0627C232.6 12.2715 232.527 12.4718 232.395 12.6195C232.264 12.7672 232.086 12.8502 231.9 12.8502H231.2V13.6377C231.2 13.8465 231.127 14.0468 230.995 14.1945C230.864 14.3422 230.686 14.4252 230.5 14.4252C230.315 14.4252 230.137 14.3422 230.005 14.1945C229.874 14.0468 229.8 13.8465 229.8 13.6377V12.8502H229.1C228.915 12.8502 228.737 12.7672 228.605 12.6195C228.474 12.4718 228.4 12.2715 228.4 12.0627C228.4 11.8538 228.474 11.6535 228.605 11.5058C228.737 11.3582 228.915 11.2752 229.1 11.2752H229.8V10.4877C229.8 10.2788 229.874 10.0785 230.005 9.93085C230.137 9.78316 230.315 9.7002 230.5 9.7002ZM230.5 17.5752C230.686 17.5752 230.864 17.6581 230.995 17.8058C231.127 17.9535 231.2 18.1538 231.2 18.3627V19.1502H231.9C232.086 19.1502 232.264 19.2331 232.395 19.3808C232.527 19.5285 232.6 19.7288 232.6 19.9376C232.6 20.1465 232.527 20.3468 232.395 20.4945C232.264 20.6422 232.086 20.7251 231.9 20.7251H231.2V21.5126C231.2 21.7215 231.127 21.9218 230.995 22.0695C230.864 22.2172 230.686 22.3001 230.5 22.3001C230.315 22.3001 230.137 22.2172 230.005 22.0695C229.874 21.9218 229.8 21.7215 229.8 21.5126V20.7251H229.1C228.915 20.7251 228.737 20.6422 228.605 20.4945C228.474 20.3468 228.4 20.1465 228.4 19.9376C228.4 19.7288 228.474 19.5285 228.605 19.3808C228.737 19.2331 228.915 19.1502 229.1 19.1502H229.8V18.3627C229.8 18.1538 229.874 17.9535 230.005 17.8058C230.137 17.6581 230.315 17.5752 230.5 17.5752ZM235.4 9.7002C235.555 9.70014 235.705 9.75757 235.827 9.86355C235.95 9.96953 236.038 10.1181 236.077 10.2861L236.903 13.7952L239.25 15.3182C239.357 15.3873 239.445 15.4867 239.507 15.6064C239.568 15.7261 239.6 15.8619 239.6 16.0002C239.6 16.1384 239.568 16.2742 239.507 16.3939C239.445 16.5136 239.357 16.613 239.25 16.6821L236.903 18.2059L236.077 21.7142C236.037 21.8821 235.949 22.0305 235.827 22.1363C235.704 22.2422 235.554 22.2996 235.4 22.2996C235.246 22.2996 235.096 22.2422 234.973 22.1363C234.851 22.0305 234.763 21.8821 234.723 21.7142L233.898 18.2052L231.55 16.6821C231.444 16.613 231.356 16.5136 231.294 16.3939C231.233 16.2742 231.2 16.1384 231.2 16.0002C231.2 15.8619 231.233 15.7261 231.294 15.6064C231.356 15.4867 231.444 15.3873 231.55 15.3182L233.898 13.7944L234.724 10.2861C234.764 10.1182 234.851 9.96975 234.974 9.86379C235.096 9.75783 235.246 9.70031 235.4 9.7002Z" fill="white"/>
</svg>
