<svg width="373" height="40" viewBox="0 0 373 40" fill="none" xmlns="http://www.w3.org/2000/svg">
<rect x="0.5" y="0.5" width="108" height="39" rx="3.5" stroke="#E9E9E9"/>
<path d="M26.224 25C25.68 25 25.2533 24.856 24.944 24.568C24.6347 24.28 24.48 23.832 24.48 23.224V22.056H25.904V23.192H28.08C28.6453 23.192 29.0347 23.144 29.248 23.048C29.4613 22.952 29.568 22.7707 29.568 22.504C29.568 22.3867 29.5413 22.2427 29.488 22.072C29.4347 21.8907 29.36 21.6613 29.264 21.384L27.776 17.24L29.296 16.696L30.928 21.224C31.0667 21.6187 31.1947 21.944 31.312 22.2C31.44 22.4453 31.568 22.6427 31.696 22.792C31.824 22.9413 31.9573 23.048 32.096 23.112C32.2453 23.1653 32.416 23.192 32.608 23.192H33.04V24.616L32.64 25C32.288 25 31.9787 24.9733 31.712 24.92C31.4453 24.856 31.2053 24.76 30.992 24.632C30.7893 24.4933 30.6027 24.312 30.432 24.088C30.272 23.864 30.112 23.5813 29.952 23.24L29.872 23.256C29.776 23.8853 29.5627 24.3333 29.232 24.6C28.9013 24.8667 28.3947 25 27.712 25H26.224ZM32.5669 23.576L32.9509 23.192H33.2869C34.0122 23.192 34.5242 23.112 34.8229 22.952C35.1215 22.7813 35.2709 22.4773 35.2709 22.04C35.2709 21.8587 35.2549 21.6293 35.2229 21.352C35.2015 21.0747 35.1535 20.7067 35.0789 20.248L34.8229 18.856L36.2149 18.632L36.4229 20.024C36.5509 20.8773 36.6149 21.5493 36.6149 22.04C36.6149 23.0427 36.3429 23.7893 35.7989 24.28C35.2549 24.76 34.4175 25 33.2869 25H32.5669V23.576ZM36.2789 28.312C36.0335 28.312 35.8362 28.2373 35.6869 28.088C35.5482 27.9387 35.4789 27.7093 35.4789 27.4C35.4789 27.08 35.5482 26.8453 35.6869 26.696C35.8362 26.5573 36.0335 26.488 36.2789 26.488H36.5189C36.7642 26.488 36.9615 26.5573 37.1109 26.696C37.2602 26.8453 37.3349 27.08 37.3349 27.4C37.3349 27.7093 37.2602 27.9387 37.1109 28.088C36.9615 28.2373 36.7642 28.312 36.5189 28.312H36.2789ZM34.0229 28.312C33.7775 28.312 33.5802 28.2373 33.4309 28.088C33.2922 27.9387 33.2229 27.7093 33.2229 27.4C33.2229 27.08 33.2922 26.8453 33.4309 26.696C33.5802 26.5573 33.7775 26.488 34.0229 26.488H34.2629C34.5082 26.488 34.7055 26.5573 34.8549 26.696C35.0042 26.8453 35.0789 27.08 35.0789 27.4C35.0789 27.7093 35.0042 27.9387 34.8549 28.088C34.7055 28.2373 34.5082 28.312 34.2629 28.312H34.0229ZM37.8167 27.032H38.4247C38.9687 27.032 39.4221 26.9627 39.7847 26.824C40.1474 26.6853 40.4407 26.488 40.6647 26.232C40.8887 25.9867 41.0487 25.688 41.1447 25.336C41.2407 24.984 41.2887 24.5893 41.2887 24.152C41.2887 23.864 41.2727 23.5653 41.2407 23.256C41.2087 22.9467 41.1661 22.6373 41.1127 22.328L40.7767 20.392L42.1527 20.136L42.3447 21.304L45.0807 20.856V19.496H46.4728V22.04C46.4728 22.488 46.5741 22.792 46.7767 22.952C46.9901 23.112 47.3368 23.192 47.8167 23.192H48.3448V24.616L47.9447 25H47.8647C46.9368 25 46.2541 24.8187 45.8168 24.456C45.3901 24.0827 45.1501 23.4693 45.0967 22.616L42.5847 23.032C42.6061 23.2347 42.6221 23.4267 42.6327 23.608C42.6434 23.7893 42.6487 23.9653 42.6487 24.136C42.6487 24.7973 42.5687 25.4107 42.4087 25.976C42.2594 26.552 42.0141 27.0533 41.6727 27.48C41.3314 27.9067 40.8941 28.2373 40.3607 28.472C39.8274 28.7173 39.1874 28.84 38.4407 28.84H37.8167V27.032ZM45.6407 28.312C45.3954 28.312 45.1981 28.2373 45.0487 28.088C44.9101 27.9387 44.8407 27.7093 44.8407 27.4C44.8407 27.08 44.9101 26.8453 45.0487 26.696C45.1981 26.5573 45.3954 26.488 45.6407 26.488H45.8808C46.1261 26.488 46.3234 26.5573 46.4728 26.696C46.6221 26.8453 46.6968 27.08 46.6968 27.4C46.6968 27.7093 46.6221 27.9387 46.4728 28.088C46.3234 28.2373 46.1261 28.312 45.8808 28.312H45.6407ZM47.8592 23.576L48.2432 23.192H48.8032C49.2726 23.192 49.5979 23.0907 49.7792 22.888C49.9712 22.6853 50.0673 22.3653 50.0673 21.928V13.16H51.5712V21.928C51.5712 22.984 51.3579 23.7627 50.9313 24.264C50.5046 24.7547 49.7952 25 48.8032 25H47.8592V23.576ZM53.6887 13.16H55.1767V25H53.6887V13.16Z" fill="#616161"/>
<path fill-rule="evenodd" clip-rule="evenodd" d="M77.4334 12.3222C75.8058 12.2813 74.1942 12.2813 72.5667 12.3222L72.5182 12.3234C71.2475 12.3553 70.225 12.381 69.4056 12.5237C68.5477 12.6731 67.8504 12.9596 67.2614 13.5509C66.6748 14.1398 66.3897 14.827 66.2432 15.671C66.1036 16.4746 66.0823 17.4722 66.056 18.7079L66.055 18.7568C66.0373 19.5871 66.0373 20.4126 66.055 21.2428L66.056 21.2918C66.0823 22.5275 66.1036 23.525 66.2432 24.3287C66.3897 25.1727 66.6748 25.8599 67.2614 26.4487C67.8504 27.04 68.5477 27.3266 69.4056 27.476C70.225 27.6187 71.2475 27.6444 72.5182 27.6763L72.5667 27.6775C74.1942 27.7184 75.8058 27.7184 77.4334 27.6775L77.4819 27.6763C78.7526 27.6444 79.775 27.6187 80.5944 27.476C81.4524 27.3266 82.1496 27.04 82.7387 26.4487C83.3253 25.8599 83.6103 25.1727 83.7569 24.3287C83.8964 23.525 83.9177 22.5275 83.944 21.2918L83.9451 21.2428C83.9628 20.4126 83.9628 19.5871 83.9451 18.7568L83.944 18.7079C83.9177 17.4722 83.8964 16.4747 83.7569 15.671C83.6103 14.827 83.3253 14.1398 82.7387 13.551C82.1496 12.9597 81.4524 12.6731 80.5944 12.5237C79.775 12.381 78.7525 12.3553 77.4818 12.3234L77.4334 12.3222ZM72.5981 13.5718C74.2047 13.5314 75.7954 13.5314 77.402 13.5718C78.7325 13.6052 79.6623 13.6302 80.38 13.7551C81.0696 13.8752 81.4996 14.0783 81.8531 14.4332C81.9981 14.5787 82.1171 14.7353 82.2152 14.9151L77.2645 17.7202C76.2184 18.3129 75.5836 18.5415 75.0001 18.5415C74.4166 18.5415 73.7818 18.3129 72.7357 17.7202L67.7849 14.915C67.8829 14.7352 68.002 14.5786 68.1469 14.4331C68.5005 14.0782 68.9305 13.8752 69.6201 13.7551C70.3378 13.6301 71.2675 13.6052 72.5981 13.5718ZM67.4342 16.153C67.348 16.8129 67.3289 17.6469 67.3047 18.7835C67.2874 19.596 67.2874 20.4037 67.3047 21.2162C67.3323 22.5125 67.3532 23.4152 67.4747 24.1148C67.591 24.7846 67.7909 25.2092 68.1469 25.5665C68.5005 25.9214 68.9305 26.1244 69.6201 26.2445C70.3378 26.3695 71.2675 26.3945 72.5981 26.4279C74.2047 26.4683 75.7954 26.4683 77.402 26.4279C78.7325 26.3945 79.6623 26.3695 80.38 26.2445C81.0696 26.1244 81.4996 25.9214 81.8531 25.5665C82.2091 25.2092 82.409 24.7846 82.5253 24.1148C82.6468 23.4152 82.6677 22.5125 82.6954 21.2162C82.7127 20.4037 82.7127 19.596 82.6954 18.7835C82.6711 17.6469 82.6521 16.813 82.5659 16.1531L77.8807 18.8078C76.803 19.4184 75.9272 19.7915 75.0001 19.7915C74.073 19.7915 73.1972 19.4184 72.1195 18.8078L67.4342 16.153Z" fill="#616161"/>
<rect x="121.5" y="0.5" width="122" height="39" rx="3.5" stroke="#5BD066"/>
<path d="M151.784 25.192C150.643 25.192 149.683 25.128 148.904 25C148.125 24.8827 147.496 24.6907 147.016 24.424C146.536 24.1467 146.189 23.7893 145.976 23.352C145.773 22.904 145.672 22.36 145.672 21.72C145.672 20.8667 145.891 19.912 146.328 18.856L147.56 19.224C147.357 19.6507 147.203 20.0453 147.096 20.408C146.989 20.76 146.936 21.0907 146.936 21.4C146.936 22.0293 147.229 22.488 147.816 22.776C148.413 23.0533 149.384 23.192 150.728 23.192H152.968C153.704 23.192 154.312 23.176 154.792 23.144C155.283 23.1013 155.672 23.032 155.96 22.936C156.248 22.84 156.451 22.712 156.568 22.552C156.696 22.392 156.76 22.1893 156.76 21.944C156.76 21.7733 156.749 21.56 156.728 21.304C156.707 21.0373 156.653 20.6853 156.568 20.248L156.312 18.856L157.704 18.632L157.928 20.024C157.981 20.4293 158.024 20.7973 158.056 21.128C158.088 21.448 158.104 21.72 158.104 21.944C158.104 22.5733 158.003 23.096 157.8 23.512C157.597 23.928 157.251 24.2587 156.76 24.504C156.28 24.7493 155.635 24.9253 154.824 25.032C154.013 25.1387 153 25.192 151.784 25.192ZM151.704 28.312C151.459 28.312 151.261 28.2373 151.112 28.088C150.973 27.9387 150.904 27.7093 150.904 27.4C150.904 27.08 150.973 26.8453 151.112 26.696C151.261 26.5573 151.459 26.488 151.704 26.488H151.944C152.189 26.488 152.387 26.5573 152.536 26.696C152.685 26.8453 152.76 27.08 152.76 27.4C152.76 27.7093 152.685 27.9387 152.536 28.088C152.387 28.2373 152.189 28.312 151.944 28.312H151.704ZM162.686 25C161.641 25 160.889 24.7867 160.43 24.36C159.972 23.9227 159.742 23.1973 159.742 22.184V13.16H161.23V22.04C161.23 22.488 161.332 22.792 161.534 22.952C161.748 23.112 162.094 23.192 162.574 23.192H163.102V24.616L162.702 25H162.686ZM162.627 23.576L163.011 23.192H163.331C163.555 23.192 163.752 23.176 163.923 23.144C164.094 23.112 164.243 23.0533 164.371 22.968C164.499 22.8827 164.616 22.7707 164.723 22.632C164.83 22.4933 164.936 22.3173 165.043 22.104L165.699 20.776L166.899 21.384L166.179 22.808L166.291 22.872C166.611 23.0533 166.915 23.1867 167.203 23.272C167.502 23.3573 167.806 23.4 168.115 23.4C168.595 23.4 168.947 23.2933 169.171 23.08C169.395 22.856 169.507 22.472 169.507 21.928V20.776H170.899V21.928C170.899 22.4507 170.968 22.824 171.107 23.048C171.256 23.2613 171.512 23.368 171.875 23.368H172.163C172.504 23.368 172.75 23.2613 172.899 23.048C173.059 22.824 173.139 22.4507 173.139 21.928V20.136H174.531V21.928C174.531 22.7707 174.947 23.192 175.779 23.192H176.387V24.616L175.987 25C175.24 25 174.659 24.8667 174.243 24.6C173.838 24.3227 173.56 23.896 173.411 23.32H173.331C173.267 23.992 173.091 24.472 172.803 24.76C172.526 25.048 172.131 25.192 171.619 25.192C170.531 25.192 169.886 24.568 169.683 23.32H169.587C169.406 24.568 168.814 25.192 167.811 25.192C167.502 25.192 167.182 25.1333 166.851 25.016C166.531 24.8987 166.147 24.7067 165.699 24.44L165.267 24.184C164.947 24.5147 164.584 24.7333 164.179 24.84C163.774 24.9467 163.256 25 162.627 25V23.576ZM175.906 23.576L176.29 23.192H176.626C177.351 23.192 177.863 23.112 178.162 22.952C178.461 22.7813 178.61 22.4773 178.61 22.04C178.61 21.8587 178.594 21.6293 178.562 21.352C178.541 21.0747 178.493 20.7067 178.418 20.248L178.162 18.856L179.554 18.632L179.762 20.024C179.89 20.8773 179.954 21.5493 179.954 22.04C179.954 23.0427 179.682 23.7893 179.138 24.28C178.594 24.76 177.757 25 176.626 25H175.906V23.576ZM179.634 17C179.389 17 179.191 16.9253 179.042 16.776C178.903 16.6267 178.834 16.3973 178.834 16.088C178.834 15.768 178.903 15.5387 179.042 15.4C179.191 15.2507 179.389 15.176 179.634 15.176H179.874C180.119 15.176 180.317 15.2507 180.466 15.4C180.615 15.5387 180.69 15.768 180.69 16.088C180.69 16.3973 180.615 16.6267 180.466 16.776C180.317 16.9253 180.119 17 179.874 17H179.634ZM177.378 17C177.133 17 176.935 16.9253 176.786 16.776C176.647 16.6267 176.578 16.3973 176.578 16.088C176.578 15.768 176.647 15.5387 176.786 15.4C176.935 15.2507 177.133 15.176 177.378 15.176H177.618C177.863 15.176 178.061 15.2507 178.21 15.4C178.359 15.5387 178.434 15.768 178.434 16.088C178.434 16.3973 178.359 16.6267 178.21 16.776C178.061 16.9253 177.863 17 177.618 17H177.378ZM181.579 13.16H183.067V25H181.579V13.16ZM184.595 27.032H185.667C187 27.032 187.981 26.7653 188.611 26.232C189.251 25.6987 189.571 24.9787 189.571 24.072V23.688H189.491C189.16 24.5733 188.477 25.016 187.443 25.016C186.579 25.016 185.912 24.7813 185.443 24.312C184.973 23.832 184.739 23.16 184.739 22.296C184.739 21.784 184.813 21.304 184.963 20.856C185.123 20.408 185.336 20.024 185.603 19.704C185.88 19.3733 186.205 19.112 186.579 18.92C186.952 18.728 187.357 18.632 187.795 18.632C188.765 18.632 189.523 19.0427 190.067 19.864C190.621 20.6747 190.899 21.8107 190.899 23.272C190.899 25.0213 190.461 26.3867 189.587 27.368C188.723 28.3493 187.437 28.84 185.731 28.84H184.595V27.032ZM187.843 23.192C188.291 23.192 188.648 23.16 188.915 23.096C189.192 23.032 189.411 22.9307 189.571 22.792C189.549 22.088 189.363 21.5227 189.011 21.096C188.669 20.6693 188.216 20.456 187.651 20.456C187.16 20.456 186.771 20.6053 186.483 20.904C186.195 21.2027 186.051 21.592 186.051 22.072C186.051 22.4667 186.173 22.7547 186.419 22.936C186.675 23.1067 187.043 23.192 187.523 23.192H187.843Z" fill="#5BD066"/>
<path fill-rule="evenodd" clip-rule="evenodd" d="M207.478 15.2088L207.401 15.2087C207.001 15.2081 206.632 15.2074 206.269 15.3731C206.006 15.4934 205.782 15.6979 205.619 15.9021C205.455 16.1063 205.305 16.37 205.246 16.6535C205.165 17.0421 205.232 17.3378 205.303 17.6542L205.313 17.6979C205.675 19.3015 206.522 20.8739 207.824 22.1762C209.127 23.4785 210.699 24.3251 212.303 24.6872L212.346 24.6971C212.663 24.7689 212.958 24.836 213.347 24.7546C213.63 24.6952 213.894 24.5452 214.098 24.3819C214.303 24.2187 214.507 23.9945 214.627 23.7311C214.793 23.3684 214.792 22.9997 214.792 22.5999L214.792 22.5227C214.792 22.3391 214.786 22.0298 214.667 21.744C214.525 21.4025 214.231 21.1211 213.772 21.049L213.767 21.0483C213.198 20.959 212.765 20.8912 212.458 20.8467C212.305 20.8244 212.178 20.8071 212.078 20.7958C211.997 20.7865 211.884 20.7748 211.79 20.7803C211.382 20.8042 211.057 20.9697 210.806 21.1419C210.646 21.2515 210.472 21.3983 210.336 21.5138C210.282 21.5591 210.234 21.5996 210.195 21.6311L209.627 22.0887C209.308 21.8504 209.001 21.585 208.708 21.2923C208.416 20.9997 208.15 20.6923 207.912 20.3738L208.369 19.8055C208.401 19.7664 208.441 19.7184 208.487 19.6647C208.602 19.5281 208.749 19.3543 208.859 19.1943C209.031 18.943 209.196 18.6185 209.22 18.2106C209.226 18.1164 209.214 18.0039 209.205 17.9221C209.193 17.8226 209.176 17.6954 209.154 17.5421C209.109 17.2359 209.041 16.803 208.952 16.2334L208.951 16.2286C208.879 15.7691 208.598 15.4759 208.256 15.3336C207.971 15.2145 207.661 15.2088 207.478 15.2088ZM212.578 23.4679C211.959 23.3282 211.342 23.1028 210.746 22.7926L210.979 22.6047C211.07 22.5311 211.144 22.4685 211.21 22.4127C211.317 22.3212 211.404 22.2477 211.513 22.1731C211.653 22.0771 211.755 22.0377 211.849 22.0293C211.85 22.0293 211.851 22.0295 211.854 22.0296C211.865 22.0305 211.891 22.0325 211.937 22.0378C212.017 22.0469 212.129 22.0619 212.279 22.0837C212.568 22.1257 212.977 22.1898 213.526 22.2758C213.528 22.2877 213.531 22.3018 213.533 22.3184C213.539 22.3744 213.542 22.4409 213.542 22.5227C213.542 23.0434 213.53 23.1257 213.49 23.2117C213.475 23.2464 213.419 23.3244 213.318 23.4055C213.216 23.4867 213.128 23.5233 213.091 23.5311C212.99 23.5523 212.944 23.5506 212.578 23.4679ZM207.396 19.0216L207.208 19.2549C206.898 18.6588 206.672 18.0412 206.533 17.4226C206.45 17.056 206.448 17.0109 206.469 16.9097C206.477 16.8723 206.514 16.7841 206.595 16.6826C206.676 16.5811 206.754 16.5259 206.789 16.5101C206.875 16.4708 206.957 16.4588 207.478 16.4588C207.56 16.4588 207.626 16.4613 207.682 16.4679C207.699 16.4699 207.713 16.472 207.725 16.4742C207.811 17.0232 207.875 17.4325 207.917 17.7219C207.939 17.8715 207.954 17.9833 207.963 18.0632C207.968 18.1099 207.97 18.1359 207.971 18.1469C207.971 18.149 207.971 18.1505 207.971 18.1516C207.963 18.2456 207.923 18.3477 207.827 18.4877C207.753 18.5967 207.679 18.6832 207.588 18.7908C207.532 18.8565 207.469 18.9301 207.396 19.0216Z" fill="#5BD066"/>
<path fill-rule="evenodd" clip-rule="evenodd" d="M210 11.042C205.052 11.042 201.042 15.0528 201.042 20.0003C201.042 21.2344 201.292 22.4117 201.744 23.4832C201.863 23.7643 201.943 23.9542 201.996 24.1002C202.051 24.2491 202.058 24.3029 202.059 24.3168C202.065 24.395 202.045 24.5014 201.91 25.0065L201.063 28.1721C201.005 28.3877 201.067 28.6178 201.225 28.7756C201.383 28.9334 201.613 28.9951 201.828 28.9374L204.994 28.0904C205.499 27.9553 205.605 27.9355 205.684 27.9409C205.697 27.9419 205.751 27.9495 205.9 28.004C206.046 28.0575 206.236 28.1375 206.517 28.2562C207.589 28.7088 208.766 28.9587 210 28.9587C214.948 28.9587 218.958 24.9479 218.958 20.0003C218.958 15.0528 214.948 11.042 210 11.042ZM202.292 20.0003C202.292 15.7431 205.743 12.292 210 12.292C214.257 12.292 217.708 15.7431 217.708 20.0003C217.708 24.2575 214.257 27.7087 210 27.7087C208.936 27.7087 207.924 27.4934 207.003 27.1047L206.989 27.0986C206.726 26.9876 206.508 26.8955 206.33 26.8303C206.152 26.765 205.964 26.7073 205.77 26.6939C205.455 26.6721 205.128 26.76 204.752 26.861L202.55 27.4503L203.139 25.2482C203.24 24.8726 203.328 24.5457 203.306 24.2305C203.293 24.0364 203.235 23.8486 203.17 23.6703C203.105 23.4924 203.013 23.2743 202.902 23.0115L202.896 22.9969C202.507 22.0765 202.292 21.0644 202.292 20.0003Z" fill="#5BD066"/>
<rect x="256" width="117" height="40" rx="4" fill="#3F51B5"/>
<path d="M287.6 25C286.629 25 285.931 24.8027 285.504 24.408C285.088 24.0027 284.88 23.3787 284.88 22.536V22.344H284.8C284.64 22.9413 284.389 23.3733 284.048 23.64C283.707 23.896 283.259 24.024 282.704 24.024C281.968 24.024 281.403 23.8267 281.008 23.432C280.613 23.0373 280.416 22.4827 280.416 21.768C280.416 21.4053 280.469 21.0747 280.576 20.776C280.683 20.4667 280.848 20.1787 281.072 19.912C281.296 19.6453 281.573 19.3947 281.904 19.16C282.245 18.9147 282.645 18.6693 283.104 18.424L284.8 17.528V16.68H286.256V22.184C286.256 22.568 286.352 22.8347 286.544 22.984C286.736 23.1227 287.04 23.192 287.456 23.192H287.984V24.616L287.6 25ZM283.056 22.216C283.696 22.216 284.144 22.136 284.4 21.976C284.667 21.816 284.8 21.5333 284.8 21.128V18.968L283.36 19.704C282.784 20.0027 282.368 20.2693 282.112 20.504C281.856 20.728 281.728 21.0053 281.728 21.336C281.728 21.6453 281.824 21.8693 282.016 22.008C282.219 22.1467 282.565 22.216 283.056 22.216ZM287.504 23.576L287.888 23.192C288.219 23.192 288.48 23.1813 288.672 23.16C288.875 23.1387 289.051 23.0907 289.2 23.016C289.168 22.8453 289.152 22.6587 289.152 22.456C289.152 21.8587 289.339 21.3093 289.712 20.808C290.096 20.3067 290.667 19.816 291.424 19.336L292.304 18.792H293.92L295.12 22.008C295.206 22.2427 295.291 22.44 295.376 22.6C295.462 22.7493 295.552 22.8667 295.648 22.952C295.755 23.0373 295.872 23.1013 296 23.144C296.128 23.176 296.283 23.192 296.464 23.192H296.848V24.616L296.464 25C295.878 25 295.414 24.9147 295.072 24.744C294.731 24.5627 294.432 24.2533 294.176 23.816L294.08 23.832V25H292.112C291.398 25 290.811 24.8827 290.352 24.648C289.904 24.4027 289.579 24.056 289.376 23.608H289.28C289.131 24.088 288.918 24.44 288.64 24.664C288.363 24.888 287.984 25 287.504 25V23.576ZM290.384 22.28C290.384 22.6 290.512 22.8347 290.768 22.984C291.024 23.1227 291.392 23.192 291.872 23.192H293.872C293.83 23.1067 293.792 23.016 293.76 22.92C293.728 22.824 293.691 22.7227 293.648 22.616L292.8 20.344L291.84 20.824C291.414 21.0373 291.062 21.2667 290.784 21.512C290.518 21.7467 290.384 22.0027 290.384 22.28ZM296.362 23.576L296.746 23.192H297.306C297.775 23.192 298.1 23.0907 298.282 22.888C298.474 22.6853 298.57 22.3653 298.57 21.928V13.16H300.074V21.928C300.074 22.984 299.86 23.7627 299.434 24.264C299.007 24.7547 298.298 25 297.306 25H296.362V23.576ZM305.135 25C304.09 25 303.338 24.7867 302.879 24.36C302.42 23.9227 302.191 23.1973 302.191 22.184V13.16H303.679V22.04C303.679 22.488 303.78 22.792 303.983 22.952C304.196 23.112 304.543 23.192 305.023 23.192H305.551V24.616L305.151 25H305.135ZM305.076 23.576L305.46 23.192H306.948C307.428 23.192 307.758 23.144 307.94 23.048C308.121 22.9413 308.212 22.7653 308.212 22.52C308.212 22.36 308.164 22.2 308.068 22.04C307.972 21.88 307.79 21.6453 307.524 21.336L305.62 19.24V15.848L312.852 12.984V14.712L306.276 17.32V17.416L310.052 21.528C310.361 21.8693 310.638 22.1467 310.884 22.36C311.129 22.5733 311.364 22.744 311.588 22.872C311.812 22.9893 312.036 23.0747 312.26 23.128C312.484 23.1707 312.734 23.192 313.012 23.192V24.616L312.628 25C312.254 25 311.924 24.9733 311.636 24.92C311.348 24.856 311.076 24.744 310.82 24.584C310.564 24.424 310.302 24.2107 310.036 23.944C309.769 23.6667 309.476 23.3147 309.156 22.888L308.82 22.44L308.74 22.472C308.772 22.6533 308.788 22.824 308.788 22.984C308.788 23.5813 308.606 24.0667 308.244 24.44C307.892 24.8133 307.412 25 306.804 25H305.076V23.576ZM314.719 24.088C314.473 24.4187 314.18 24.6533 313.839 24.792C313.497 24.9307 313.06 25 312.527 25V23.576L312.911 23.192C313.316 23.192 313.609 23.1067 313.791 22.936C313.983 22.7547 314.159 22.4507 314.319 22.024L314.767 20.872C315.023 20.2107 315.359 19.6827 315.775 19.288C316.201 18.8827 316.772 18.68 317.487 18.68C318.361 18.68 319.033 19.0533 319.503 19.8C319.972 20.536 320.207 21.5707 320.207 22.904V23.528L319.007 25.288L314.719 24.088ZM315.471 22.408L318.831 23.352V22.904C318.831 22.1467 318.687 21.5547 318.399 21.128C318.111 20.7013 317.711 20.488 317.199 20.488C316.825 20.488 316.521 20.6 316.287 20.824C316.063 21.0373 315.876 21.336 315.727 21.72L315.471 22.408Z" fill="white"/>
<path fill-rule="evenodd" clip-rule="evenodd" d="M334.513 11.9061C334.279 11.4869 333.903 11.1696 333.431 11.072C332.953 10.9734 332.474 11.1188 332.08 11.4401C330.649 12.6059 329.739 14.4736 330.134 16.433C330.377 17.6373 330.781 18.8257 331.606 20.2629C333.26 23.1474 335.849 25.738 338.737 27.3942C340.174 28.2184 341.363 28.6232 342.567 28.8661C344.526 29.2614 346.394 28.3507 347.56 26.9204C347.881 26.5262 348.027 26.0466 347.928 25.5694C347.83 25.0972 347.513 24.7211 347.094 24.4874L345.759 23.7431C345.267 23.4689 344.853 23.2382 344.493 23.0875C344.111 22.9277 343.735 22.8327 343.319 22.8761C342.903 22.9195 342.554 23.0901 342.213 23.3252C341.892 23.5469 341.535 23.8581 341.11 24.2278L338.978 26.0844C336.562 24.6105 334.388 22.4354 332.916 20.0221L334.772 17.8896C335.142 17.4649 335.453 17.1075 335.675 16.7865C335.91 16.446 336.08 16.0973 336.124 15.6812C336.167 15.265 336.072 14.8887 335.912 14.507C335.762 14.1472 335.531 13.7333 335.257 13.2414L334.513 11.9061ZM342.814 27.6408C341.96 27.4684 341.114 27.207 340.142 26.7281L341.905 25.1931C342.363 24.7949 342.667 24.5308 342.924 24.3538C343.167 24.1857 343.316 24.1332 343.448 24.1194C343.581 24.1056 343.737 24.1263 344.01 24.2405C344.298 24.3608 344.65 24.5564 345.18 24.8516L346.485 25.5793C346.644 25.6679 346.692 25.7654 346.704 25.8224C346.715 25.8745 346.714 25.9798 346.591 26.1307C345.654 27.2797 344.228 27.9259 342.814 27.6408ZM333.807 17.0946L332.272 18.8578C331.793 17.8858 331.532 17.0404 331.359 16.1858C331.074 14.7724 331.72 13.3455 332.869 12.4091C333.02 12.2861 333.125 12.2853 333.178 12.2961C333.235 12.3079 333.332 12.3556 333.421 12.5147L334.148 13.8201C334.444 14.3498 334.639 14.7024 334.759 14.9898C334.874 15.2626 334.894 15.4192 334.881 15.5515C334.867 15.6839 334.814 15.8328 334.646 16.0762C334.469 16.3325 334.205 16.6373 333.807 17.0946Z" fill="white"/>
<path d="M341.385 11.0662C341.053 10.9705 340.707 11.1618 340.611 11.4934C340.515 11.825 340.707 12.1715 341.038 12.2672C343.78 13.0583 345.941 15.2201 346.733 17.9614C346.828 18.293 347.175 18.4843 347.506 18.3885C347.838 18.2928 348.029 17.9464 347.934 17.6147C347.023 14.4608 344.539 11.9764 341.385 11.0662Z" fill="white"/>
<path d="M340.911 15.118C340.593 14.983 340.226 15.1312 340.091 15.4489C339.956 15.7667 340.104 16.1336 340.422 16.2685C341.459 16.7089 342.291 17.5407 342.731 18.5777C342.866 18.8954 343.233 19.0436 343.551 18.9086C343.869 18.7737 344.017 18.4068 343.882 18.0891C343.315 16.754 342.246 15.6849 340.911 15.118Z" fill="white"/>
</svg>
