<svg width="1200" height="77" viewBox="0 0 1200 77" fill="none" xmlns="http://www.w3.org/2000/svg">
<path d="M1049.03 15.168C1048.02 15.168 1047.16 15.112 1046.46 15C1045.77 14.888 1045.21 14.706 1044.78 14.454C1044.35 14.1927 1044.04 13.8567 1043.84 13.446C1043.65 13.0353 1043.56 12.5267 1043.56 11.92C1043.56 11.5467 1043.61 11.136 1043.7 10.688C1043.8 10.24 1043.94 9.79667 1044.12 9.358L1045.46 9.75C1045.31 10.0673 1045.18 10.3753 1045.09 10.674C1045 10.9633 1044.96 11.2247 1044.96 11.458C1044.96 11.7287 1045.02 11.9573 1045.13 12.144C1045.24 12.3213 1045.42 12.466 1045.67 12.578C1045.93 12.69 1046.26 12.774 1046.67 12.83C1047.08 12.8767 1047.59 12.9 1048.19 12.9H1050.15C1050.77 12.9 1051.29 12.886 1051.71 12.858C1052.13 12.83 1052.46 12.7833 1052.72 12.718C1052.98 12.6433 1053.16 12.5547 1053.28 12.452C1053.4 12.34 1053.46 12.2047 1053.46 12.046C1053.46 11.906 1053.44 11.7287 1053.42 11.514C1053.4 11.29 1053.36 11.0007 1053.29 10.646L1053.05 9.344L1054.58 9.092L1054.79 10.394C1054.83 10.646 1054.87 10.926 1054.9 11.234C1054.93 11.542 1054.94 11.8127 1054.94 12.046C1054.94 12.6713 1054.85 13.1847 1054.68 13.586C1054.51 13.9873 1054.2 14.3047 1053.75 14.538C1053.31 14.7713 1052.71 14.9347 1051.95 15.028C1051.19 15.1213 1050.22 15.168 1049.03 15.168ZM1050.13 9.918C1049.88 9.918 1049.68 9.84333 1049.52 9.694C1049.37 9.54467 1049.3 9.30667 1049.3 8.98C1049.3 8.65333 1049.37 8.41533 1049.52 8.266C1049.68 8.11667 1049.88 8.042 1050.13 8.042H1050.41C1050.65 8.042 1050.84 8.11667 1050.99 8.266C1051.15 8.41533 1051.23 8.65333 1051.23 8.98C1051.23 9.30667 1051.15 9.54467 1050.99 9.694C1050.84 9.84333 1050.65 9.918 1050.41 9.918H1050.13ZM1047.91 9.918C1047.67 9.918 1047.47 9.84333 1047.31 9.694C1047.16 9.54467 1047.09 9.30667 1047.09 8.98C1047.09 8.65333 1047.16 8.41533 1047.31 8.266C1047.47 8.11667 1047.67 8.042 1047.91 8.042H1048.19C1048.44 8.042 1048.63 8.11667 1048.78 8.266C1048.94 8.41533 1049.02 8.65333 1049.02 8.98C1049.02 9.30667 1048.94 9.54467 1048.78 9.694C1048.63 9.84333 1048.44 9.918 1048.19 9.918H1047.91ZM1058.99 15C1058.04 15 1057.34 14.776 1056.89 14.328C1056.43 13.88 1056.2 13.152 1056.2 12.144V4.64H1057.88V11.864C1057.88 12.284 1057.96 12.564 1058.13 12.704C1058.3 12.8347 1058.59 12.9 1059 12.9H1059.42V14.58L1059 15H1058.99ZM1059 13.32L1059.42 12.9H1059.84C1060.59 12.9 1060.96 12.5733 1060.96 11.92V9.918H1062.5V11.92C1062.5 12.5733 1062.83 12.9 1063.48 12.9H1064.04V14.58L1063.62 15C1062.87 15 1062.3 14.8507 1061.91 14.552C1061.53 14.244 1061.27 13.7633 1061.14 13.11H1061.06C1060.93 13.7633 1060.7 14.244 1060.39 14.552C1060.07 14.8507 1059.61 15 1059 15V13.32ZM1061.59 18.01C1061.35 18.01 1061.15 17.9353 1060.99 17.786C1060.84 17.6367 1060.76 17.3987 1060.76 17.072C1060.76 16.7453 1060.84 16.5073 1060.99 16.358C1061.15 16.2087 1061.35 16.134 1061.59 16.134H1061.87C1062.11 16.134 1062.31 16.2087 1062.46 16.358C1062.62 16.5073 1062.7 16.7453 1062.7 17.072C1062.7 17.3987 1062.62 17.6367 1062.46 17.786C1062.31 17.9353 1062.11 18.01 1061.87 18.01H1061.59ZM1063.62 13.32L1064.04 12.9H1066.45C1066.77 12.9 1066.99 12.8673 1067.11 12.802C1067.23 12.7273 1067.29 12.5967 1067.29 12.41C1067.29 12.242 1067.23 12.0973 1067.12 11.976C1067.01 11.8547 1066.78 11.7007 1066.44 11.514L1064.18 10.296V6.6L1070.9 4.472V6.32L1064.88 8.21V8.294L1066.44 9.162C1066.86 9.39533 1067.21 9.624 1067.5 9.848C1067.79 10.0627 1068.02 10.2867 1068.19 10.52C1068.36 10.7533 1068.49 11.0007 1068.56 11.262C1068.65 11.514 1068.69 11.7987 1068.69 12.116C1068.69 13.1053 1068.47 13.8333 1068.03 14.3C1067.6 14.7667 1066.89 15 1065.89 15H1063.62V13.32ZM1068.52 16.26H1069.08C1069.93 16.26 1070.55 16.0873 1070.94 15.742C1071.34 15.3967 1071.54 14.8227 1071.53 14.02C1071.53 13.8053 1071.52 13.5813 1071.49 13.348C1071.46 13.1053 1071.42 12.8487 1071.38 12.578L1071.08 10.716L1072.61 10.478L1072.82 11.78C1072.85 11.9853 1072.88 12.1813 1072.9 12.368C1072.93 12.5547 1072.95 12.732 1072.97 12.9H1074.26V14.58L1073.84 15H1072.97C1072.81 16.036 1072.4 16.8527 1071.74 17.45C1071.09 18.0567 1070.2 18.36 1069.09 18.36H1068.52V16.26ZM1075.89 14.216C1075.68 14.5053 1075.41 14.7107 1075.08 14.832C1074.76 14.944 1074.35 15 1073.83 15V13.32L1074.25 12.9C1074.6 12.9 1074.85 12.8487 1075.01 12.746C1075.17 12.6433 1075.3 12.4613 1075.4 12.2L1075.79 11.234C1075.92 10.9353 1076.05 10.6553 1076.2 10.394C1076.35 10.1327 1076.53 9.904 1076.73 9.708C1076.94 9.512 1077.17 9.358 1077.42 9.246C1077.68 9.134 1077.98 9.078 1078.31 9.078C1079.19 9.078 1079.85 9.42333 1080.29 10.114C1080.74 10.8047 1080.96 11.7613 1080.96 12.984V13.39L1079.63 15.364L1075.89 14.216ZM1076.66 12.27L1079.48 13.124V12.984C1079.48 12.424 1079.34 11.9853 1079.07 11.668C1078.8 11.3507 1078.43 11.192 1077.96 11.192C1077.67 11.192 1077.4 11.2713 1077.18 11.43C1076.97 11.5887 1076.8 11.8407 1076.69 12.186L1076.66 12.27ZM1085.17 16.26H1086.07C1087.29 16.26 1088.19 16.0453 1088.76 15.616C1089.33 15.196 1089.61 14.65 1089.61 13.978V13.614H1089.53C1089.39 14.09 1089.16 14.44 1088.84 14.664C1088.53 14.888 1088.14 15 1087.67 15C1086.91 15 1086.32 14.7807 1085.89 14.342C1085.47 13.894 1085.26 13.2733 1085.26 12.48C1085.26 11.9947 1085.33 11.5467 1085.47 11.136C1085.62 10.716 1085.82 10.3567 1086.07 10.058C1086.33 9.75 1086.63 9.512 1086.98 9.344C1087.33 9.16667 1087.72 9.078 1088.13 9.078C1088.59 9.078 1088.99 9.176 1089.35 9.372C1089.71 9.55867 1090.01 9.834 1090.26 10.198C1090.51 10.5527 1090.7 10.9913 1090.83 11.514C1090.96 12.0367 1091.03 12.6247 1091.03 13.278C1091.03 14.874 1090.62 16.12 1089.79 17.016C1088.98 17.912 1087.79 18.36 1086.21 18.36H1085.17V16.26ZM1088.1 12.9C1088.46 12.9 1088.77 12.886 1089.01 12.858C1089.25 12.8207 1089.45 12.7647 1089.6 12.69C1089.56 12.2327 1089.39 11.8687 1089.08 11.598C1088.77 11.318 1088.39 11.178 1087.95 11.178C1087.58 11.178 1087.27 11.276 1087.02 11.472C1086.78 11.6587 1086.66 11.9013 1086.66 12.2C1086.66 12.452 1086.76 12.634 1086.97 12.746C1087.17 12.8487 1087.45 12.9 1087.81 12.9H1088.1ZM1100.86 15.168C1099.85 15.168 1098.99 15.112 1098.29 15C1097.6 14.888 1097.04 14.706 1096.61 14.454C1096.18 14.1927 1095.87 13.8567 1095.67 13.446C1095.48 13.0353 1095.39 12.5267 1095.39 11.92C1095.39 11.5467 1095.44 11.136 1095.53 10.688C1095.63 10.24 1095.77 9.79667 1095.95 9.358L1097.29 9.75C1097.14 10.0673 1097.01 10.3753 1096.92 10.674C1096.83 10.9633 1096.79 11.2247 1096.79 11.458C1096.79 11.7287 1096.85 11.9573 1096.96 12.144C1097.07 12.3213 1097.25 12.466 1097.5 12.578C1097.76 12.69 1098.09 12.774 1098.5 12.83C1098.91 12.8767 1099.42 12.9 1100.02 12.9H1101.98C1102.6 12.9 1103.12 12.886 1103.54 12.858C1103.96 12.83 1104.29 12.7833 1104.55 12.718C1104.81 12.6433 1104.99 12.5547 1105.11 12.452C1105.23 12.34 1105.29 12.2047 1105.29 12.046C1105.29 11.906 1105.27 11.7287 1105.25 11.514C1105.23 11.29 1105.19 11.0007 1105.12 10.646L1104.88 9.344L1106.41 9.092L1106.62 10.394C1106.66 10.646 1106.7 10.926 1106.73 11.234C1106.76 11.542 1106.77 11.8127 1106.77 12.046C1106.77 12.6713 1106.68 13.1847 1106.51 13.586C1106.34 13.9873 1106.03 14.3047 1105.58 14.538C1105.14 14.7713 1104.54 14.9347 1103.78 15.028C1103.02 15.1213 1102.05 15.168 1100.86 15.168ZM1101.96 9.918C1101.71 9.918 1101.51 9.84333 1101.35 9.694C1101.2 9.54467 1101.13 9.30667 1101.13 8.98C1101.13 8.65333 1101.2 8.41533 1101.35 8.266C1101.51 8.11667 1101.71 8.042 1101.96 8.042H1102.24C1102.48 8.042 1102.67 8.11667 1102.82 8.266C1102.98 8.41533 1103.06 8.65333 1103.06 8.98C1103.06 9.30667 1102.98 9.54467 1102.82 9.694C1102.67 9.84333 1102.48 9.918 1102.24 9.918H1101.96ZM1099.74 9.918C1099.5 9.918 1099.3 9.84333 1099.14 9.694C1098.99 9.54467 1098.92 9.30667 1098.92 8.98C1098.92 8.65333 1098.99 8.41533 1099.14 8.266C1099.3 8.11667 1099.5 8.042 1099.74 8.042H1100.02C1100.27 8.042 1100.46 8.11667 1100.61 8.266C1100.77 8.41533 1100.85 8.65333 1100.85 8.98C1100.85 9.30667 1100.77 9.54467 1100.61 9.694C1100.46 9.84333 1100.27 9.918 1100.02 9.918H1099.74ZM1108.03 4.64H1109.71V15H1108.03V4.64ZM1109.71 16.26H1110.27C1111.12 16.26 1111.74 16.0873 1112.13 15.742C1112.54 15.3967 1112.73 14.8227 1112.72 14.02C1112.72 13.8053 1112.71 13.5813 1112.68 13.348C1112.65 13.1053 1112.62 12.8487 1112.57 12.578L1112.27 10.716L1113.8 10.478L1114.01 11.78C1114.09 12.228 1114.14 12.6433 1114.18 13.026C1114.23 13.3993 1114.25 13.7073 1114.25 13.95C1114.25 14.622 1114.16 15.2287 1114 15.77C1113.83 16.3113 1113.58 16.7733 1113.24 17.156C1112.9 17.548 1112.49 17.8467 1111.99 18.052C1111.5 18.2573 1110.93 18.36 1110.29 18.36H1109.71V16.26ZM1118.36 15C1117.42 15 1116.72 14.776 1116.26 14.328C1115.8 13.88 1115.58 13.152 1115.58 12.144V4.64H1117.26V11.864C1117.26 12.284 1117.34 12.564 1117.51 12.704C1117.68 12.8347 1117.97 12.9 1118.38 12.9H1118.8V14.58L1118.38 15H1118.36ZM1118.38 13.32L1118.8 12.9H1119.22C1119.96 12.9 1120.34 12.5733 1120.34 11.92V9.918H1121.88V11.92C1121.88 12.5733 1122.2 12.9 1122.86 12.9H1123.42V14.58L1123 15C1122.25 15 1121.68 14.8507 1121.29 14.552C1120.91 14.244 1120.65 13.7633 1120.52 13.11H1120.43C1120.3 13.7633 1120.08 14.244 1119.76 14.552C1119.45 14.8507 1118.98 15 1118.38 15V13.32ZM1122.07 18.01C1121.83 18.01 1121.63 17.9353 1121.47 17.786C1121.32 17.6367 1121.25 17.3987 1121.25 17.072C1121.25 16.7453 1121.32 16.5073 1121.47 16.358C1121.63 16.2087 1121.83 16.134 1122.07 16.134H1122.35C1122.6 16.134 1122.79 16.2087 1122.94 16.358C1123.1 16.5073 1123.18 16.7453 1123.18 17.072C1123.18 17.3987 1123.1 17.6367 1122.94 17.786C1122.79 17.9353 1122.6 18.01 1122.35 18.01H1122.07ZM1119.86 18.01C1119.62 18.01 1119.42 17.9353 1119.26 17.786C1119.11 17.6367 1119.03 17.3987 1119.03 17.072C1119.03 16.7453 1119.11 16.5073 1119.26 16.358C1119.42 16.2087 1119.62 16.134 1119.86 16.134H1120.14C1120.38 16.134 1120.58 16.2087 1120.73 16.358C1120.89 16.5073 1120.97 16.7453 1120.97 17.072C1120.97 17.3987 1120.89 17.6367 1120.73 17.786C1120.58 17.9353 1120.38 18.01 1120.14 18.01H1119.86ZM1123 13.32L1123.42 12.9H1123.43C1123.88 12.9 1124.21 12.8487 1124.43 12.746C1124.65 12.634 1124.83 12.4427 1124.96 12.172L1125.5 11.038L1126.89 11.71L1126.4 12.732C1126.62 12.8347 1126.85 12.9233 1127.09 12.998C1127.32 13.0633 1127.56 13.096 1127.8 13.096C1128.2 13.096 1128.49 13.012 1128.67 12.844C1128.85 12.6667 1128.93 12.3587 1128.93 11.92V11.038H1130.47V11.92C1130.47 12.312 1130.54 12.5967 1130.67 12.774C1130.81 12.9513 1131 13.04 1131.23 13.04H1131.37C1131.57 13.04 1131.72 12.97 1131.85 12.83C1131.97 12.6807 1132.03 12.4473 1132.03 12.13C1132.03 11.9993 1132.01 11.836 1131.99 11.64C1131.96 11.4347 1131.92 11.1873 1131.87 10.898L1131.75 10.184L1133.27 9.932L1133.39 10.646C1133.43 10.9167 1133.47 11.1733 1133.48 11.416C1133.5 11.6493 1133.51 11.8873 1133.51 12.13C1133.51 13.1753 1133.33 13.9453 1132.97 14.44C1132.61 14.9253 1132.06 15.168 1131.3 15.168C1130.64 15.168 1130.14 15.0093 1129.8 14.692C1129.47 14.3747 1129.24 13.8847 1129.12 13.222H1129.03C1128.96 13.894 1128.79 14.3887 1128.53 14.706C1128.28 15.014 1127.94 15.168 1127.52 15.168C1127.25 15.168 1126.98 15.1167 1126.71 15.014C1126.45 14.9207 1126.1 14.748 1125.67 14.496L1125.38 14.328C1125.09 14.608 1124.76 14.79 1124.38 14.874C1124.02 14.958 1123.56 15 1123 15V13.32Z" fill="#202020"/>
<path d="M1145.05 15.5H1143.95L1147.58 5.44434H1148.67L1145.05 15.5Z" fill="#E5E5E5"/>
<path d="M1164.38 15C1163.95 15 1163.59 14.9673 1163.29 14.902C1163 14.8273 1162.76 14.7107 1162.58 14.552C1162.4 14.384 1162.27 14.174 1162.19 13.922C1162.1 13.6607 1162.06 13.3387 1162.06 12.956V12.718H1161.99C1161.86 13.138 1161.64 13.4553 1161.32 13.67C1161.01 13.8753 1160.64 13.978 1160.2 13.978C1159.57 13.978 1159.08 13.81 1158.73 13.474C1158.38 13.138 1158.21 12.662 1158.21 12.046C1158.21 11.7847 1158.25 11.542 1158.34 11.318C1158.42 11.0847 1158.56 10.8607 1158.74 10.646C1158.94 10.422 1159.19 10.2027 1159.48 9.988C1159.78 9.764 1160.15 9.53067 1160.58 9.288L1161.99 8.476V7.776H1162.97V12.816C1162.97 13.1987 1163.07 13.46 1163.26 13.6C1163.46 13.7307 1163.76 13.796 1164.17 13.796H1164.66V14.72L1164.38 15ZM1160.41 12.774C1160.98 12.774 1161.38 12.6947 1161.63 12.536C1161.87 12.368 1161.99 12.074 1161.99 11.654V9.61L1160.58 10.366C1160.08 10.6367 1159.73 10.8887 1159.51 11.122C1159.3 11.346 1159.19 11.6073 1159.19 11.906C1159.19 12.2047 1159.28 12.424 1159.46 12.564C1159.64 12.704 1159.96 12.774 1160.41 12.774ZM1162.44 6.614C1162.25 6.614 1162.1 6.56267 1161.99 6.46C1161.88 6.348 1161.82 6.17067 1161.82 5.928C1161.82 5.68533 1161.88 5.51267 1161.99 5.41C1162.1 5.298 1162.25 5.242 1162.44 5.242H1162.59C1162.78 5.242 1162.93 5.298 1163.04 5.41C1163.15 5.51267 1163.21 5.68533 1163.21 5.928C1163.21 6.17067 1163.15 6.348 1163.04 6.46C1162.93 6.56267 1162.78 6.614 1162.59 6.614H1162.44ZM1160.63 6.614C1160.45 6.614 1160.3 6.56267 1160.18 6.46C1160.07 6.348 1160.02 6.17067 1160.02 5.928C1160.02 5.68533 1160.07 5.51267 1160.18 5.41C1160.3 5.298 1160.45 5.242 1160.63 5.242H1160.79C1160.97 5.242 1161.12 5.298 1161.23 5.41C1161.35 5.51267 1161.4 5.68533 1161.4 5.928C1161.4 6.17067 1161.35 6.348 1161.23 6.46C1161.12 6.56267 1160.97 6.614 1160.79 6.614H1160.63ZM1164.38 14.076L1164.66 13.796H1165.15C1165.94 13.796 1166.34 13.3993 1166.34 12.606V10.394H1167.32V12.606C1167.32 13.3993 1167.71 13.796 1168.51 13.796H1169V14.72L1168.72 15C1167.43 15 1166.67 14.5427 1166.45 13.628H1166.38C1166.28 14.1413 1166.08 14.5007 1165.78 14.706C1165.48 14.902 1165.01 15 1164.38 15V14.076ZM1167.65 17.8C1167.47 17.8 1167.32 17.744 1167.21 17.632C1167.09 17.5293 1167.04 17.3567 1167.04 17.114C1167.04 16.8713 1167.09 16.694 1167.21 16.582C1167.32 16.4793 1167.47 16.428 1167.65 16.428H1167.81C1167.99 16.428 1168.14 16.4793 1168.26 16.582C1168.37 16.694 1168.42 16.8713 1168.42 17.114C1168.42 17.3567 1168.37 17.5293 1168.26 17.632C1168.14 17.744 1167.99 17.8 1167.81 17.8H1167.65ZM1165.85 17.8C1165.66 17.8 1165.51 17.744 1165.4 17.632C1165.29 17.5293 1165.23 17.3567 1165.23 17.114C1165.23 16.8713 1165.29 16.694 1165.4 16.582C1165.51 16.4793 1165.66 16.428 1165.85 16.428H1166C1166.19 16.428 1166.34 16.4793 1166.45 16.582C1166.56 16.694 1166.62 16.8713 1166.62 17.114C1166.62 17.3567 1166.56 17.5293 1166.45 17.632C1166.34 17.744 1166.19 17.8 1166 17.8H1165.85ZM1168.71 14.076L1168.99 13.796H1169.48C1169.66 13.796 1169.81 13.782 1169.94 13.754C1170.08 13.7167 1170.21 13.656 1170.32 13.572C1170.43 13.488 1170.54 13.376 1170.63 13.236C1170.73 13.096 1170.84 12.914 1170.95 12.69L1171.55 11.514L1172.35 11.92L1171.61 13.32L1171.81 13.446C1172.1 13.642 1172.39 13.7773 1172.67 13.852C1172.96 13.9267 1173.24 13.964 1173.51 13.964C1173.95 13.964 1174.27 13.8613 1174.48 13.656C1174.69 13.4507 1174.8 13.1007 1174.8 12.606V11.514H1175.78V12.606C1175.78 13.11 1175.85 13.4647 1175.99 13.67C1176.13 13.866 1176.37 13.964 1176.69 13.964H1177.01C1177.34 13.964 1177.57 13.866 1177.7 13.67C1177.84 13.4647 1177.91 13.11 1177.91 12.606V10.954H1178.89V12.606C1178.89 13.3993 1179.29 13.796 1180.08 13.796H1180.57V14.72L1180.29 15C1179.67 15 1179.19 14.902 1178.83 14.706C1178.48 14.5007 1178.23 14.188 1178.09 13.768H1178.02C1177.97 14.2907 1177.83 14.6547 1177.6 14.86C1177.38 15.0653 1177.05 15.168 1176.62 15.168C1175.66 15.168 1175.1 14.7013 1174.93 13.768H1174.86C1174.76 14.216 1174.58 14.5613 1174.31 14.804C1174.05 15.0467 1173.7 15.168 1173.26 15.168C1172.71 15.168 1172.1 14.9487 1171.41 14.51L1170.98 14.23C1170.71 14.5287 1170.4 14.734 1170.06 14.846C1169.71 14.9487 1169.26 15 1168.71 15V14.076ZM1180.29 14.076L1180.57 13.796H1181.06C1181.86 13.796 1182.25 13.3993 1182.25 12.606V10.394H1183.23V12.606C1183.23 13.3993 1183.63 13.796 1184.42 13.796H1184.91V14.72L1184.63 15C1183.34 15 1182.59 14.5427 1182.36 13.628H1182.29C1182.19 14.1413 1181.99 14.5007 1181.69 14.706C1181.39 14.902 1180.93 15 1180.29 15V14.076ZM1183.57 17.8C1183.38 17.8 1183.23 17.744 1183.12 17.632C1183.01 17.5293 1182.95 17.3567 1182.95 17.114C1182.95 16.8713 1183.01 16.694 1183.12 16.582C1183.23 16.4793 1183.38 16.428 1183.57 16.428H1183.72C1183.91 16.428 1184.06 16.4793 1184.17 16.582C1184.28 16.694 1184.34 16.8713 1184.34 17.114C1184.34 17.3567 1184.28 17.5293 1184.17 17.632C1184.06 17.744 1183.91 17.8 1183.72 17.8H1183.57ZM1181.76 17.8C1181.58 17.8 1181.43 17.744 1181.31 17.632C1181.2 17.5293 1181.15 17.3567 1181.15 17.114C1181.15 16.8713 1181.2 16.694 1181.31 16.582C1181.43 16.4793 1181.58 16.428 1181.76 16.428H1181.92C1182.1 16.428 1182.25 16.4793 1182.36 16.582C1182.48 16.694 1182.53 16.8713 1182.53 17.114C1182.53 17.3567 1182.48 17.5293 1182.36 17.632C1182.25 17.744 1182.1 17.8 1181.92 17.8H1181.76ZM1184.63 14.076L1184.91 13.796H1185.12C1185.73 13.796 1186.18 13.7213 1186.45 13.572C1186.73 13.4133 1186.87 13.1147 1186.87 12.676C1186.87 12.508 1186.85 12.2933 1186.82 12.032C1186.81 11.7707 1186.76 11.4253 1186.68 10.996L1186.49 9.834L1187.47 9.68L1187.64 10.842C1187.7 11.2993 1187.75 11.6727 1187.78 11.962C1187.8 12.2513 1187.82 12.4893 1187.82 12.676C1187.82 13.46 1187.58 14.0433 1187.12 14.426C1186.66 14.8087 1185.99 15 1185.12 15H1184.63V14.076ZM1185.38 7.72H1185.89L1185.9 7.664C1185.83 7.57067 1185.76 7.46333 1185.72 7.342C1185.67 7.21133 1185.65 7.08067 1185.65 6.95C1185.65 6.586 1185.77 6.28267 1186.01 6.04C1186.25 5.79733 1186.56 5.676 1186.94 5.676C1187.15 5.676 1187.37 5.732 1187.59 5.844C1187.82 5.94667 1187.99 6.08667 1188.1 6.264L1187.58 6.894C1187.39 6.67933 1187.18 6.572 1186.94 6.572C1186.77 6.572 1186.63 6.61867 1186.52 6.712C1186.4 6.796 1186.35 6.90333 1186.35 7.034C1186.35 7.23 1186.44 7.384 1186.61 7.496C1186.79 7.608 1187.04 7.664 1187.36 7.664H1188.25V8.56H1185.38V7.72ZM1187.61 17.156H1188.13C1188.64 17.156 1189.06 17.0813 1189.39 16.932C1189.71 16.7827 1189.97 16.582 1190.16 16.33C1190.34 16.0873 1190.47 15.798 1190.55 15.462C1190.62 15.1353 1190.66 14.79 1190.66 14.426C1190.66 14.1553 1190.65 13.8753 1190.62 13.586C1190.59 13.2873 1190.55 13.0027 1190.51 12.732L1190.21 11.15L1191.19 10.954L1191.37 12.018C1191.43 12.3447 1191.47 12.6527 1191.5 12.942C1191.54 13.2313 1191.56 13.516 1191.58 13.796H1192.91V14.72L1192.63 15H1191.57C1191.53 15.4573 1191.44 15.8867 1191.3 16.288C1191.17 16.6987 1190.97 17.058 1190.7 17.366C1190.44 17.674 1190.09 17.9167 1189.67 18.094C1189.25 18.2713 1188.73 18.36 1188.13 18.36H1187.61V17.156ZM1192.64 14.076L1192.92 13.796H1193.32C1193.77 13.796 1194.09 13.6933 1194.29 13.488C1194.5 13.2827 1194.6 12.956 1194.6 12.508V4.64H1195.63V12.508C1195.63 13.3667 1195.45 13.9967 1195.07 14.398C1194.71 14.7993 1194.13 15 1193.32 15H1192.64V14.076ZM1197.73 4.64H1198.76V15H1197.73V4.64Z" fill="#646464"/>
<rect x="0.5" y="37.5" width="148" height="39" rx="3.5" stroke="#3F51B5"/>
<path d="M30.784 62.192C29.6427 62.192 28.6827 62.128 27.904 62C27.1253 61.8827 26.496 61.6907 26.016 61.424C25.536 61.1467 25.1893 60.7893 24.976 60.352C24.7733 59.904 24.672 59.36 24.672 58.72C24.672 57.8667 24.8907 56.912 25.328 55.856L26.56 56.224C26.3573 56.6507 26.2027 57.0453 26.096 57.408C25.9893 57.76 25.936 58.0907 25.936 58.4C25.936 59.0613 26.2293 59.536 26.816 59.824C27.4133 60.112 28.384 60.256 29.728 60.256H31.968C32.736 60.256 33.3653 60.24 33.856 60.208C34.3467 60.1653 34.7307 60.096 35.008 60C35.296 59.8933 35.4933 59.7547 35.6 59.584C35.7173 59.4133 35.776 59.1947 35.776 58.928V56.496H37.168V58.928C37.168 59.7707 37.6107 60.192 38.496 60.192H39.024V61.616L38.64 62C37.1147 62 36.2133 61.3813 35.936 60.144H35.856C35.7813 60.5387 35.6427 60.8693 35.44 61.136C35.248 61.392 34.9547 61.6 34.56 61.76C34.176 61.92 33.6747 62.032 33.056 62.096C32.448 62.16 31.6907 62.192 30.784 62.192ZM31.856 56.144C31.6107 56.144 31.4133 56.0693 31.264 55.92C31.1147 55.7707 31.04 55.5413 31.04 55.232C31.04 54.912 31.1147 54.6827 31.264 54.544C31.4133 54.3947 31.6107 54.32 31.856 54.32H32.08C32.3253 54.32 32.5227 54.3947 32.672 54.544C32.8213 54.6827 32.896 54.912 32.896 55.232C32.896 55.5413 32.8213 55.7707 32.672 55.92C32.5227 56.0693 32.3253 56.144 32.08 56.144H31.856ZM29.584 56.144C29.3387 56.144 29.1413 56.0693 28.992 55.92C28.8533 55.7707 28.784 55.5413 28.784 55.232C28.784 54.912 28.8533 54.6827 28.992 54.544C29.1413 54.3947 29.3387 54.32 29.584 54.32H29.824C30.0693 54.32 30.2667 54.3947 30.416 54.544C30.5653 54.6827 30.64 54.912 30.64 55.232C30.64 55.5413 30.5653 55.7707 30.416 55.92C30.2667 56.0693 30.0693 56.144 29.824 56.144H29.584ZM30.72 54.032C30.4853 54.032 30.2933 53.9627 30.144 53.824C29.9947 53.6747 29.92 53.4453 29.92 53.136C29.92 52.8267 29.9947 52.6027 30.144 52.464C30.2933 52.3253 30.4853 52.256 30.72 52.256H30.96C31.1947 52.256 31.3813 52.3253 31.52 52.464C31.6693 52.6027 31.744 52.8267 31.744 53.136C31.744 53.4453 31.6693 53.6747 31.52 53.824C31.3813 53.9627 31.1947 54.032 30.96 54.032H30.72ZM38.5513 60.576L38.9353 60.192H39.7193C40.2419 60.192 40.7219 60.1813 41.1593 60.16C41.5966 60.1387 42.0233 60.0907 42.4393 60.016C42.8553 59.9307 43.2819 59.8133 43.7193 59.664C44.1566 59.504 44.6419 59.296 45.1753 59.04L46.2793 58.512V58.432L43.8153 57.904L40.8873 57.184V58.48H39.4633V57.248C39.4633 56.672 39.6019 56.2453 39.8793 55.968C40.1673 55.68 40.5673 55.536 41.0793 55.536C41.2179 55.536 41.3779 55.552 41.5593 55.584C41.7513 55.616 42.0553 55.6853 42.4713 55.792L46.0233 56.704C47.0473 56.9707 47.9273 57.104 48.6633 57.104H48.9513V58.912H47.7833V58.992C47.7833 59.44 47.8846 59.7547 48.0873 59.936C48.2899 60.1067 48.6206 60.192 49.0793 60.192H49.6073V61.616L49.2233 62C48.3379 62 47.6819 61.8187 47.2553 61.456C46.8393 61.0827 46.6046 60.48 46.5513 59.648L45.7353 60.16C45.0526 60.5867 44.4446 60.9227 43.9113 61.168C43.3886 61.4133 42.8979 61.6 42.4393 61.728C41.9806 61.8453 41.5326 61.92 41.0953 61.952C40.6686 61.984 40.2099 62 39.7193 62H38.5513V60.576ZM49.1271 60.576L49.5111 60.192H50.0391C50.9245 60.192 51.3671 59.7707 51.3671 58.928V56.496H52.7591V58.928C52.7591 59.7707 53.1751 60.192 54.0071 60.192H54.6151V61.616L54.2151 62C53.4258 62 52.8125 61.856 52.3751 61.568C51.9485 61.2693 51.6658 60.8053 51.5271 60.176H51.4311C51.3031 60.8373 51.0631 61.3067 50.7111 61.584C50.3698 61.8613 49.8418 62 49.1271 62V60.576ZM51.9271 65.312C51.6818 65.312 51.4845 65.2373 51.3351 65.088C51.1965 64.9387 51.1271 64.7093 51.1271 64.4C51.1271 64.08 51.1965 63.8453 51.3351 63.696C51.4845 63.5573 51.6818 63.488 51.9271 63.488H52.1671C52.4125 63.488 52.6098 63.5573 52.7591 63.696C52.9085 63.8453 52.9831 64.08 52.9831 64.4C52.9831 64.7093 52.9085 64.9387 52.7591 65.088C52.6098 65.2373 52.4125 65.312 52.1671 65.312H51.9271ZM54.1405 60.576L54.5245 60.192H55.0845C55.5538 60.192 55.8792 60.0907 56.0605 59.888C56.2525 59.6853 56.3485 59.3653 56.3485 58.928V50.16H57.8525V58.928C57.8525 59.984 57.6392 60.7627 57.2125 61.264C56.7858 61.7547 56.0765 62 55.0845 62H54.1405V60.576ZM59.97 50.16H61.458V62H59.97V50.16ZM78.4624 62C78.0677 62 77.721 61.9627 77.4224 61.888C77.1237 61.8027 76.8464 61.6533 76.5904 61.44C75.9824 61.8133 75.1237 62 74.0144 62H66.8144V60.192H68.3024L68.8304 59.312V50.16H70.3344V55.264L70.1424 57.136L70.2224 57.184C70.8517 56.4053 71.5024 55.8613 72.1744 55.552C72.857 55.232 73.5984 55.072 74.3984 55.072C75.529 55.072 76.393 55.3867 76.9904 56.016C77.5877 56.6347 77.8864 57.4933 77.8864 58.592C77.8864 59.1893 77.8064 59.696 77.6464 60.112C77.7744 60.144 77.9024 60.1653 78.0304 60.176C78.169 60.1867 78.313 60.192 78.4624 60.192H78.8464V61.616L78.4624 62ZM74.0144 60.192C74.8997 60.192 75.545 60.08 75.9504 59.856C76.3557 59.632 76.5584 59.2213 76.5584 58.624C76.5584 57.472 75.9184 56.896 74.6384 56.896H74.1584C73.7104 56.896 73.3104 56.928 72.9584 56.992C72.6064 57.056 72.2757 57.168 71.9664 57.328C71.6677 57.488 71.385 57.7067 71.1184 57.984C70.8517 58.2613 70.5744 58.6133 70.2864 59.04L69.5984 60.096L69.6464 60.192H74.0144ZM73.7904 53.44C73.545 53.44 73.3477 53.3653 73.1984 53.216C73.0597 53.0667 72.9904 52.8373 72.9904 52.528C72.9904 52.208 73.0597 51.9787 73.1984 51.84C73.3477 51.6907 73.545 51.616 73.7904 51.616H74.0304C74.2757 51.616 74.473 51.6907 74.6224 51.84C74.7717 51.9787 74.8464 52.208 74.8464 52.528C74.8464 52.8373 74.7717 53.0667 74.6224 53.216C74.473 53.3653 74.2757 53.44 74.0304 53.44H73.7904ZM78.3659 60.576L78.7499 60.192H80.8139L80.8459 60.112C79.8859 59.2907 79.4059 58.3253 79.4059 57.216C79.4059 56.768 79.4752 56.3467 79.6139 55.952C79.7632 55.5573 79.9712 55.2107 80.2379 54.912C80.5045 54.6133 80.8192 54.3787 81.1819 54.208C81.5552 54.0373 81.9659 53.952 82.4139 53.952C82.8619 53.952 83.2672 54.0373 83.6299 54.208C84.0032 54.3787 84.3179 54.6133 84.5739 54.912C84.8405 55.2 85.0485 55.5467 85.1979 55.952C85.3472 56.3467 85.4219 56.768 85.4219 57.216C85.4219 58.3147 84.9419 59.28 83.9819 60.112L84.0139 60.192H86.0939V61.616L85.7099 62H85.5179C84.9525 62 84.4085 61.936 83.8859 61.808C83.3739 61.6693 82.8832 61.4453 82.4139 61.136C81.9552 61.4453 81.4645 61.6693 80.9419 61.808C80.4192 61.936 79.8805 62 79.3259 62H78.3659V60.576ZM82.4139 59.824C82.9579 59.5253 83.3792 59.184 83.6779 58.8C83.9765 58.416 84.1259 57.968 84.1259 57.456C84.1259 56.944 83.9712 56.5333 83.6619 56.224C83.3632 55.9147 82.9739 55.76 82.4939 55.76H82.3179C81.8379 55.76 81.4432 55.9147 81.1339 56.224C80.8352 56.5333 80.6859 56.944 80.6859 57.456C80.6859 57.968 80.8352 58.416 81.1339 58.8C81.4432 59.184 81.8699 59.5253 82.4139 59.824ZM82.2859 52.32C82.0405 52.32 81.8432 52.2453 81.6939 52.096C81.5552 51.9467 81.4859 51.7173 81.4859 51.408C81.4859 51.088 81.5552 50.8587 81.6939 50.72C81.8432 50.5707 82.0405 50.496 82.2859 50.496H82.5259C82.7712 50.496 82.9685 50.5707 83.1179 50.72C83.2672 50.8587 83.3419 51.088 83.3419 51.408C83.3419 51.7173 83.2672 51.9467 83.1179 52.096C82.9685 52.2453 82.7712 52.32 82.5259 52.32H82.2859ZM85.6136 60.576L85.9976 60.192H86.7816C87.3043 60.192 87.7843 60.1813 88.2216 60.16C88.659 60.1387 89.0856 60.0907 89.5016 60.016C89.9176 59.9307 90.3443 59.8133 90.7816 59.664C91.219 59.504 91.7043 59.296 92.2376 59.04L93.3416 58.512V58.432L90.8776 57.904L87.9496 57.184V58.48H86.5256V57.248C86.5256 56.672 86.6643 56.2453 86.9416 55.968C87.2296 55.68 87.6296 55.536 88.1416 55.536C88.2803 55.536 88.4403 55.552 88.6216 55.584C88.8136 55.616 89.1176 55.6853 89.5336 55.792L93.0856 56.704C94.1096 56.9707 94.9896 57.104 95.7256 57.104H96.0136V58.912H94.7656L92.8776 60.096C92.195 60.5227 91.587 60.864 91.0536 61.12C90.5203 61.3653 90.019 61.5573 89.5496 61.696C89.0803 61.824 88.6216 61.9093 88.1736 61.952C87.7363 61.984 87.2723 62 86.7816 62H85.6136V60.576Z" fill="#3F51B5"/>
<path fill-rule="evenodd" clip-rule="evenodd" d="M108.454 49.7955C110.939 48.2717 113.167 48.879 114.513 49.89C114.735 50.0563 114.887 50.1702 115 50.247C115.113 50.1702 115.265 50.0563 115.487 49.89C116.833 48.879 119.061 48.2717 121.546 49.7955C123.263 50.8491 124.23 53.05 123.891 55.5788C123.55 58.1197 121.905 60.9936 118.422 63.5716C118.393 63.5932 118.364 63.6146 118.336 63.6358C117.126 64.5315 116.325 65.1248 115 65.1248C113.675 65.1248 112.874 64.5315 111.664 63.6358C111.636 63.6146 111.607 63.5932 111.578 63.5716C108.095 60.9936 106.45 58.1197 106.109 55.5788C105.77 53.05 106.737 50.8491 108.454 49.7955ZM114.869 50.3276C114.867 50.3288 114.867 50.3284 114.871 50.3271C114.87 50.3273 114.87 50.3274 114.869 50.3276ZM115.129 50.3271C115.133 50.3284 115.133 50.3288 115.131 50.3276C115.13 50.3274 115.13 50.3273 115.129 50.3271ZM113.763 50.8895C112.766 50.1407 111.093 49.6432 109.108 50.861C107.893 51.6063 107.061 53.2724 107.348 55.4126C107.634 57.5406 109.04 60.1378 112.321 62.5669C113.64 63.5428 114.121 63.8748 115 63.8748C115.879 63.8748 116.36 63.5428 117.679 62.5669C120.96 60.1378 122.366 57.5406 122.652 55.4126C122.939 53.2724 122.107 51.6063 120.892 50.861C118.907 49.6432 117.234 50.1407 116.237 50.8895L116.22 50.9026C115.995 51.0719 115.801 51.2172 115.646 51.3186C115.566 51.3713 115.477 51.4249 115.384 51.4667C115.296 51.5063 115.162 51.556 115 51.556C114.838 51.556 114.704 51.5063 114.616 51.4667C114.523 51.4249 114.434 51.3713 114.354 51.3186C114.199 51.2172 114.005 51.0718 113.78 50.9026L113.763 50.8895Z" fill="#3F51B5"/>
<path d="M169.402 55.2035C169.484 55.3111 169.726 55.6323 169.871 55.8174C170.16 56.1882 170.556 56.6809 170.982 57.1722C171.411 57.666 171.861 58.1468 172.261 58.5003C172.462 58.6776 172.638 58.8122 172.784 58.8999C172.92 58.9824 173.001 58.9995 173.001 58.9995C173.001 58.9995 173.079 58.9824 173.216 58.8999C173.362 58.8123 173.538 58.6776 173.739 58.5003C174.139 58.1468 174.589 57.6659 175.018 57.1722C175.444 56.6809 175.84 56.1882 176.129 55.8174C176.273 55.6322 176.516 55.3115 176.597 55.204C176.761 54.9816 177.074 54.9336 177.296 55.0974C177.519 55.2612 177.566 55.5742 177.402 55.7965L177.401 55.7981C177.316 55.9108 177.065 56.2436 176.917 56.4326C176.621 56.8118 176.214 57.3191 175.773 57.8278C175.333 58.3341 174.849 58.8532 174.401 59.2497C174.177 59.4474 173.95 59.6253 173.733 59.7563C173.529 59.8791 173.271 60 173 60C172.729 60 172.471 59.8791 172.267 59.7563C172.05 59.6252 171.823 59.4474 171.599 59.2497C171.15 58.8532 170.667 58.3341 170.227 57.8278C169.785 57.3191 169.378 56.8118 169.082 56.4326C168.935 56.2436 168.684 55.9109 168.599 55.7983L168.598 55.7969C168.434 55.5745 168.481 55.2612 168.703 55.0974C168.926 54.9337 169.239 54.9812 169.402 55.2035Z" fill="#616161"/>
<path d="M189.426 64.86C188.203 64.86 187.261 64.5427 186.598 63.908C185.945 63.2733 185.618 62.3773 185.618 61.22C185.618 60.8 185.674 60.338 185.786 59.834C185.907 59.33 186.071 58.8353 186.276 58.35L187.34 58.672C187.163 59.064 187.018 59.47 186.906 59.89C186.794 60.31 186.738 60.688 186.738 61.024C186.738 61.7053 186.934 62.2327 187.326 62.606C187.718 62.9793 188.259 63.166 188.95 63.166H189.916C190.317 63.166 190.658 63.1193 190.938 63.026C191.218 62.9327 191.447 62.7787 191.624 62.564C191.801 62.3493 191.927 62.0647 192.002 61.71C192.077 61.3647 192.114 60.94 192.114 60.436V51.14H193.43V59.918H195.068V61.164L194.732 61.5H193.374C193.234 62.6573 192.842 63.5067 192.198 64.048C191.554 64.5893 190.63 64.86 189.426 64.86ZM194.73 60.254L195.066 59.918H197.74C198.45 59.918 198.972 59.8013 199.308 59.568C199.654 59.3347 199.826 58.9147 199.826 58.308V57.776H199.756C199.616 58.1213 199.392 58.3827 199.084 58.56C198.786 58.7373 198.417 58.826 197.978 58.826C197.222 58.826 196.634 58.63 196.214 58.238C195.804 57.846 195.598 57.3 195.598 56.6C195.598 56.1613 195.664 55.7507 195.794 55.368C195.934 54.976 196.121 54.64 196.354 54.36C196.597 54.0707 196.882 53.8467 197.208 53.688C197.535 53.52 197.894 53.436 198.286 53.436C199.136 53.436 199.798 53.8 200.274 54.528C200.76 55.256 201.002 56.264 201.002 57.552C201.002 58.3173 200.942 58.9567 200.82 59.47C200.699 59.974 200.503 60.3753 200.232 60.674C199.971 60.9727 199.635 61.1873 199.224 61.318C198.814 61.4393 198.319 61.5 197.74 61.5H194.73V60.254ZM198.314 57.342C198.706 57.342 199.019 57.314 199.252 57.258C199.486 57.202 199.672 57.118 199.812 57.006C199.775 56.3993 199.607 55.9187 199.308 55.564C199.019 55.2 198.636 55.018 198.16 55.018C197.731 55.018 197.39 55.1487 197.138 55.41C196.886 55.662 196.76 55.9933 196.76 56.404C196.76 56.7307 196.868 56.9687 197.082 57.118C197.297 57.2673 197.614 57.342 198.034 57.342H198.314ZM199.14 52.008C198.926 52.008 198.753 51.9427 198.622 51.812C198.501 51.6813 198.44 51.4807 198.44 51.21C198.44 50.93 198.501 50.7293 198.622 50.608C198.753 50.4773 198.926 50.412 199.14 50.412H199.35C199.565 50.412 199.738 50.4773 199.868 50.608C199.999 50.7293 200.064 50.93 200.064 51.21C200.064 51.4807 199.999 51.6813 199.868 51.812C199.738 51.9427 199.565 52.008 199.35 52.008H199.14ZM197.166 52.008C196.952 52.008 196.779 51.9427 196.648 51.812C196.527 51.6813 196.466 51.4807 196.466 51.21C196.466 50.93 196.527 50.7293 196.648 50.608C196.779 50.4773 196.952 50.412 197.166 50.412H197.376C197.591 50.412 197.764 50.4773 197.894 50.608C198.025 50.7293 198.09 50.93 198.09 51.21C198.09 51.4807 198.025 51.6813 197.894 51.812C197.764 51.9427 197.591 52.008 197.376 52.008H197.166ZM202.331 59.946L204.879 57.552L201.421 53.912L202.373 52.96L205.859 56.628C206.008 56.488 206.129 56.3527 206.223 56.222C206.325 56.082 206.405 55.942 206.461 55.802C206.526 55.6527 206.568 55.4893 206.587 55.312C206.615 55.1347 206.629 54.9293 206.629 54.696V51.14H207.945V54.696C207.945 55.004 207.921 55.2747 207.875 55.508C207.837 55.7413 207.767 55.9653 207.665 56.18C207.562 56.3853 207.427 56.5907 207.259 56.796C207.1 56.992 206.895 57.2067 206.643 57.44L207.343 58.182C207.697 58.546 207.94 58.8633 208.071 59.134C208.211 59.3953 208.281 59.6753 208.281 59.974C208.281 60.1793 208.243 60.3753 208.169 60.562C208.094 60.7487 207.987 60.912 207.847 61.052C207.716 61.192 207.553 61.304 207.357 61.388C207.161 61.4627 206.937 61.5 206.685 61.5H202.331V59.946ZM205.635 58.35L203.955 59.862L203.969 59.918H207.147L205.635 58.35ZM202.107 51.35H202.653L202.667 51.28C202.489 51.084 202.401 50.8413 202.401 50.552C202.401 50.1787 202.531 49.8707 202.793 49.628C203.054 49.376 203.385 49.25 203.787 49.25C204.029 49.25 204.267 49.306 204.501 49.418C204.734 49.5207 204.925 49.6653 205.075 49.852L204.487 50.608C204.272 50.3933 204.039 50.286 203.787 50.286C203.619 50.286 203.483 50.328 203.381 50.412C203.278 50.4867 203.227 50.5847 203.227 50.706C203.227 51.0793 203.553 51.266 204.207 51.266H205.173V52.316H202.107V51.35ZM209.827 51.14H211.129V61.5H209.827V51.14ZM220.436 64.86C219.017 64.86 217.911 64.538 217.118 63.894C216.334 63.2593 215.942 62.368 215.942 61.22C215.942 60.8 215.998 60.338 216.11 59.834C216.231 59.33 216.395 58.8353 216.6 58.35L217.664 58.672C217.487 59.0547 217.342 59.4467 217.23 59.848C217.118 60.2493 217.062 60.6133 217.062 60.94C217.062 61.6493 217.319 62.1953 217.832 62.578C218.345 62.97 219.055 63.166 219.96 63.166H220.926C221.449 63.166 221.915 63.1193 222.326 63.026C222.746 62.942 223.101 62.8207 223.39 62.662C223.689 62.5127 223.917 62.3353 224.076 62.13C224.235 61.934 224.323 61.724 224.342 61.5L221.122 60.87V59.372H221.808C222.377 59.372 222.783 59.2973 223.026 59.148C223.278 58.9893 223.404 58.7 223.404 58.28V51.14H224.678V58.28C224.678 58.9987 224.384 59.5307 223.796 59.876V59.946L224.356 60.1C225.103 60.2867 225.476 60.7347 225.476 61.444C225.476 61.948 225.359 62.4053 225.126 62.816C224.902 63.236 224.571 63.5953 224.132 63.894C223.703 64.202 223.175 64.44 222.55 64.608C221.934 64.776 221.229 64.86 220.436 64.86ZM226.862 51.14H228.164V61.5H226.862V51.14ZM237.471 64.86C236.053 64.86 234.947 64.538 234.153 63.894C233.369 63.2593 232.977 62.368 232.977 61.22C232.977 60.8 233.033 60.338 233.145 59.834C233.267 59.33 233.43 58.8353 233.635 58.35L234.699 58.672C234.522 59.0547 234.377 59.4467 234.265 59.848C234.153 60.2493 234.097 60.6133 234.097 60.94C234.097 61.6493 234.354 62.1953 234.867 62.578C235.381 62.97 236.09 63.166 236.995 63.166H237.961C238.895 63.166 239.646 63.0167 240.215 62.718C240.794 62.4287 241.158 62.018 241.307 61.486L238.157 61.038V59.428L239.907 59.694C240.393 59.7687 240.836 59.8247 241.237 59.862C241.648 59.8993 242.003 59.918 242.301 59.918V60.604L242.511 60.884C242.511 61.5093 242.395 62.0693 242.161 62.564C241.937 63.0587 241.606 63.474 241.167 63.81C240.738 64.1553 240.211 64.4167 239.585 64.594C238.969 64.7713 238.265 64.86 237.471 64.86ZM241.967 60.254L242.303 59.918H242.737C243.511 59.918 243.899 59.5493 243.899 58.812V51.14H245.201V58.812C245.201 59.5493 245.569 59.918 246.307 59.918H246.797V61.164L246.461 61.5C245.761 61.5 245.21 61.374 244.809 61.122C244.417 60.8607 244.16 60.4547 244.039 59.904H243.955C243.843 60.4827 243.637 60.8933 243.339 61.136C243.04 61.3787 242.583 61.5 241.967 61.5V60.254ZM246.465 60.254L246.801 59.918H248.285V59.848C248.014 59.6053 247.79 59.2973 247.613 58.924C247.445 58.5507 247.361 58.1447 247.361 57.706C247.361 57.2767 247.435 56.8753 247.585 56.502C247.734 56.1287 247.935 55.8113 248.187 55.55C248.448 55.2793 248.751 55.0693 249.097 54.92C249.451 54.7613 249.834 54.682 250.245 54.682C250.861 54.682 251.383 54.8127 251.813 55.074C252.251 55.326 252.611 55.6807 252.891 56.138L251.855 57.174C251.631 56.8567 251.379 56.628 251.099 56.488C250.828 56.3387 250.511 56.264 250.147 56.264C249.624 56.264 249.218 56.3947 248.929 56.656C248.649 56.908 248.509 57.258 248.509 57.706C248.509 58.21 248.714 58.6207 249.125 58.938C249.545 59.246 250.091 59.4 250.763 59.4C251.22 59.4 251.682 59.3347 252.149 59.204L253.381 58.882L253.759 60.324L251.827 60.87C251.397 61.0007 250.991 61.108 250.609 61.192C250.235 61.2667 249.843 61.3273 249.433 61.374C249.031 61.4207 248.593 61.4533 248.117 61.472C247.641 61.4907 247.09 61.5 246.465 61.5V60.254ZM254.817 59.946L257.365 57.552L253.907 53.912L254.859 52.96L258.345 56.628C258.494 56.488 258.616 56.3527 258.709 56.222C258.812 56.082 258.891 55.942 258.947 55.802C259.012 55.6527 259.054 55.4893 259.073 55.312C259.101 55.1347 259.115 54.9293 259.115 54.696V51.14H260.431V54.696C260.431 55.004 260.408 55.2747 260.361 55.508C260.324 55.7413 260.254 55.9653 260.151 56.18C260.048 56.3853 259.913 56.5907 259.745 56.796C259.586 56.992 259.381 57.2067 259.129 57.44L259.829 58.182C260.184 58.546 260.426 58.8633 260.557 59.134C260.697 59.3953 260.767 59.6753 260.767 59.974C260.767 60.1793 260.73 60.3753 260.655 60.562C260.58 60.7487 260.473 60.912 260.333 61.052C260.202 61.192 260.039 61.304 259.843 61.388C259.647 61.4627 259.423 61.5 259.171 61.5H254.817V59.946ZM258.121 58.35L256.441 59.862L256.455 59.918H259.633L258.121 58.35ZM254.593 51.35H255.139L255.153 51.28C254.976 51.084 254.887 50.8413 254.887 50.552C254.887 50.1787 255.018 49.8707 255.279 49.628C255.54 49.376 255.872 49.25 256.273 49.25C256.516 49.25 256.754 49.306 256.987 49.418C257.22 49.5207 257.412 49.6653 257.561 49.852L256.973 50.608C256.758 50.3933 256.525 50.286 256.273 50.286C256.105 50.286 255.97 50.328 255.867 50.412C255.764 50.4867 255.713 50.5847 255.713 50.706C255.713 51.0793 256.04 51.266 256.693 51.266H257.659V52.316H254.593V51.35ZM262.314 51.14H263.616V61.5H262.314V51.14ZM272.502 64.86C271.196 64.86 270.188 64.5427 269.478 63.908C268.778 63.2733 268.428 62.3773 268.428 61.22C268.428 60.8 268.484 60.338 268.596 59.834C268.718 59.33 268.881 58.8353 269.086 58.35L270.15 58.672C269.973 59.0547 269.828 59.4467 269.716 59.848C269.604 60.2493 269.548 60.6133 269.548 60.94C269.548 61.6493 269.768 62.1953 270.206 62.578C270.645 62.97 271.252 63.166 272.026 63.166H272.992C273.898 63.166 274.56 62.9747 274.98 62.592C275.41 62.2187 275.624 61.6213 275.624 60.8C275.624 60.5387 275.601 60.24 275.554 59.904C275.508 59.5587 275.438 59.162 275.344 58.714L275.078 57.496L276.296 57.258L276.52 58.462C276.567 58.742 276.609 59.0033 276.646 59.246C276.693 59.4793 276.726 59.7033 276.744 59.918H278.06V61.164L277.724 61.5H276.758C276.656 62.648 276.259 63.4927 275.568 64.034C274.878 64.5847 273.856 64.86 272.502 64.86ZM272.558 57.23C272.344 57.23 272.171 57.1647 272.04 57.034C271.919 56.9033 271.858 56.7027 271.858 56.432C271.858 56.152 271.919 55.9513 272.04 55.83C272.171 55.6993 272.344 55.634 272.558 55.634H272.768C272.983 55.634 273.156 55.6993 273.286 55.83C273.417 55.9513 273.482 56.152 273.482 56.432C273.482 56.7027 273.417 56.9033 273.286 57.034C273.156 57.1647 272.983 57.23 272.768 57.23H272.558ZM279.637 60.702C279.422 60.9913 279.165 61.1967 278.867 61.318C278.568 61.4393 278.185 61.5 277.719 61.5V60.254L278.055 59.918C278.409 59.918 278.666 59.8433 278.825 59.694C278.993 59.5353 279.147 59.2693 279.287 58.896L279.679 57.888C279.903 57.3093 280.197 56.8473 280.561 56.502C280.934 56.1473 281.433 55.97 282.059 55.97C282.824 55.97 283.412 56.2967 283.823 56.95C284.233 57.594 284.439 58.4993 284.439 59.666V60.212L283.389 61.752L279.637 60.702ZM280.295 59.232L283.235 60.058V59.666C283.235 59.0033 283.109 58.4853 282.857 58.112C282.605 57.7387 282.255 57.552 281.807 57.552C281.48 57.552 281.214 57.65 281.009 57.846C280.813 58.0327 280.649 58.294 280.519 58.63L280.295 59.232Z" fill="#333333"/>
<path d="M295.269 61.668C294.97 61.668 294.751 61.5933 294.611 61.444C294.48 61.2947 294.415 61.0987 294.415 60.856V60.674C294.415 60.4313 294.48 60.2353 294.611 60.086C294.751 59.9367 294.97 59.862 295.269 59.862C295.567 59.862 295.782 59.9367 295.913 60.086C296.053 60.2353 296.123 60.4313 296.123 60.674V60.856C296.123 61.0987 296.053 61.2947 295.913 61.444C295.782 61.5933 295.567 61.668 295.269 61.668ZM295.269 55.914C294.97 55.914 294.751 55.8393 294.611 55.69C294.48 55.5407 294.415 55.3447 294.415 55.102V54.92C294.415 54.6773 294.48 54.4813 294.611 54.332C294.751 54.1827 294.97 54.108 295.269 54.108C295.567 54.108 295.782 54.1827 295.913 54.332C296.053 54.4813 296.123 54.6773 296.123 54.92V55.102C296.123 55.3447 296.053 55.5407 295.913 55.69C295.782 55.8393 295.567 55.914 295.269 55.914ZM306.473 61.668C305.493 61.668 304.667 61.6167 303.995 61.514C303.332 61.4113 302.796 61.248 302.385 61.024C301.974 60.8 301.676 60.506 301.489 60.142C301.312 59.7687 301.223 59.316 301.223 58.784C301.223 58.4107 301.27 58.028 301.363 57.636C301.466 57.244 301.62 56.81 301.825 56.334L302.693 56.6C302.31 57.3933 302.119 58.0747 302.119 58.644C302.119 59.2507 302.39 59.6987 302.931 59.988C303.472 60.268 304.326 60.408 305.493 60.408H307.453C308.125 60.408 308.68 60.3893 309.119 60.352C309.558 60.3147 309.903 60.2493 310.155 60.156C310.407 60.0533 310.58 59.918 310.673 59.75C310.776 59.582 310.827 59.3673 310.827 59.106V56.894H311.807V59.106C311.807 59.8993 312.204 60.296 312.997 60.296H313.487V61.22L313.207 61.5C311.919 61.5 311.163 61.024 310.939 60.072H310.869C310.813 60.3893 310.706 60.6507 310.547 60.856C310.388 61.0613 310.141 61.2247 309.805 61.346C309.478 61.4673 309.044 61.5513 308.503 61.598C307.971 61.6447 307.294 61.668 306.473 61.668ZM306.389 64.3C306.202 64.3 306.053 64.244 305.941 64.132C305.829 64.0293 305.773 63.8567 305.773 63.614C305.773 63.3713 305.829 63.194 305.941 63.082C306.053 62.9793 306.202 62.928 306.389 62.928H306.543C306.73 62.928 306.879 62.9793 306.991 63.082C307.103 63.194 307.159 63.3713 307.159 63.614C307.159 63.8567 307.103 64.0293 306.991 64.132C306.879 64.244 306.73 64.3 306.543 64.3H306.389ZM313.206 60.576L313.486 60.296H313.976C314.154 60.296 314.308 60.282 314.438 60.254C314.578 60.2167 314.704 60.156 314.816 60.072C314.928 59.988 315.031 59.876 315.124 59.736C315.227 59.596 315.334 59.414 315.446 59.19L316.048 58.014L316.846 58.42L316.104 59.82L316.3 59.946C316.599 60.142 316.888 60.2773 317.168 60.352C317.458 60.4267 317.738 60.464 318.008 60.464C318.447 60.464 318.769 60.3613 318.974 60.156C319.189 59.9507 319.296 59.6007 319.296 59.106V58.014H320.276V59.106C320.276 59.61 320.346 59.9647 320.486 60.17C320.626 60.366 320.86 60.464 321.186 60.464H321.508C321.835 60.464 322.064 60.366 322.194 60.17C322.334 59.9647 322.404 59.61 322.404 59.106V57.454H323.384V59.106C323.384 59.8993 323.781 60.296 324.574 60.296H325.064V61.22L324.784 61.5C324.168 61.5 323.683 61.402 323.328 61.206C322.974 61.0007 322.726 60.688 322.586 60.268H322.516C322.46 60.7907 322.32 61.1547 322.096 61.36C321.872 61.5653 321.546 61.668 321.116 61.668C320.155 61.668 319.59 61.2013 319.422 60.268H319.352C319.259 60.716 319.077 61.0613 318.806 61.304C318.545 61.5467 318.195 61.668 317.756 61.668C317.206 61.668 316.59 61.4487 315.908 61.01L315.474 60.73C315.204 61.0287 314.896 61.234 314.55 61.346C314.205 61.4487 313.757 61.5 313.206 61.5V60.576ZM324.786 60.576L325.066 60.296H325.542C325.953 60.296 326.331 60.282 326.676 60.254C327.031 60.226 327.39 60.1747 327.754 60.1C328.118 60.016 328.501 59.8993 328.902 59.75C329.313 59.6007 329.775 59.4047 330.288 59.162L331.576 58.546V58.49L329.504 58.028L326.606 57.314V58.518H325.626V57.44C325.626 57.048 325.734 56.754 325.948 56.558C326.172 56.3527 326.452 56.25 326.788 56.25C326.891 56.25 327.012 56.264 327.152 56.292C327.302 56.3107 327.53 56.3573 327.838 56.432L331.254 57.314C331.768 57.4447 332.197 57.538 332.542 57.594C332.888 57.6407 333.186 57.664 333.438 57.664H333.662V58.868H332.57L330.666 60.016C330.088 60.3613 329.574 60.6367 329.126 60.842C328.678 61.038 328.258 61.1873 327.866 61.29C327.474 61.3833 327.092 61.444 326.718 61.472C326.354 61.4907 325.962 61.5 325.542 61.5H324.786V60.576ZM343.1 61.668C342.12 61.668 341.294 61.6167 340.622 61.514C339.959 61.4113 339.423 61.248 339.012 61.024C338.601 60.8 338.303 60.506 338.116 60.142C337.939 59.7687 337.85 59.316 337.85 58.784C337.85 58.4107 337.897 58.028 337.99 57.636C338.093 57.244 338.247 56.81 338.452 56.334L339.32 56.6C338.937 57.3933 338.746 58.0747 338.746 58.644C338.746 59.2507 339.017 59.6987 339.558 59.988C340.099 60.268 340.953 60.408 342.12 60.408H344.08C344.752 60.408 345.307 60.3893 345.746 60.352C346.185 60.3147 346.53 60.2493 346.782 60.156C347.034 60.0533 347.207 59.918 347.3 59.75C347.403 59.582 347.454 59.3673 347.454 59.106V56.894H348.434V59.106C348.434 59.8993 348.831 60.296 349.624 60.296H350.114V61.22L349.834 61.5C348.546 61.5 347.79 61.024 347.566 60.072H347.496C347.44 60.3893 347.333 60.6507 347.174 60.856C347.015 61.0613 346.768 61.2247 346.432 61.346C346.105 61.4673 345.671 61.5513 345.13 61.598C344.598 61.6447 343.921 61.668 343.1 61.668ZM343.016 64.3C342.829 64.3 342.68 64.244 342.568 64.132C342.456 64.0293 342.4 63.8567 342.4 63.614C342.4 63.3713 342.456 63.194 342.568 63.082C342.68 62.9793 342.829 62.928 343.016 62.928H343.17C343.357 62.928 343.506 62.9793 343.618 63.082C343.73 63.194 343.786 63.3713 343.786 63.614C343.786 63.8567 343.73 64.0293 343.618 64.132C343.506 64.244 343.357 64.3 343.17 64.3H343.016ZM349.833 60.576L350.113 60.296H350.603C351.397 60.296 351.793 59.8993 351.793 59.106V56.894H352.773V59.106C352.773 59.8993 353.17 60.296 353.963 60.296H354.453V61.22L354.173 61.5C352.885 61.5 352.129 61.0427 351.905 60.128H351.835C351.733 60.6413 351.532 61.0007 351.233 61.206C350.935 61.402 350.468 61.5 349.833 61.5V60.576ZM353.109 64.3C352.923 64.3 352.773 64.244 352.661 64.132C352.549 64.0293 352.493 63.8567 352.493 63.614C352.493 63.3713 352.549 63.194 352.661 63.082C352.773 62.9793 352.923 62.928 353.109 62.928H353.263C353.45 62.928 353.599 62.9793 353.711 63.082C353.823 63.194 353.879 63.3713 353.879 63.614C353.879 63.8567 353.823 64.0293 353.711 64.132C353.599 64.244 353.45 64.3 353.263 64.3H353.109ZM351.303 64.3C351.117 64.3 350.967 64.244 350.855 64.132C350.743 64.0293 350.687 63.8567 350.687 63.614C350.687 63.3713 350.743 63.194 350.855 63.082C350.967 62.9793 351.117 62.928 351.303 62.928H351.457C351.644 62.928 351.793 62.9793 351.905 63.082C352.017 63.194 352.073 63.3713 352.073 63.614C352.073 63.8567 352.017 64.0293 351.905 64.132C351.793 64.244 351.644 64.3 351.457 64.3H351.303ZM354.167 60.576L354.447 60.296H354.657C355.273 60.296 355.717 60.2213 355.987 60.072C356.267 59.9133 356.407 59.6147 356.407 59.176C356.407 59.008 356.393 58.7933 356.365 58.532C356.347 58.2707 356.3 57.9253 356.225 57.496L356.029 56.334L357.009 56.18L357.177 57.342C357.243 57.7993 357.289 58.1727 357.317 58.462C357.345 58.7513 357.359 58.9893 357.359 59.176C357.359 59.96 357.126 60.5433 356.659 60.926C356.202 61.3087 355.535 61.5 354.657 61.5H354.167V60.576ZM357.149 54.5C356.963 54.5 356.813 54.4487 356.701 54.346C356.589 54.234 356.533 54.0567 356.533 53.814C356.533 53.5713 356.589 53.3987 356.701 53.296C356.813 53.184 356.963 53.128 357.149 53.128H357.303C357.49 53.128 357.639 53.184 357.751 53.296C357.863 53.3987 357.919 53.5713 357.919 53.814C357.919 54.0567 357.863 54.234 357.751 54.346C357.639 54.4487 357.49 54.5 357.303 54.5H357.149ZM355.343 54.5C355.157 54.5 355.007 54.4487 354.895 54.346C354.783 54.234 354.727 54.0567 354.727 53.814C354.727 53.5713 354.783 53.3987 354.895 53.296C355.007 53.184 355.157 53.128 355.343 53.128H355.497C355.684 53.128 355.833 53.184 355.945 53.296C356.057 53.3987 356.113 53.5713 356.113 53.814C356.113 54.0567 356.057 54.234 355.945 54.346C355.833 54.4487 355.684 54.5 355.497 54.5H355.343ZM357.148 63.656H357.666C358.18 63.656 358.6 63.5813 358.926 63.432C359.253 63.2827 359.51 63.082 359.696 62.83C359.883 62.5873 360.014 62.298 360.088 61.962C360.163 61.6353 360.2 61.29 360.2 60.926C360.2 60.6553 360.186 60.3753 360.158 60.086C360.13 59.7873 360.093 59.5027 360.046 59.232L359.752 57.65L360.732 57.454L360.914 58.518C360.97 58.8447 361.012 59.1527 361.04 59.442C361.078 59.7313 361.106 60.016 361.124 60.296H362.454V61.22L362.174 61.5H361.11C361.073 61.9573 360.984 62.3867 360.844 62.788C360.714 63.1987 360.513 63.558 360.242 63.866C359.981 64.174 359.636 64.4167 359.206 64.594C358.786 64.7713 358.273 64.86 357.666 64.86H357.148V63.656ZM362.179 60.576L362.459 60.296H362.669C363.285 60.296 363.728 60.2213 363.999 60.072C364.279 59.9133 364.419 59.6147 364.419 59.176C364.419 59.008 364.405 58.7933 364.377 58.532C364.358 58.2707 364.312 57.9253 364.237 57.496L364.041 56.334L365.021 56.18L365.189 57.342C365.254 57.7993 365.301 58.1727 365.329 58.462C365.357 58.7513 365.371 58.9893 365.371 59.176C365.371 59.96 365.138 60.5433 364.671 60.926C364.214 61.3087 363.546 61.5 362.669 61.5H362.179V60.576ZM365.161 54.5C364.974 54.5 364.825 54.4487 364.713 54.346C364.601 54.234 364.545 54.0567 364.545 53.814C364.545 53.5713 364.601 53.3987 364.713 53.296C364.825 53.184 364.974 53.128 365.161 53.128H365.315C365.502 53.128 365.651 53.184 365.763 53.296C365.875 53.3987 365.931 53.5713 365.931 53.814C365.931 54.0567 365.875 54.234 365.763 54.346C365.651 54.4487 365.502 54.5 365.315 54.5H365.161ZM363.355 54.5C363.168 54.5 363.019 54.4487 362.907 54.346C362.795 54.234 362.739 54.0567 362.739 53.814C362.739 53.5713 362.795 53.3987 362.907 53.296C363.019 53.184 363.168 53.128 363.355 53.128H363.509C363.696 53.128 363.845 53.184 363.957 53.296C364.069 53.3987 364.125 53.5713 364.125 53.814C364.125 54.0567 364.069 54.234 363.957 54.346C363.845 54.4487 363.696 54.5 363.509 54.5H363.355Z" fill="#A5A5A5"/>
<path d="M376.007 63.6665C375.88 63.6665 375.753 63.6198 375.653 63.5198L372.313 60.1798C372.12 59.9865 372.12 59.6665 372.313 59.4731C372.507 59.2798 372.827 59.2798 373.02 59.4731L376.36 62.8131C376.553 63.0065 376.553 63.3265 376.36 63.5198C376.26 63.6131 376.133 63.6665 376.007 63.6665Z" fill="#616161"/>
<path d="M376.007 63.6668C375.733 63.6668 375.507 63.4402 375.507 63.1668V51.8335C375.507 51.5602 375.733 51.3335 376.007 51.3335C376.28 51.3335 376.507 51.5602 376.507 51.8335V63.1668C376.507 63.4402 376.28 63.6668 376.007 63.6668Z" fill="#616161"/>
<path d="M383.34 55.6733C383.213 55.6733 383.087 55.6266 382.987 55.5266L379.647 52.1866C379.453 51.9933 379.453 51.6733 379.647 51.48C379.84 51.2866 380.16 51.2866 380.353 51.48L383.693 54.82C383.887 55.0133 383.887 55.3333 383.693 55.5266C383.593 55.6266 383.467 55.6733 383.34 55.6733Z" fill="#616161"/>
<path d="M379.993 63.6668C379.72 63.6668 379.493 63.4402 379.493 63.1668V51.8335C379.493 51.5602 379.72 51.3335 379.993 51.3335C380.267 51.3335 380.493 51.5602 380.493 51.8335V63.1668C380.493 63.4402 380.273 63.6668 379.993 63.6668Z" fill="#616161"/>
<rect x="958" y="44.5" width="78" height="25" rx="8" fill="#ECEEF8"/>
<path d="M967.413 63.754C966.106 63.754 965.098 63.432 964.389 62.788C963.689 62.1533 963.339 61.262 963.339 60.114C963.339 59.6847 963.395 59.2227 963.507 58.728C963.628 58.224 963.791 57.7293 963.997 57.244L965.061 57.566C964.883 57.9487 964.739 58.3407 964.627 58.742C964.515 59.1433 964.459 59.5073 964.459 59.834C964.459 60.534 964.678 61.08 965.117 61.472C965.555 61.864 966.162 62.06 966.937 62.06H967.903C968.808 62.06 969.471 61.8733 969.891 61.5C970.32 61.1173 970.535 60.5153 970.535 59.694C970.535 59.4327 970.511 59.134 970.465 58.798C970.418 58.4527 970.348 58.056 970.255 57.608L969.989 56.376L971.207 56.138L971.431 57.356C971.524 57.8507 971.594 58.2893 971.641 58.672C971.687 59.0547 971.711 59.3953 971.711 59.694C971.711 61.0847 971.365 62.1067 970.675 62.76C969.984 63.4227 968.897 63.754 967.413 63.754ZM967.469 56.138C967.254 56.138 967.081 56.0727 966.951 55.942C966.829 55.8113 966.769 55.6107 966.769 55.34C966.769 55.06 966.829 54.8593 966.951 54.738C967.081 54.6073 967.254 54.542 967.469 54.542H967.679C967.893 54.542 968.066 54.6073 968.197 54.738C968.327 54.8593 968.393 55.06 968.393 55.34C968.393 55.6107 968.327 55.8113 968.197 55.942C968.066 56.0727 967.893 56.138 967.679 56.138H967.469ZM972.353 60.38L974.677 59.806L973.515 53.282L974.789 53.058L975.923 59.47C976.259 59.358 976.539 59.232 976.763 59.092C976.987 58.952 977.164 58.784 977.295 58.588C977.426 58.392 977.514 58.1587 977.561 57.888C977.617 57.608 977.645 57.2767 977.645 56.894V51.14H978.947V58.812C978.947 59.5493 979.316 59.918 980.053 59.918H980.571V61.164L980.235 61.5C979.395 61.5 978.779 61.304 978.387 60.912C978.004 60.5107 977.813 59.8853 977.813 59.036V58.658H977.743C977.612 59.4047 977.393 59.9693 977.085 60.352C976.786 60.7347 976.352 61.0007 975.783 61.15L972.745 61.92L972.353 60.38ZM980.23 60.254L980.566 59.918H982.05V59.848C981.78 59.6053 981.556 59.2973 981.378 58.924C981.21 58.5507 981.126 58.1447 981.126 57.706C981.126 57.2767 981.201 56.8753 981.35 56.502C981.5 56.1287 981.7 55.8113 981.952 55.55C982.214 55.2793 982.517 55.0693 982.862 54.92C983.217 54.7613 983.6 54.682 984.01 54.682C984.626 54.682 985.149 54.8127 985.578 55.074C986.017 55.326 986.376 55.6807 986.656 56.138L985.62 57.174C985.396 56.8567 985.144 56.628 984.864 56.488C984.594 56.3387 984.276 56.264 983.912 56.264C983.39 56.264 982.984 56.3947 982.694 56.656C982.414 56.908 982.274 57.258 982.274 57.706C982.274 58.21 982.48 58.6207 982.89 58.938C983.31 59.246 983.856 59.4 984.528 59.4C984.986 59.4 985.448 59.3347 985.914 59.204L987.146 58.882L987.524 60.324L985.592 60.87C985.163 61.0007 984.757 61.108 984.374 61.192C984.001 61.2667 983.609 61.3273 983.198 61.374C982.797 61.4207 982.358 61.4533 981.882 61.472C981.406 61.4907 980.856 61.5 980.23 61.5V60.254ZM988.779 51.14H990.081V61.5H988.779V51.14ZM987.967 64.202H988.513L988.527 64.132C988.349 63.936 988.261 63.6933 988.261 63.404C988.261 63.0307 988.391 62.718 988.653 62.466C988.914 62.2233 989.245 62.102 989.647 62.102C989.889 62.102 990.127 62.1533 990.361 62.256C990.594 62.368 990.785 62.5173 990.935 62.704L990.347 63.46C990.132 63.2453 989.899 63.138 989.647 63.138C989.479 63.138 989.343 63.1753 989.241 63.25C989.138 63.334 989.087 63.4367 989.087 63.558C989.087 63.9313 989.413 64.118 990.067 64.118H991.033V65.168H987.967V64.202ZM998.589 61.668C998.048 61.668 997.563 61.5793 997.133 61.402C996.713 61.2247 996.354 60.9727 996.055 60.646C995.766 60.31 995.542 59.9087 995.383 59.442C995.225 58.9753 995.145 58.448 995.145 57.86C995.145 57.1507 995.253 56.4833 995.467 55.858C995.682 55.2327 995.957 54.6587 996.293 54.136C996.629 53.6133 997.003 53.1513 997.413 52.75C997.833 52.3393 998.244 51.9987 998.645 51.728H1000.75C1000.19 52.1293 999.7 52.5167 999.261 52.89C998.823 53.2633 998.44 53.646 998.113 54.038C997.787 54.43 997.511 54.8453 997.287 55.284C997.073 55.7227 996.905 56.2033 996.783 56.726L996.881 56.754C996.984 56.558 997.101 56.376 997.231 56.208C997.371 56.0307 997.53 55.8767 997.707 55.746C997.894 55.6153 998.104 55.5127 998.337 55.438C998.571 55.3633 998.841 55.326 999.149 55.326C999.56 55.326 999.938 55.396 1000.28 55.536C1000.64 55.676 1000.94 55.8813 1001.19 56.152C1001.45 56.4133 1001.66 56.7307 1001.8 57.104C1001.94 57.4773 1002.02 57.8927 1002.02 58.35C1002.02 58.8447 1001.94 59.2973 1001.77 59.708C1001.61 60.1093 1001.38 60.4547 1001.08 60.744C1000.78 61.0333 1000.42 61.262 999.989 61.43C999.569 61.5887 999.103 61.668 998.589 61.668ZM998.589 60.38C999.159 60.38 999.602 60.2307 999.919 59.932C1000.24 59.624 1000.4 59.176 1000.4 58.588V58.392C1000.4 57.804 1000.24 57.3607 999.919 57.062C999.602 56.754 999.159 56.6 998.589 56.6C998.02 56.6 997.577 56.754 997.259 57.062C996.942 57.3607 996.783 57.804 996.783 58.392V58.588C996.783 59.176 996.942 59.624 997.259 59.932C997.577 60.2307 998.02 60.38 998.589 60.38ZM1004.79 59.554C1005.13 59.554 1005.39 59.6427 1005.56 59.82C1005.72 59.9973 1005.81 60.226 1005.81 60.506V60.73C1005.81 61.1873 1005.68 61.6633 1005.43 62.158C1005.19 62.662 1004.86 63.0867 1004.44 63.432H1003.3C1003.6 63.1333 1003.85 62.844 1004.04 62.564C1004.24 62.284 1004.39 61.9713 1004.49 61.626C1004.25 61.5793 1004.07 61.4767 1003.95 61.318C1003.82 61.15 1003.76 60.954 1003.76 60.73V60.506C1003.76 60.226 1003.85 59.9973 1004.02 59.82C1004.18 59.6427 1004.44 59.554 1004.79 59.554ZM1011.02 61.668C1010.45 61.668 1009.94 61.598 1009.5 61.458C1009.08 61.3087 1008.71 61.108 1008.41 60.856C1008.12 60.604 1007.9 60.3053 1007.74 59.96C1007.59 59.6147 1007.52 59.2413 1007.52 58.84C1007.52 58.1867 1007.69 57.664 1008.05 57.272C1008.41 56.8707 1008.89 56.5907 1009.48 56.432V56.32C1008.97 56.1427 1008.57 55.8627 1008.26 55.48C1007.96 55.0973 1007.81 54.626 1007.81 54.066C1007.81 53.6927 1007.88 53.352 1008.02 53.044C1008.17 52.736 1008.38 52.4747 1008.65 52.26C1008.92 52.036 1009.26 51.8633 1009.66 51.742C1010.06 51.6207 1010.51 51.56 1011.02 51.56C1011.52 51.56 1011.97 51.6207 1012.37 51.742C1012.78 51.8633 1013.11 52.036 1013.38 52.26C1013.65 52.4747 1013.86 52.736 1014 53.044C1014.15 53.352 1014.22 53.6927 1014.22 54.066C1014.22 54.626 1014.07 55.0973 1013.76 55.48C1013.46 55.8627 1013.06 56.1427 1012.56 56.32V56.432C1013.14 56.5907 1013.62 56.8707 1013.97 57.272C1014.33 57.664 1014.52 58.1867 1014.52 58.84C1014.52 59.2413 1014.44 59.6147 1014.28 59.96C1014.13 60.3053 1013.91 60.604 1013.61 60.856C1013.32 61.108 1012.95 61.3087 1012.51 61.458C1012.09 61.598 1011.59 61.668 1011.02 61.668ZM1011.02 60.394C1011.6 60.394 1012.06 60.2587 1012.37 59.988C1012.7 59.7173 1012.86 59.3393 1012.86 58.854V58.574C1012.86 58.0887 1012.7 57.7107 1012.37 57.44C1012.06 57.1693 1011.6 57.034 1011.02 57.034C1010.43 57.034 1009.97 57.1693 1009.64 57.44C1009.33 57.7107 1009.17 58.0887 1009.17 58.574V58.854C1009.17 59.3393 1009.33 59.7173 1009.64 59.988C1009.97 60.2587 1010.43 60.394 1011.02 60.394ZM1011.02 55.816C1011.56 55.816 1011.97 55.6993 1012.25 55.466C1012.54 55.2327 1012.68 54.892 1012.68 54.444V54.206C1012.68 53.758 1012.54 53.4173 1012.25 53.184C1011.97 52.9507 1011.56 52.834 1011.02 52.834C1010.48 52.834 1010.06 52.9507 1009.77 53.184C1009.49 53.4173 1009.35 53.758 1009.35 54.206V54.444C1009.35 54.892 1009.49 55.2327 1009.77 55.466C1010.06 55.6993 1010.48 55.816 1011.02 55.816ZM1022.32 53.1H1017.98L1017.73 56.558H1017.83C1017.94 56.362 1018.06 56.1893 1018.18 56.04C1018.3 55.8813 1018.44 55.746 1018.6 55.634C1018.76 55.522 1018.94 55.438 1019.14 55.382C1019.35 55.3167 1019.59 55.284 1019.87 55.284C1020.29 55.284 1020.68 55.354 1021.03 55.494C1021.4 55.634 1021.71 55.8347 1021.97 56.096C1022.24 56.3573 1022.45 56.6793 1022.6 57.062C1022.75 57.4353 1022.83 57.86 1022.83 58.336C1022.83 58.8213 1022.75 59.2693 1022.59 59.68C1022.44 60.0907 1022.22 60.4453 1021.92 60.744C1021.62 61.0333 1021.25 61.262 1020.81 61.43C1020.38 61.5887 1019.89 61.668 1019.34 61.668C1018.9 61.668 1018.51 61.6167 1018.18 61.514C1017.84 61.4207 1017.54 61.2947 1017.28 61.136C1017.03 60.968 1016.81 60.7813 1016.61 60.576C1016.42 60.3613 1016.26 60.142 1016.11 59.918L1017.25 59.008C1017.38 59.204 1017.5 59.3813 1017.63 59.54C1017.76 59.6987 1017.91 59.8387 1018.08 59.96C1018.25 60.0813 1018.44 60.1747 1018.64 60.24C1018.86 60.3053 1019.1 60.338 1019.37 60.338C1019.95 60.338 1020.39 60.1793 1020.7 59.862C1021.02 59.5447 1021.17 59.106 1021.17 58.546V58.378C1021.17 57.818 1021.02 57.3793 1020.7 57.062C1020.39 56.7447 1019.95 56.586 1019.37 56.586C1018.95 56.586 1018.61 56.6653 1018.36 56.824C1018.11 56.9827 1017.89 57.16 1017.72 57.356L1016.41 57.174L1016.78 51.728H1022.32V53.1ZM1027.81 61.668C1027.2 61.668 1026.67 61.556 1026.22 61.332C1025.78 61.0987 1025.41 60.7673 1025.12 60.338C1024.83 59.9087 1024.61 59.3813 1024.47 58.756C1024.33 58.1307 1024.26 57.4167 1024.26 56.614C1024.26 55.8207 1024.33 55.1113 1024.47 54.486C1024.61 53.8513 1024.83 53.3193 1025.12 52.89C1025.41 52.4607 1025.78 52.134 1026.22 51.91C1026.67 51.6767 1027.2 51.56 1027.81 51.56C1029.02 51.56 1029.91 52.0033 1030.48 52.89C1031.06 53.7767 1031.35 55.018 1031.35 56.614C1031.35 58.21 1031.06 59.4513 1030.48 60.338C1029.91 61.2247 1029.02 61.668 1027.81 61.668ZM1027.81 60.324C1028.14 60.324 1028.43 60.2587 1028.66 60.128C1028.9 59.988 1029.1 59.792 1029.25 59.54C1029.4 59.288 1029.5 58.9893 1029.57 58.644C1029.63 58.2893 1029.67 57.8973 1029.67 57.468V55.76C1029.67 55.3307 1029.63 54.9433 1029.57 54.598C1029.5 54.2433 1029.4 53.94 1029.25 53.688C1029.1 53.436 1028.9 53.2447 1028.66 53.114C1028.43 52.974 1028.14 52.904 1027.81 52.904C1027.47 52.904 1027.18 52.974 1026.94 53.114C1026.7 53.2447 1026.51 53.436 1026.36 53.688C1026.21 53.94 1026.11 54.2433 1026.04 54.598C1025.98 54.9433 1025.94 55.3307 1025.94 55.76V57.468C1025.94 57.8973 1025.98 58.2893 1026.04 58.644C1026.11 58.9893 1026.21 59.288 1026.36 59.54C1026.51 59.792 1026.7 59.988 1026.94 60.128C1027.18 60.2587 1027.47 60.324 1027.81 60.324Z" fill="#333333"/>
<path d="M1054.46 65.788C1052.72 65.788 1051.25 65.692 1050.05 65.5C1048.86 65.308 1047.9 64.996 1047.17 64.564C1046.43 64.116 1045.89 63.54 1045.56 62.836C1045.24 62.132 1045.08 61.26 1045.08 60.22C1045.08 59.58 1045.16 58.876 1045.32 58.108C1045.49 57.34 1045.73 56.58 1046.04 55.828L1048.34 56.5C1048.07 57.044 1047.85 57.572 1047.69 58.084C1047.55 58.58 1047.48 59.028 1047.48 59.428C1047.48 59.892 1047.57 60.284 1047.77 60.604C1047.96 60.908 1048.27 61.156 1048.7 61.348C1049.13 61.54 1049.7 61.684 1050.41 61.78C1051.11 61.86 1051.98 61.9 1053.02 61.9H1056.38C1057.44 61.9 1058.33 61.876 1059.05 61.828C1059.77 61.78 1060.34 61.7 1060.77 61.588C1061.22 61.46 1061.54 61.308 1061.73 61.132C1061.94 60.94 1062.05 60.708 1062.05 60.436C1062.05 60.196 1062.02 59.892 1061.97 59.524C1061.94 59.14 1061.87 58.644 1061.76 58.036L1061.35 55.804L1063.97 55.372L1064.33 57.604C1064.41 58.036 1064.47 58.516 1064.52 59.044C1064.57 59.572 1064.59 60.036 1064.59 60.436C1064.59 61.508 1064.44 62.388 1064.13 63.076C1063.85 63.764 1063.32 64.308 1062.55 64.708C1061.8 65.108 1060.77 65.388 1059.45 65.548C1058.16 65.708 1056.49 65.788 1054.46 65.788ZM1056.33 56.788C1055.92 56.788 1055.57 56.66 1055.3 56.404C1055.05 56.148 1054.92 55.74 1054.92 55.18C1054.92 54.62 1055.05 54.212 1055.3 53.956C1055.57 53.7 1055.92 53.572 1056.33 53.572H1056.81C1057.23 53.572 1057.57 53.7 1057.82 53.956C1058.09 54.212 1058.23 54.62 1058.23 55.18C1058.23 55.74 1058.09 56.148 1057.82 56.404C1057.57 56.66 1057.23 56.788 1056.81 56.788H1056.33ZM1052.54 56.788C1052.13 56.788 1051.78 56.66 1051.51 56.404C1051.25 56.148 1051.13 55.74 1051.13 55.18C1051.13 54.62 1051.25 54.212 1051.51 53.956C1051.78 53.7 1052.13 53.572 1052.54 53.572H1053.02C1053.44 53.572 1053.77 53.7 1054.03 53.956C1054.3 54.212 1054.44 54.62 1054.44 55.18C1054.44 55.74 1054.3 56.148 1054.03 56.404C1053.77 56.66 1053.44 56.788 1053.02 56.788H1052.54ZM1071.52 65.5C1069.9 65.5 1068.7 65.116 1067.92 64.348C1067.14 63.58 1066.74 62.332 1066.74 60.604V47.74H1069.62V60.124C1069.62 60.844 1069.77 61.324 1070.06 61.564C1070.34 61.788 1070.84 61.9 1071.54 61.9H1072.26V64.78L1071.54 65.5H1071.52ZM1071.55 62.62L1072.27 61.9H1072.99C1074.27 61.9 1074.91 61.34 1074.91 60.22V56.788H1077.55V60.22C1077.55 61.34 1078.11 61.9 1079.23 61.9H1080.19V64.78L1079.47 65.5C1078.19 65.5 1077.21 65.244 1076.54 64.732C1075.88 64.204 1075.44 63.38 1075.22 62.26H1075.07C1074.85 63.38 1074.47 64.204 1073.92 64.732C1073.38 65.244 1072.59 65.5 1071.55 65.5V62.62ZM1075.99 70.66C1075.57 70.66 1075.23 70.532 1074.95 70.276C1074.7 70.02 1074.57 69.612 1074.57 69.052C1074.57 68.492 1074.7 68.084 1074.95 67.828C1075.23 67.572 1075.57 67.444 1075.99 67.444H1076.47C1076.88 67.444 1077.22 67.572 1077.47 67.828C1077.75 68.084 1077.88 68.492 1077.88 69.052C1077.88 69.612 1077.75 70.02 1077.47 70.276C1077.22 70.532 1076.88 70.66 1076.47 70.66H1075.99ZM1079.47 62.62L1080.19 61.9H1084.32C1084.86 61.9 1085.24 61.844 1085.44 61.732C1085.65 61.604 1085.76 61.38 1085.76 61.06C1085.76 60.772 1085.66 60.524 1085.47 60.316C1085.28 60.108 1084.88 59.844 1084.29 59.524L1080.43 57.436V51.1L1091.95 47.452V50.62L1081.63 53.86V54.004L1084.29 55.492C1085.01 55.892 1085.62 56.284 1086.12 56.668C1086.61 57.036 1087 57.42 1087.29 57.82C1087.6 58.22 1087.81 58.644 1087.94 59.092C1088.08 59.524 1088.16 60.012 1088.16 60.556C1088.16 62.252 1087.78 63.5 1087.03 64.3C1086.29 65.1 1085.07 65.5 1083.36 65.5H1079.47V62.62ZM1087.86 67.66H1088.82C1090.28 67.66 1091.34 67.364 1092.02 66.772C1092.7 66.18 1093.04 65.196 1093.02 63.82C1093.02 63.452 1093 63.068 1092.95 62.668C1092.9 62.252 1092.84 61.812 1092.76 61.348L1092.26 58.156L1094.87 57.748L1095.23 59.98C1095.3 60.332 1095.34 60.668 1095.38 60.988C1095.42 61.308 1095.46 61.612 1095.5 61.9H1097.7V64.78L1096.98 65.5H1095.5C1095.22 67.276 1094.52 68.676 1093.38 69.7C1092.26 70.74 1090.75 71.26 1088.85 71.26H1087.86V67.66ZM1100.5 64.156C1100.14 64.652 1099.67 65.004 1099.11 65.212C1098.57 65.404 1097.86 65.5 1096.98 65.5V62.62L1097.7 61.9C1098.29 61.9 1098.72 61.812 1098.99 61.636C1099.26 61.46 1099.49 61.148 1099.66 60.7L1100.34 59.044C1100.54 58.532 1100.78 58.052 1101.03 57.604C1101.29 57.156 1101.59 56.764 1101.94 56.428C1102.3 56.092 1102.69 55.828 1103.12 55.636C1103.57 55.444 1104.08 55.348 1104.66 55.348C1106.16 55.348 1107.29 55.94 1108.04 57.124C1108.81 58.308 1109.19 59.948 1109.19 62.044V62.74L1106.91 66.124L1100.5 64.156ZM1101.82 60.82L1106.65 62.284V62.044C1106.65 61.084 1106.42 60.332 1105.95 59.788C1105.49 59.244 1104.86 58.972 1104.06 58.972C1103.54 58.972 1103.1 59.108 1102.71 59.38C1102.34 59.652 1102.06 60.084 1101.87 60.676L1101.82 60.82ZM1116.42 67.66H1117.95C1120.05 67.66 1121.58 67.292 1122.56 66.556C1123.54 65.836 1124.02 64.9 1124.02 63.748V63.124H1123.88C1123.64 63.94 1123.25 64.54 1122.7 64.924C1122.18 65.308 1121.5 65.5 1120.69 65.5C1119.39 65.5 1118.38 65.124 1117.64 64.372C1116.92 63.604 1116.56 62.54 1116.56 61.18C1116.56 60.348 1116.68 59.58 1116.92 58.876C1117.18 58.156 1117.52 57.54 1117.95 57.028C1118.4 56.5 1118.92 56.092 1119.51 55.804C1120.12 55.5 1120.78 55.348 1121.48 55.348C1122.26 55.348 1122.96 55.516 1123.57 55.852C1124.19 56.172 1124.71 56.644 1125.13 57.268C1125.56 57.876 1125.89 58.628 1126.11 59.524C1126.34 60.42 1126.45 61.428 1126.45 62.548C1126.45 65.284 1125.74 67.42 1124.34 68.956C1122.94 70.492 1120.9 71.26 1118.19 71.26H1116.42V67.66ZM1121.43 61.9C1122.06 61.9 1122.58 61.876 1122.99 61.828C1123.41 61.764 1123.74 61.668 1124 61.54C1123.94 60.756 1123.64 60.132 1123.11 59.668C1122.58 59.188 1121.94 58.948 1121.17 58.948C1120.54 58.948 1120.02 59.116 1119.58 59.452C1119.17 59.772 1118.96 60.188 1118.96 60.7C1118.96 61.132 1119.14 61.444 1119.49 61.636C1119.84 61.812 1120.32 61.9 1120.93 61.9H1121.43ZM1143.31 65.788C1141.57 65.788 1140.1 65.692 1138.9 65.5C1137.71 65.308 1136.75 64.996 1136.02 64.564C1135.28 64.116 1134.74 63.54 1134.41 62.836C1134.09 62.132 1133.93 61.26 1133.93 60.22C1133.93 59.58 1134.01 58.876 1134.17 58.108C1134.34 57.34 1134.58 56.58 1134.89 55.828L1137.19 56.5C1136.92 57.044 1136.7 57.572 1136.54 58.084C1136.4 58.58 1136.33 59.028 1136.33 59.428C1136.33 59.892 1136.42 60.284 1136.62 60.604C1136.81 60.908 1137.12 61.156 1137.55 61.348C1137.98 61.54 1138.55 61.684 1139.26 61.78C1139.96 61.86 1140.83 61.9 1141.87 61.9H1145.23C1146.29 61.9 1147.18 61.876 1147.9 61.828C1148.62 61.78 1149.19 61.7 1149.62 61.588C1150.07 61.46 1150.39 61.308 1150.58 61.132C1150.79 60.94 1150.9 60.708 1150.9 60.436C1150.9 60.196 1150.87 59.892 1150.82 59.524C1150.79 59.14 1150.72 58.644 1150.61 58.036L1150.2 55.804L1152.82 55.372L1153.18 57.604C1153.26 58.036 1153.32 58.516 1153.37 59.044C1153.42 59.572 1153.44 60.036 1153.44 60.436C1153.44 61.508 1153.29 62.388 1152.98 63.076C1152.7 63.764 1152.17 64.308 1151.4 64.708C1150.65 65.108 1149.62 65.388 1148.3 65.548C1147.01 65.708 1145.34 65.788 1143.31 65.788ZM1145.18 56.788C1144.77 56.788 1144.42 56.66 1144.15 56.404C1143.9 56.148 1143.77 55.74 1143.77 55.18C1143.77 54.62 1143.9 54.212 1144.15 53.956C1144.42 53.7 1144.77 53.572 1145.18 53.572H1145.66C1146.08 53.572 1146.42 53.7 1146.67 53.956C1146.94 54.212 1147.08 54.62 1147.08 55.18C1147.08 55.74 1146.94 56.148 1146.67 56.404C1146.42 56.66 1146.08 56.788 1145.66 56.788H1145.18ZM1141.39 56.788C1140.98 56.788 1140.63 56.66 1140.36 56.404C1140.1 56.148 1139.98 55.74 1139.98 55.18C1139.98 54.62 1140.1 54.212 1140.36 53.956C1140.63 53.7 1140.98 53.572 1141.39 53.572H1141.87C1142.29 53.572 1142.62 53.7 1142.88 53.956C1143.15 54.212 1143.29 54.62 1143.29 55.18C1143.29 55.74 1143.15 56.148 1142.88 56.404C1142.62 56.66 1142.29 56.788 1141.87 56.788H1141.39ZM1155.6 47.74H1158.48V65.5H1155.6V47.74ZM1158.48 67.66H1159.44C1160.9 67.66 1161.96 67.364 1162.63 66.772C1163.32 66.18 1163.66 65.196 1163.64 63.82C1163.64 63.452 1163.62 63.068 1163.57 62.668C1163.52 62.252 1163.46 61.812 1163.38 61.348L1162.87 58.156L1165.49 57.748L1165.85 59.98C1165.98 60.748 1166.07 61.46 1166.14 62.116C1166.22 62.756 1166.26 63.284 1166.26 63.7C1166.26 64.852 1166.11 65.892 1165.83 66.82C1165.54 67.748 1165.11 68.54 1164.53 69.196C1163.95 69.868 1163.24 70.38 1162.39 70.732C1161.55 71.084 1160.57 71.26 1159.47 71.26H1158.48V67.66ZM1173.31 65.5C1171.69 65.5 1170.49 65.116 1169.71 64.348C1168.93 63.58 1168.53 62.332 1168.53 60.604V47.74H1171.41V60.124C1171.41 60.844 1171.56 61.324 1171.85 61.564C1172.13 61.788 1172.63 61.9 1173.33 61.9H1174.05V64.78L1173.33 65.5H1173.31ZM1173.33 62.62L1174.05 61.9H1174.77C1176.05 61.9 1176.69 61.34 1176.69 60.22V56.788H1179.33V60.22C1179.33 61.34 1179.89 61.9 1181.01 61.9H1181.97V64.78L1181.25 65.5C1179.97 65.5 1179 65.244 1178.33 64.732C1177.67 64.204 1177.23 63.38 1177.01 62.26H1176.86C1176.64 63.38 1176.25 64.204 1175.71 64.732C1175.17 65.244 1174.37 65.5 1173.33 65.5V62.62ZM1179.67 70.66C1179.25 70.66 1178.91 70.532 1178.64 70.276C1178.38 70.02 1178.25 69.612 1178.25 69.052C1178.25 68.492 1178.38 68.084 1178.64 67.828C1178.91 67.572 1179.25 67.444 1179.67 67.444H1180.15C1180.57 67.444 1180.9 67.572 1181.16 67.828C1181.43 68.084 1181.57 68.492 1181.57 69.052C1181.57 69.612 1181.43 70.02 1181.16 70.276C1180.9 70.532 1180.57 70.66 1180.15 70.66H1179.67ZM1175.88 70.66C1175.46 70.66 1175.12 70.532 1174.85 70.276C1174.59 70.02 1174.46 69.612 1174.46 69.052C1174.46 68.492 1174.59 68.084 1174.85 67.828C1175.12 67.572 1175.46 67.444 1175.88 67.444H1176.36C1176.77 67.444 1177.11 67.572 1177.37 67.828C1177.64 68.084 1177.77 68.492 1177.77 69.052C1177.77 69.612 1177.64 70.02 1177.37 70.276C1177.11 70.532 1176.77 70.66 1176.36 70.66H1175.88ZM1181.26 62.62L1181.98 61.9H1182C1182.77 61.9 1183.34 61.812 1183.7 61.636C1184.09 61.444 1184.39 61.116 1184.62 60.652L1185.55 58.708L1187.93 59.86L1187.09 61.612C1187.47 61.788 1187.86 61.94 1188.26 62.068C1188.66 62.18 1189.07 62.236 1189.49 62.236C1190.18 62.236 1190.67 62.092 1190.98 61.804C1191.28 61.5 1191.43 60.972 1191.43 60.22V58.708H1194.07V60.22C1194.07 60.892 1194.18 61.38 1194.41 61.684C1194.65 61.988 1194.97 62.14 1195.37 62.14H1195.61C1195.94 62.14 1196.22 62.02 1196.42 61.78C1196.63 61.524 1196.74 61.124 1196.74 60.58C1196.74 60.356 1196.71 60.076 1196.66 59.74C1196.62 59.388 1196.55 58.964 1196.47 58.468L1196.26 57.244L1198.87 56.812L1199.06 58.036C1199.14 58.5 1199.2 58.94 1199.23 59.356C1199.26 59.756 1199.28 60.164 1199.28 60.58C1199.28 62.372 1198.97 63.692 1198.34 64.54C1197.74 65.372 1196.78 65.788 1195.49 65.788C1194.35 65.788 1193.5 65.516 1192.92 64.972C1192.34 64.428 1191.95 63.588 1191.74 62.452H1191.6C1191.47 63.604 1191.18 64.452 1190.74 64.996C1190.3 65.524 1189.73 65.788 1189.01 65.788C1188.54 65.788 1188.08 65.7 1187.62 65.524C1187.17 65.364 1186.58 65.068 1185.84 64.636L1185.34 64.348C1184.84 64.828 1184.27 65.14 1183.63 65.284C1183.01 65.428 1182.22 65.5 1181.26 65.5V62.62Z" fill="#333333"/>
</svg>
