<svg width="894" height="48" viewBox="0 0 894 48" fill="none" xmlns="http://www.w3.org/2000/svg">
<rect width="106" height="48" rx="4" fill="#3F51B5"/>
<path d="M30.784 29.192C29.6427 29.192 28.6827 29.128 27.904 29C27.1253 28.8827 26.496 28.6907 26.016 28.424C25.536 28.1467 25.1893 27.7893 24.976 27.352C24.7733 26.904 24.672 26.36 24.672 25.72C24.672 24.8667 24.8907 23.912 25.328 22.856L26.56 23.224C26.3573 23.6507 26.2027 24.0453 26.096 24.408C25.9893 24.76 25.936 25.0907 25.936 25.4C25.936 26.0613 26.2293 26.536 26.816 26.824C27.4133 27.112 28.384 27.256 29.728 27.256H31.968C32.736 27.256 33.3653 27.24 33.856 27.208C34.3467 27.1653 34.7307 27.096 35.008 27C35.296 26.8933 35.4933 26.7547 35.6 26.584C35.7173 26.4133 35.776 26.1947 35.776 25.928V23.496H37.168V25.928C37.168 26.7707 37.6107 27.192 38.496 27.192H39.024V28.616L38.64 29C37.1147 29 36.2133 28.3813 35.936 27.144H35.856C35.7813 27.5387 35.6427 27.8693 35.44 28.136C35.248 28.392 34.9547 28.6 34.56 28.76C34.176 28.92 33.6747 29.032 33.056 29.096C32.448 29.16 31.6907 29.192 30.784 29.192ZM31.856 23.144C31.6107 23.144 31.4133 23.0693 31.264 22.92C31.1147 22.7707 31.04 22.5413 31.04 22.232C31.04 21.912 31.1147 21.6827 31.264 21.544C31.4133 21.3947 31.6107 21.32 31.856 21.32H32.08C32.3253 21.32 32.5227 21.3947 32.672 21.544C32.8213 21.6827 32.896 21.912 32.896 22.232C32.896 22.5413 32.8213 22.7707 32.672 22.92C32.5227 23.0693 32.3253 23.144 32.08 23.144H31.856ZM29.584 23.144C29.3387 23.144 29.1413 23.0693 28.992 22.92C28.8533 22.7707 28.784 22.5413 28.784 22.232C28.784 21.912 28.8533 21.6827 28.992 21.544C29.1413 21.3947 29.3387 21.32 29.584 21.32H29.824C30.0693 21.32 30.2667 21.3947 30.416 21.544C30.5653 21.6827 30.64 21.912 30.64 22.232C30.64 22.5413 30.5653 22.7707 30.416 22.92C30.2667 23.0693 30.0693 23.144 29.824 23.144H29.584ZM30.72 21.032C30.4853 21.032 30.2933 20.9627 30.144 20.824C29.9947 20.6747 29.92 20.4453 29.92 20.136C29.92 19.8267 29.9947 19.6027 30.144 19.464C30.2933 19.3253 30.4853 19.256 30.72 19.256H30.96C31.1947 19.256 31.3813 19.3253 31.52 19.464C31.6693 19.6027 31.744 19.8267 31.744 20.136C31.744 20.4453 31.6693 20.6747 31.52 20.824C31.3813 20.9627 31.1947 21.032 30.96 21.032H30.72ZM38.5513 27.576L38.9353 27.192H39.7193C40.2419 27.192 40.7219 27.1813 41.1593 27.16C41.5966 27.1387 42.0233 27.0907 42.4393 27.016C42.8553 26.9307 43.2819 26.8133 43.7193 26.664C44.1566 26.504 44.6419 26.296 45.1753 26.04L46.2793 25.512V25.432L43.8153 24.904L40.8873 24.184V25.48H39.4633V24.248C39.4633 23.672 39.6019 23.2453 39.8793 22.968C40.1673 22.68 40.5673 22.536 41.0793 22.536C41.2179 22.536 41.3779 22.552 41.5593 22.584C41.7513 22.616 42.0553 22.6853 42.4713 22.792L46.0233 23.704C47.0473 23.9707 47.9273 24.104 48.6633 24.104H48.9513V25.912H47.7833V25.992C47.7833 26.44 47.8846 26.7547 48.0873 26.936C48.2899 27.1067 48.6206 27.192 49.0793 27.192H49.6073V28.616L49.2233 29C48.3379 29 47.6819 28.8187 47.2553 28.456C46.8393 28.0827 46.6046 27.48 46.5513 26.648L45.7353 27.16C45.0526 27.5867 44.4446 27.9227 43.9113 28.168C43.3886 28.4133 42.8979 28.6 42.4393 28.728C41.9806 28.8453 41.5326 28.92 41.0953 28.952C40.6686 28.984 40.2099 29 39.7193 29H38.5513V27.576ZM49.1271 27.576L49.5111 27.192H49.8471C50.5725 27.192 51.0845 27.112 51.3831 26.952C51.6818 26.7813 51.8311 26.4773 51.8311 26.04C51.8311 25.8587 51.8151 25.6293 51.7831 25.352C51.7618 25.0747 51.7138 24.7067 51.6391 24.248L51.3831 22.856L52.7751 22.632L52.9831 24.024C53.1111 24.8773 53.1751 25.5493 53.1751 26.04C53.1751 27.0427 52.9031 27.7893 52.3591 28.28C51.8151 28.76 50.9778 29 49.8471 29H49.1271V27.576ZM51.7031 32.312C51.4578 32.312 51.2605 32.2373 51.1111 32.088C50.9725 31.9387 50.9031 31.7093 50.9031 31.4C50.9031 31.08 50.9725 30.8453 51.1111 30.696C51.2605 30.5573 51.4578 30.488 51.7031 30.488H51.9431C52.1885 30.488 52.3858 30.5573 52.5351 30.696C52.6845 30.8453 52.7591 31.08 52.7591 31.4C52.7591 31.7093 52.6845 31.9387 52.5351 32.088C52.3858 32.2373 52.1885 32.312 51.9431 32.312H51.7031Z" fill="white"/>
<path fill-rule="evenodd" clip-rule="evenodd" d="M71.1667 15.0415C66.6794 15.0415 63.0417 18.6792 63.0417 23.1665C63.0417 27.6538 66.6794 31.2915 71.1667 31.2915C73.1854 31.2915 75.0321 30.5553 76.4531 29.3368L79.8914 32.7751C80.1355 33.0192 80.5312 33.0192 80.7753 32.7751C81.0194 32.531 81.0194 32.1353 80.7753 31.8912L77.337 28.4529C78.5555 27.0319 79.2917 25.1852 79.2917 23.1665C79.2917 18.6792 75.654 15.0415 71.1667 15.0415ZM64.2917 23.1665C64.2917 19.3695 67.3697 16.2915 71.1667 16.2915C74.9636 16.2915 78.0417 19.3695 78.0417 23.1665C78.0417 26.9635 74.9636 30.0415 71.1667 30.0415C67.3697 30.0415 64.2917 26.9635 64.2917 23.1665Z" fill="white"/>
<path d="M126 -1.5H890C891.933 -1.5 893.5 0.067006 893.5 2V44C893.5 45.933 891.933 47.5 890 47.5H126C124.067 47.5 122.5 45.933 122.5 44V2C122.5 0.0670034 124.067 -1.5 126 -1.5Z" fill="white"/>
<path d="M126 -1.5H890C891.933 -1.5 893.5 0.067006 893.5 2V44C893.5 45.933 891.933 47.5 890 47.5H126C124.067 47.5 122.5 45.933 122.5 44V2C122.5 0.0670034 124.067 -1.5 126 -1.5Z" stroke="#EEEEEE"/>
<g clip-path="url(#clip0_23189_21842)">
<path d="M154 29.7938L149.746 25.54C150.755 24.3692 151.366 22.8462 151.366 21.183C151.366 17.498 148.368 14.5 144.683 14.5C140.998 14.5 138 17.498 138 21.183C138 24.868 140.998 27.866 144.683 27.866C146.346 27.866 147.869 27.2552 149.04 26.2462L153.294 30.5L154 29.7938ZM138.999 21.183C138.999 18.0487 141.549 15.4987 144.683 15.4987C147.817 15.4987 150.367 18.0487 150.367 21.183C150.367 24.3173 147.817 26.8673 144.683 26.8673C141.549 26.8673 138.999 24.3173 138.999 21.183Z" fill="#A5A5A5"/>
</g>
<path d="M806.082 27C805.746 27 805.466 26.902 805.242 26.706C805.027 26.5007 804.92 26.202 804.92 25.81V24.732H805.9V25.796H807.79C808.107 25.796 808.369 25.7867 808.574 25.768C808.779 25.7493 808.943 25.7213 809.064 25.684C809.185 25.6373 809.269 25.5767 809.316 25.502C809.363 25.4273 809.386 25.3293 809.386 25.208C809.386 25.096 809.363 24.9607 809.316 24.802C809.269 24.6433 809.185 24.4007 809.064 24.074L807.72 20.378L808.714 20.014L810.142 23.934C810.282 24.3073 810.403 24.6153 810.506 24.858C810.618 25.0913 810.73 25.278 810.842 25.418C810.954 25.558 811.066 25.656 811.178 25.712C811.299 25.768 811.435 25.796 811.584 25.796H811.934V26.72L811.654 27C811.402 27 811.178 26.9767 810.982 26.93C810.795 26.8833 810.627 26.8133 810.478 26.72C810.329 26.6173 810.193 26.4867 810.072 26.328C809.951 26.1693 809.834 25.9733 809.722 25.74H809.652C809.596 26.1973 809.419 26.524 809.12 26.72C808.821 26.9067 808.378 27 807.79 27H806.082ZM811.657 26.076L811.938 25.796H812.148C812.764 25.796 813.207 25.7213 813.478 25.572C813.758 25.4133 813.898 25.1147 813.898 24.676C813.898 24.508 813.884 24.2933 813.856 24.032C813.837 23.7707 813.79 23.4253 813.716 22.996L813.52 21.834L814.5 21.68L814.668 22.842C814.733 23.2993 814.78 23.6727 814.808 23.962C814.836 24.2513 814.85 24.4893 814.85 24.676C814.85 25.46 814.616 26.0433 814.15 26.426C813.692 26.8087 813.025 27 812.148 27H811.657V26.076ZM814.696 29.8C814.509 29.8 814.36 29.744 814.248 29.632C814.136 29.5293 814.08 29.3567 814.08 29.114C814.08 28.8713 814.136 28.694 814.248 28.582C814.36 28.4793 814.509 28.428 814.696 28.428H814.85C815.036 28.428 815.186 28.4793 815.298 28.582C815.41 28.694 815.466 28.8713 815.466 29.114C815.466 29.3567 815.41 29.5293 815.298 29.632C815.186 29.744 815.036 29.8 814.85 29.8H814.696ZM812.89 29.8C812.703 29.8 812.554 29.744 812.442 29.632C812.33 29.5293 812.274 29.3567 812.274 29.114C812.274 28.8713 812.33 28.694 812.442 28.582C812.554 28.4793 812.703 28.428 812.89 28.428H813.044C813.23 28.428 813.38 28.4793 813.492 28.582C813.604 28.694 813.66 28.8713 813.66 29.114C813.66 29.3567 813.604 29.5293 813.492 29.632C813.38 29.744 813.23 29.8 813.044 29.8H812.89ZM815.896 29.156H816.414C816.928 29.156 817.348 29.0813 817.674 28.932C818.001 28.7827 818.258 28.582 818.444 28.33C818.631 28.0873 818.762 27.798 818.836 27.462C818.911 27.1353 818.948 26.79 818.948 26.426C818.948 26.1553 818.934 25.8753 818.906 25.586C818.878 25.2873 818.841 25.0027 818.794 24.732L818.5 23.15L819.48 22.954L819.662 24.018C819.718 24.3447 819.76 24.6527 819.788 24.942C819.826 25.2313 819.854 25.516 819.872 25.796H821.202V26.72L820.922 27H819.858C819.821 27.4573 819.732 27.8867 819.592 28.288C819.462 28.6987 819.261 29.058 818.99 29.366C818.729 29.674 818.384 29.9167 817.954 30.094C817.534 30.2713 817.021 30.36 816.414 30.36H815.896V29.156ZM820.927 26.076L821.207 25.796H821.417C822.033 25.796 822.476 25.7213 822.747 25.572C823.027 25.4133 823.167 25.1147 823.167 24.676C823.167 24.508 823.153 24.2933 823.125 24.032C823.106 23.7707 823.06 23.4253 822.985 22.996L822.789 21.834L823.769 21.68L823.937 22.842C824.002 23.2993 824.049 23.6727 824.077 23.962C824.105 24.2513 824.119 24.4893 824.119 24.676C824.119 25.46 823.886 26.0433 823.419 26.426C822.962 26.8087 822.294 27 821.417 27H820.927V26.076ZM823.909 20C823.722 20 823.573 19.9487 823.461 19.846C823.349 19.734 823.293 19.5567 823.293 19.314C823.293 19.0713 823.349 18.8987 823.461 18.796C823.573 18.684 823.722 18.628 823.909 18.628H824.063C824.25 18.628 824.399 18.684 824.511 18.796C824.623 18.8987 824.679 19.0713 824.679 19.314C824.679 19.5567 824.623 19.734 824.511 19.846C824.399 19.9487 824.25 20 824.063 20H823.909ZM822.103 20C821.916 20 821.767 19.9487 821.655 19.846C821.543 19.734 821.487 19.5567 821.487 19.314C821.487 19.0713 821.543 18.8987 821.655 18.796C821.767 18.684 821.916 18.628 822.103 18.628H822.257C822.444 18.628 822.593 18.684 822.705 18.796C822.817 18.8987 822.873 19.0713 822.873 19.314C822.873 19.5567 822.817 19.734 822.705 19.846C822.593 19.9487 822.444 20 822.257 20H822.103ZM831.543 27C831.095 27 830.712 26.9627 830.395 26.888C830.087 26.8133 829.835 26.692 829.639 26.524C829.452 26.3467 829.317 26.118 829.233 25.838C829.149 25.558 829.107 25.2173 829.107 24.816V16.64H830.143V24.816C830.143 25.1707 830.241 25.4227 830.437 25.572C830.633 25.7213 830.936 25.796 831.347 25.796H831.837V26.72L831.557 27H831.543ZM831.55 26.076L831.83 25.796C832.138 25.796 832.371 25.782 832.53 25.754C832.698 25.726 832.833 25.67 832.936 25.586C832.908 25.4833 832.889 25.3807 832.88 25.278C832.871 25.1753 832.866 25.0633 832.866 24.942C832.866 24.438 833.029 23.9807 833.356 23.57C833.692 23.15 834.196 22.7207 834.868 22.282L835.554 21.834H836.646L837.64 24.536C837.733 24.788 837.817 24.998 837.892 25.166C837.976 25.3247 838.065 25.4507 838.158 25.544C838.261 25.6373 838.368 25.7027 838.48 25.74C838.601 25.7773 838.741 25.796 838.9 25.796H839.166V26.72L838.886 27C838.447 27 838.097 26.9393 837.836 26.818C837.575 26.6873 837.341 26.4353 837.136 26.062L837.052 26.09V27H835.386C834.182 27 833.407 26.65 833.062 25.95H833.006C832.885 26.3047 832.717 26.5707 832.502 26.748C832.287 26.916 831.97 27 831.55 27V26.076ZM833.79 24.816C833.79 25.152 833.925 25.3993 834.196 25.558C834.467 25.7167 834.891 25.796 835.47 25.796H836.996C836.893 25.5813 836.781 25.306 836.66 24.97L835.876 22.856L835.344 23.178C834.924 23.43 834.56 23.6913 834.252 23.962C833.944 24.2327 833.79 24.5173 833.79 24.816ZM838.892 26.076L839.172 25.796H840.936V25.726C840.591 25.502 840.301 25.18 840.068 24.76C839.844 24.34 839.732 23.8827 839.732 23.388C839.732 22.968 839.802 22.5853 839.942 22.24C840.082 21.8947 840.269 21.6007 840.502 21.358C840.745 21.106 841.029 20.9147 841.356 20.784C841.683 20.644 842.028 20.574 842.392 20.574C842.924 20.574 843.386 20.686 843.778 20.91C844.17 21.1247 844.497 21.4327 844.758 21.834L844.058 22.646C843.815 22.3473 843.554 22.128 843.274 21.988C843.003 21.848 842.691 21.778 842.336 21.778C841.804 21.778 841.398 21.9273 841.118 22.226C840.847 22.5153 840.712 22.9027 840.712 23.388C840.712 23.6493 840.768 23.892 840.88 24.116C840.992 24.34 841.146 24.536 841.342 24.704C841.538 24.8627 841.771 24.9887 842.042 25.082C842.313 25.1753 842.607 25.222 842.924 25.222C843.344 25.222 843.778 25.166 844.226 25.054L845.346 24.774L845.612 25.866L843.792 26.37C843.344 26.5007 842.929 26.608 842.546 26.692C842.163 26.7667 841.781 26.8273 841.398 26.874C841.025 26.9207 840.633 26.9533 840.222 26.972C839.821 26.9907 839.377 27 838.892 27V26.076ZM855.032 27.168C854.052 27.168 853.226 27.1167 852.554 27.014C851.891 26.9113 851.354 26.748 850.944 26.524C850.533 26.3 850.234 26.006 850.048 25.642C849.87 25.2687 849.782 24.816 849.782 24.284C849.782 23.9107 849.828 23.528 849.922 23.136C850.024 22.744 850.178 22.31 850.384 21.834L851.252 22.1C850.869 22.8933 850.678 23.5747 850.678 24.144C850.678 24.7507 850.948 25.1987 851.49 25.488C852.031 25.768 852.885 25.908 854.052 25.908H856.012C856.684 25.908 857.239 25.8893 857.678 25.852C858.116 25.8147 858.462 25.7493 858.714 25.656C858.966 25.5533 859.138 25.418 859.232 25.25C859.334 25.082 859.386 24.8673 859.386 24.606V22.394H860.366V24.606C860.366 25.3993 860.762 25.796 861.556 25.796H862.046V26.72L861.766 27C860.478 27 859.722 26.524 859.498 25.572H859.428C859.372 25.8893 859.264 26.1507 859.106 26.356C858.947 26.5613 858.7 26.7247 858.364 26.846C858.037 26.9673 857.603 27.0513 857.062 27.098C856.53 27.1447 855.853 27.168 855.032 27.168ZM855.858 21.834C855.671 21.834 855.522 21.7827 855.41 21.68C855.298 21.568 855.242 21.3907 855.242 21.148C855.242 20.9053 855.298 20.7327 855.41 20.63C855.522 20.518 855.671 20.462 855.858 20.462H856.012C856.198 20.462 856.348 20.518 856.46 20.63C856.572 20.7327 856.628 20.9053 856.628 21.148C856.628 21.3907 856.572 21.568 856.46 21.68C856.348 21.7827 856.198 21.834 856.012 21.834H855.858ZM854.052 21.834C853.865 21.834 853.716 21.7827 853.604 21.68C853.492 21.568 853.436 21.3907 853.436 21.148C853.436 20.9053 853.492 20.7327 853.604 20.63C853.716 20.518 853.865 20.462 854.052 20.462H854.206C854.392 20.462 854.542 20.518 854.654 20.63C854.766 20.7327 854.822 20.9053 854.822 21.148C854.822 21.3907 854.766 21.568 854.654 21.68C854.542 21.7827 854.392 21.834 854.206 21.834H854.052ZM854.948 20.14C854.77 20.14 854.626 20.0887 854.514 19.986C854.411 19.874 854.36 19.706 854.36 19.482C854.36 19.258 854.411 19.0947 854.514 18.992C854.626 18.88 854.77 18.824 854.948 18.824H855.116C855.293 18.824 855.433 18.88 855.536 18.992C855.648 19.0947 855.704 19.258 855.704 19.482C855.704 19.706 855.648 19.874 855.536 19.986C855.433 20.0887 855.293 20.14 855.116 20.14H854.948ZM861.765 26.076L862.045 25.796H862.521C862.932 25.796 863.31 25.782 863.655 25.754C864.01 25.726 864.369 25.6747 864.733 25.6C865.097 25.516 865.48 25.3993 865.881 25.25C866.292 25.1007 866.754 24.9047 867.267 24.662L868.555 24.046V23.99L866.483 23.528L863.585 22.814V24.018H862.605V22.94C862.605 22.548 862.712 22.254 862.927 22.058C863.151 21.8527 863.431 21.75 863.767 21.75C863.87 21.75 863.991 21.764 864.131 21.792C864.28 21.8107 864.509 21.8573 864.817 21.932L868.233 22.814C868.746 22.9447 869.176 23.038 869.521 23.094C869.866 23.1407 870.165 23.164 870.417 23.164H870.641V24.368H869.577V24.536C869.577 25.0027 869.68 25.3293 869.885 25.516C870.09 25.7027 870.408 25.796 870.837 25.796H871.327V26.72L871.047 27C870.636 27 870.286 26.9627 869.997 26.888C869.708 26.8133 869.47 26.692 869.283 26.524C869.106 26.3467 868.97 26.1227 868.877 25.852C868.793 25.5813 868.746 25.25 868.737 24.858L867.645 25.516C867.066 25.8613 866.553 26.1367 866.105 26.342C865.657 26.538 865.237 26.6873 864.845 26.79C864.453 26.8833 864.07 26.944 863.697 26.972C863.333 26.9907 862.941 27 862.521 27H861.765V26.076ZM871.048 26.076L871.328 25.796H871.538C872.154 25.796 872.597 25.7213 872.868 25.572C873.148 25.4133 873.288 25.1147 873.288 24.676C873.288 24.508 873.274 24.2933 873.246 24.032C873.227 23.7707 873.181 23.4253 873.106 22.996L872.91 21.834L873.89 21.68L874.058 22.842C874.123 23.2993 874.17 23.6727 874.198 23.962C874.226 24.2513 874.24 24.4893 874.24 24.676C874.24 25.46 874.007 26.0433 873.54 26.426C873.083 26.8087 872.415 27 871.538 27H871.048V26.076ZM873.176 29.8C872.989 29.8 872.84 29.744 872.728 29.632C872.616 29.5293 872.56 29.3567 872.56 29.114C872.56 28.8713 872.616 28.694 872.728 28.582C872.84 28.4793 872.989 28.428 873.176 28.428H873.33C873.517 28.428 873.666 28.4793 873.778 28.582C873.89 28.694 873.946 28.8713 873.946 29.114C873.946 29.3567 873.89 29.5293 873.778 29.632C873.666 29.744 873.517 29.8 873.33 29.8H873.176ZM875.919 16.64H876.955V27H875.919V16.64Z" fill="#A5A5A5"/>
<defs>
<clipPath id="clip0_23189_21842">
<rect width="16" height="16" fill="white" transform="translate(138 14.5)"/>
</clipPath>
</defs>
</svg>
