<svg width="894" height="25" viewBox="0 0 894 25" fill="none" xmlns="http://www.w3.org/2000/svg">
<g clip-path="url(#clip0_23190_38447)">
<path d="M2.70868 12.0001C2.70868 12.3114 2.84672 12.6002 2.97745 12.817C3.11851 13.0511 3.30822 13.2927 3.51633 13.5282C3.93383 14.0008 4.47857 14.5083 5.00721 14.9673C5.53895 15.4291 6.06887 15.8543 6.46472 16.1632C6.66298 16.318 6.82838 16.4442 6.94455 16.5319C7.00265 16.5758 7.04848 16.6101 7.08 16.6336L7.1163 16.6606L7.12594 16.6677L7.12928 16.6702C7.4072 16.8749 7.79881 16.8159 8.00353 16.5379C8.20824 16.26 8.14891 15.8688 7.87103 15.6641L7.86042 15.6562L7.82704 15.6314C7.79753 15.6094 7.75384 15.5767 7.69801 15.5345C7.58632 15.4502 7.4262 15.328 7.23384 15.1779C6.84845 14.877 6.3367 14.4663 5.82679 14.0235C5.31377 13.578 4.81686 13.1123 4.45311 12.7006C4.4301 12.6746 4.40783 12.649 4.38632 12.6238L16.667 12.6238C17.0122 12.6238 17.292 12.344 17.292 11.9988C17.292 11.6537 17.0122 11.3738 16.667 11.3738L4.38843 11.3738C4.40929 11.3495 4.43085 11.3247 4.45311 11.2995C4.81686 10.8878 5.31377 10.4221 5.82679 9.97663C6.3367 9.53384 6.84845 9.12309 7.23383 8.82228C7.4262 8.67214 7.58632 8.54997 7.69801 8.4656C7.75384 8.42342 7.79753 8.39072 7.82704 8.36872L7.86042 8.34391L7.87102 8.33607C8.14891 8.13134 8.20824 7.74011 8.00353 7.4622C7.79881 7.18429 7.4072 7.12521 7.12928 7.32993L7.12594 7.33239L7.1163 7.33952L7.08 7.36651C7.04848 7.39001 7.00264 7.42432 6.94454 7.46821C6.82837 7.55597 6.66298 7.68216 6.46472 7.83691C6.06886 8.14589 5.53895 8.57107 5.00721 9.03282C4.47857 9.49188 3.93383 9.99936 3.51633 10.4719C3.30822 10.7075 3.11851 10.9491 2.97745 11.1831C2.84751 11.3987 2.71034 11.6853 2.70869 11.9945" fill="#3F51B5"/>
<path d="M32.96 20.84C31.5627 20.84 30.4853 20.4773 29.728 19.752C28.9813 19.0267 28.608 18.0027 28.608 16.68C28.608 16.2 28.672 15.672 28.8 15.096C28.9387 14.52 29.1253 13.9547 29.36 13.4L30.576 13.768C30.3733 14.216 30.208 14.68 30.08 15.16C29.952 15.64 29.888 16.072 29.888 16.456C29.888 17.2347 30.112 17.8373 30.56 18.264C31.008 18.6907 31.6267 18.904 32.416 18.904H33.52C33.9787 18.904 34.368 18.8507 34.688 18.744C35.008 18.6373 35.2693 18.4613 35.472 18.216C35.6747 17.9707 35.8187 17.6453 35.904 17.24C35.9893 16.8453 36.032 16.36 36.032 15.784V5.16H37.536V15.192H39.408V16.616L39.024 17H37.472C37.312 18.3227 36.864 19.2933 36.128 19.912C35.392 20.5307 34.336 20.84 32.96 20.84ZM38.9263 15.576L39.3103 15.192H40.7983C41.2783 15.192 41.6089 15.144 41.7903 15.048C41.9716 14.9413 42.0623 14.7653 42.0623 14.52C42.0623 14.36 42.0143 14.2 41.9183 14.04C41.8223 13.88 41.6409 13.6453 41.3743 13.336L39.4703 11.24V7.848L46.7023 4.984V6.712L40.1263 9.32V9.416L43.9023 13.528C44.2116 13.8693 44.4889 14.1467 44.7343 14.36C44.9796 14.5733 45.2143 14.744 45.4383 14.872C45.6623 14.9893 45.8863 15.0747 46.1103 15.128C46.3343 15.1707 46.5849 15.192 46.8623 15.192V16.616L46.4783 17C46.1049 17 45.7743 16.9733 45.4863 16.92C45.1983 16.856 44.9263 16.744 44.6703 16.584C44.4143 16.424 44.1529 16.2107 43.8863 15.944C43.6196 15.6667 43.3263 15.3147 43.0063 14.888L42.6703 14.44L42.5903 14.472C42.6223 14.6533 42.6383 14.824 42.6383 14.984C42.6383 15.5813 42.4569 16.0667 42.0943 16.44C41.7423 16.8133 41.2623 17 40.6543 17H38.9263V15.576ZM46.3771 15.576L46.7611 15.192H47.3211C47.7905 15.192 48.1158 15.0907 48.2971 14.888C48.4891 14.6853 48.5851 14.3653 48.5851 13.928V5.16H50.0891V13.928C50.0891 14.984 49.8758 15.7627 49.4491 16.264C49.0225 16.7547 48.3131 17 47.3211 17H46.3771V15.576ZM52.2066 5.16H53.6946V17H52.2066V5.16ZM60.619 17C60.075 17 59.6483 16.856 59.339 16.568C59.0297 16.28 58.875 15.832 58.875 15.224V14.056H60.299V15.192H62.475C63.0403 15.192 63.4297 15.144 63.643 15.048C63.8563 14.952 63.963 14.7707 63.963 14.504C63.963 14.3867 63.9363 14.2427 63.883 14.072C63.8297 13.8907 63.755 13.6613 63.659 13.384L62.171 9.24L63.691 8.696L65.323 13.224C65.4617 13.6187 65.5897 13.944 65.707 14.2C65.835 14.4453 65.963 14.6427 66.091 14.792C66.219 14.9413 66.3523 15.048 66.491 15.112C66.6403 15.1653 66.811 15.192 67.003 15.192H67.435V16.616L67.035 17C66.683 17 66.3737 16.9733 66.107 16.92C65.8403 16.856 65.6003 16.76 65.387 16.632C65.1843 16.4933 64.9977 16.312 64.827 16.088C64.667 15.864 64.507 15.5813 64.347 15.24L64.267 15.256C64.171 15.8853 63.9577 16.3333 63.627 16.6C63.2963 16.8667 62.7897 17 62.107 17H60.619ZM66.9619 15.576L67.3459 15.192H69.4099L69.4419 15.112C68.5565 14.3547 68.1139 13.48 68.1139 12.488C68.1139 12.072 68.1779 11.6773 68.3059 11.304C68.4445 10.9307 68.6312 10.6 68.8659 10.312C69.1112 10.024 69.3939 9.78933 69.7139 9.608C70.0339 9.416 70.3805 9.304 70.7539 9.272L71.2659 8.296L73.7459 9.656C74.3325 9.976 74.8339 10.3173 75.2499 10.68C75.6659 11.032 76.0072 11.4213 76.2739 11.848C76.5405 12.2747 76.7379 12.744 76.8659 13.256C76.9939 13.7573 77.0579 14.3227 77.0579 14.952V15.272L75.8899 17H74.1139C73.5485 17 73.0045 16.9413 72.4819 16.824C71.9699 16.696 71.4792 16.4933 71.0099 16.216C70.5512 16.4933 70.0605 16.696 69.5379 16.824C69.0152 16.9413 68.4765 17 67.9219 17H66.9619V15.576ZM71.0099 14.824C71.5219 14.5253 71.9165 14.1787 72.1939 13.784C72.4819 13.3893 72.6259 12.968 72.6259 12.52C72.6259 11.976 72.4872 11.5493 72.2099 11.24C71.9432 10.92 71.5752 10.76 71.1059 10.76H70.9299C70.4605 10.76 70.0872 10.92 69.8099 11.24C69.5325 11.5493 69.3939 11.976 69.3939 12.52C69.3939 12.968 69.5325 13.3893 69.8099 13.784C70.0979 14.1787 70.4979 14.5253 71.0099 14.824ZM73.7779 11.576C73.8632 11.8853 73.9059 12.1893 73.9059 12.488C73.9059 13.48 73.4632 14.3547 72.5779 15.112L72.6099 15.192H75.7299V15.048C75.7299 14.216 75.5752 13.528 75.2659 12.984C74.9672 12.44 74.4819 11.96 73.8099 11.544L73.7779 11.576ZM81.5791 17C80.5338 17 79.7818 16.7867 79.3231 16.36C78.8645 15.9227 78.6351 15.1973 78.6351 14.184V5.16H80.1231V14.04C80.1231 14.488 80.2245 14.792 80.4271 14.952C80.6405 15.112 80.9871 15.192 81.4671 15.192H81.9951V16.616L81.5951 17H81.5791ZM81.5199 15.576L81.9039 15.192H82.2239C82.4479 15.192 82.6452 15.176 82.8159 15.144C82.9865 15.112 83.1359 15.0533 83.2639 14.968C83.3919 14.8827 83.5092 14.7707 83.6159 14.632C83.7225 14.4933 83.8292 14.3173 83.9359 14.104L84.5919 12.776L85.7919 13.384L85.0559 14.808L85.1679 14.872C85.4879 15.0533 85.7972 15.1867 86.0959 15.272C86.3945 15.3573 86.6985 15.4 87.0079 15.4C87.4879 15.4 87.8399 15.2933 88.0639 15.08C88.2879 14.856 88.3999 14.472 88.3999 13.928V12.776H89.7919V13.928C89.7919 14.4507 89.8719 14.824 90.0319 15.048C90.1919 15.2613 90.4425 15.368 90.7839 15.368H91.0239C91.6319 15.368 91.9359 15.0213 91.9359 14.328C91.9359 13.9867 91.8879 13.496 91.7919 12.856L91.6479 12.008L93.0239 11.8L93.1519 12.632C93.1945 12.952 93.2265 13.256 93.2479 13.544C93.2692 13.832 93.2799 14.0933 93.2799 14.328C93.2799 15.2667 93.0772 15.9813 92.6719 16.472C92.2772 16.952 91.6852 17.192 90.8959 17.192C90.2132 17.192 89.6852 17.0373 89.3119 16.728C88.9385 16.4187 88.6932 15.9493 88.5759 15.32H88.4799C88.2985 16.568 87.7065 17.192 86.7039 17.192C86.3945 17.192 86.0745 17.1333 85.7439 17.016C85.4239 16.8987 85.0399 16.7067 84.5919 16.44L84.1599 16.184C83.8505 16.5147 83.4879 16.7333 83.0719 16.84C82.6665 16.9467 82.1492 17 81.5199 17V15.576ZM90.1279 11.144C89.8825 11.144 89.6852 11.0693 89.5359 10.92C89.3865 10.7707 89.3119 10.5413 89.3119 10.232C89.3119 9.912 89.3865 9.68267 89.5359 9.544C89.6852 9.39467 89.8825 9.32 90.1279 9.32H90.3519C90.5972 9.32 90.7945 9.39467 90.9439 9.544C91.0932 9.68267 91.1679 9.912 91.1679 10.232C91.1679 10.5413 91.0932 10.7707 90.9439 10.92C90.7945 11.0693 90.5972 11.144 90.3519 11.144H90.1279ZM87.8559 11.144C87.6105 11.144 87.4132 11.0693 87.2639 10.92C87.1252 10.7707 87.0559 10.5413 87.0559 10.232C87.0559 9.912 87.1252 9.68267 87.2639 9.544C87.4132 9.39467 87.6105 9.32 87.8559 9.32H88.0959C88.3412 9.32 88.5385 9.39467 88.6879 9.544C88.8372 9.68267 88.9119 9.912 88.9119 10.232C88.9119 10.5413 88.8372 10.7707 88.6879 10.92C88.5385 11.0693 88.3412 11.144 88.0959 11.144H87.8559ZM88.9919 9.032C88.7572 9.032 88.5652 8.96267 88.4159 8.824C88.2665 8.67467 88.1919 8.44533 88.1919 8.136C88.1919 7.82667 88.2665 7.60267 88.4159 7.464C88.5652 7.32533 88.7572 7.256 88.9919 7.256H89.2319C89.4665 7.256 89.6532 7.32533 89.7919 7.464C89.9412 7.60267 90.0159 7.82667 90.0159 8.136C90.0159 8.44533 89.9412 8.67467 89.7919 8.824C89.6532 8.96267 89.4665 9.032 89.2319 9.032H88.9919Z" fill="#3F51B5"/>
</g>
<path d="M780.925 19.24C779.591 19.24 778.551 18.8867 777.805 18.18C777.071 17.4733 776.705 16.4733 776.705 15.18C776.705 14.38 776.905 13.56 777.305 12.72C777.705 11.88 778.311 11.0733 779.125 10.3L779.525 9.92H782.445L782.865 10.28C783.665 10.96 784.245 11.6533 784.605 12.36C784.965 13.0667 785.145 13.86 785.145 14.74C785.145 16.1533 784.771 17.26 784.025 18.06C783.291 18.8467 782.258 19.24 780.925 19.24ZM781.125 16.24C781.765 16.24 782.258 16.1267 782.605 15.9C782.965 15.6733 783.145 15.3667 783.145 14.98C783.145 14.86 783.118 14.7333 783.065 14.6C783.025 14.4667 782.938 14.32 782.805 14.16C782.671 14 782.491 13.8133 782.265 13.6C782.038 13.3867 781.745 13.14 781.385 12.86L780.685 12.32H780.525L779.945 12.88C779.718 13.1067 779.525 13.3067 779.365 13.48C779.205 13.6533 779.071 13.82 778.965 13.98C778.871 14.1267 778.805 14.2733 778.765 14.42C778.725 14.5667 778.705 14.72 778.705 14.88C778.705 15.28 778.878 15.6067 779.225 15.86C779.585 16.1133 780.085 16.24 780.725 16.24H781.125ZM784.343 20.8H785.143C786.356 20.8 787.243 20.5533 787.803 20.06C788.376 19.5667 788.656 18.7467 788.643 17.6C788.643 17.2933 788.623 16.9733 788.583 16.64C788.543 16.2933 788.49 15.9267 788.423 15.54L788.003 12.88L790.183 12.54L790.403 14L793.703 13.46V11.74H795.903V14.52C795.903 15.12 796.023 15.52 796.263 15.72C796.503 15.9067 796.916 16 797.503 16H798.103V18.4L797.503 19H797.283C796.27 19 795.483 18.8 794.923 18.4C794.363 17.9867 793.996 17.32 793.823 16.4L790.803 16.9C790.816 17.0067 790.823 17.1133 790.823 17.22C790.823 17.3267 790.823 17.42 790.823 17.5C790.823 18.46 790.703 19.3267 790.463 20.1C790.223 20.8733 789.863 21.5333 789.383 22.08C788.903 22.64 788.31 23.0667 787.603 23.36C786.896 23.6533 786.083 23.8 785.163 23.8H784.343V20.8ZM788.623 10.94C788.276 10.94 787.99 10.8333 787.763 10.62C787.55 10.4067 787.443 10.0667 787.443 9.6C787.443 9.13333 787.55 8.79333 787.763 8.58C787.99 8.36667 788.276 8.26 788.623 8.26H789.023C789.37 8.26 789.65 8.36667 789.863 8.58C790.09 8.79333 790.203 9.13333 790.203 9.6C790.203 10.0667 790.09 10.4067 789.863 10.62C789.65 10.8333 789.37 10.94 789.023 10.94H788.623ZM796.163 23.3C795.816 23.3 795.53 23.1933 795.303 22.98C795.09 22.7667 794.983 22.4267 794.983 21.96C794.983 21.4933 795.09 21.1533 795.303 20.94C795.53 20.7267 795.816 20.62 796.163 20.62H796.563C796.91 20.62 797.19 20.7267 797.403 20.94C797.63 21.1533 797.743 21.4933 797.743 21.96C797.743 22.4267 797.63 22.7667 797.403 22.98C797.19 23.1933 796.91 23.3 796.563 23.3H796.163ZM793.003 23.3C792.656 23.3 792.37 23.1933 792.143 22.98C791.93 22.7667 791.823 22.4267 791.823 21.96C791.823 21.4933 791.93 21.1533 792.143 20.94C792.37 20.7267 792.656 20.62 793.003 20.62H793.403C793.75 20.62 794.03 20.7267 794.243 20.94C794.47 21.1533 794.583 21.4933 794.583 21.96C794.583 22.4267 794.47 22.7667 794.243 22.98C794.03 23.1933 793.75 23.3 793.403 23.3H793.003ZM797.502 16.6L798.102 16H799.842C799.828 15.92 799.822 15.84 799.822 15.76C799.822 15.68 799.822 15.6 799.822 15.52C799.822 13.9067 800.755 12.56 802.622 11.48L803.902 10.74H806.542L808.122 14.98C808.268 15.3933 808.448 15.6667 808.662 15.8C808.888 15.9333 809.222 16 809.662 16H810.262V18.4L809.662 19C808.782 19 808.088 18.8667 807.582 18.6C807.075 18.32 806.655 17.8867 806.322 17.3L806.202 17.32V19H803.662C802.688 19 801.908 18.8067 801.322 18.42C800.735 18.02 800.322 17.52 800.082 16.92H799.902C799.528 18.3067 798.728 19 797.502 19V16.6ZM801.642 15.24C801.642 15.5333 801.755 15.7333 801.982 15.84C802.208 15.9467 802.482 16 802.802 16H805.742L804.742 13.36L802.922 14.08C802.495 14.2533 802.175 14.4333 801.962 14.62C801.748 14.7933 801.642 15 801.642 15.24ZM812.61 17.88C812.303 18.2933 811.916 18.5867 811.45 18.76C810.996 18.92 810.403 19 809.67 19V16.6L810.27 16C810.763 16 811.123 15.9267 811.35 15.78C811.576 15.6333 811.763 15.3733 811.91 15L812.47 13.62C812.643 13.1933 812.836 12.7933 813.05 12.42C813.263 12.0467 813.516 11.72 813.81 11.44C814.103 11.16 814.43 10.94 814.79 10.78C815.163 10.62 815.59 10.54 816.07 10.54C817.323 10.54 818.263 11.0333 818.89 12.02C819.53 13.0067 819.85 14.3733 819.85 16.12V16.7L817.95 19.52L812.61 17.88ZM813.71 15.1L817.73 16.32V16.12C817.73 15.32 817.536 14.6933 817.15 14.24C816.763 13.7867 816.236 13.56 815.57 13.56C815.143 13.56 814.77 13.6733 814.45 13.9C814.143 14.1267 813.91 14.4867 813.75 14.98L813.71 15.1ZM833.89 19.24C832.436 19.24 831.21 19.16 830.21 19C829.223 18.84 828.423 18.58 827.81 18.22C827.196 17.8467 826.75 17.3667 826.47 16.78C826.203 16.1933 826.07 15.4667 826.07 14.6C826.07 14.0667 826.136 13.48 826.27 12.84C826.416 12.2 826.616 11.5667 826.87 10.94L828.79 11.5C828.563 11.9533 828.383 12.3933 828.25 12.82C828.13 13.2333 828.07 13.6067 828.07 13.94C828.07 14.3267 828.15 14.6533 828.31 14.92C828.47 15.1733 828.73 15.38 829.09 15.54C829.45 15.7 829.923 15.82 830.51 15.9C831.096 15.9667 831.823 16 832.69 16H835.49C836.37 16 837.11 15.98 837.71 15.94C838.31 15.9 838.79 15.8333 839.15 15.74C839.523 15.6333 839.79 15.5067 839.95 15.36C840.123 15.2 840.21 15.0067 840.21 14.78C840.21 14.58 840.19 14.3267 840.15 14.02C840.123 13.7 840.063 13.2867 839.97 12.78L839.63 10.92L841.81 10.56L842.11 12.42C842.176 12.78 842.23 13.18 842.27 13.62C842.31 14.06 842.33 14.4467 842.33 14.78C842.33 15.6733 842.203 16.4067 841.95 16.98C841.71 17.5533 841.27 18.0067 840.63 18.34C840.003 18.6733 839.143 18.9067 838.05 19.04C836.97 19.1733 835.583 19.24 833.89 19.24ZM835.45 11.74C835.103 11.74 834.816 11.6333 834.59 11.42C834.376 11.2067 834.27 10.8667 834.27 10.4C834.27 9.93333 834.376 9.59333 834.59 9.38C834.816 9.16667 835.103 9.06 835.45 9.06H835.85C836.196 9.06 836.476 9.16667 836.69 9.38C836.916 9.59333 837.03 9.93333 837.03 10.4C837.03 10.8667 836.916 11.2067 836.69 11.42C836.476 11.6333 836.196 11.74 835.85 11.74H835.45ZM832.29 11.74C831.943 11.74 831.656 11.6333 831.43 11.42C831.216 11.2067 831.11 10.8667 831.11 10.4C831.11 9.93333 831.216 9.59333 831.43 9.38C831.656 9.16667 831.943 9.06 832.29 9.06H832.69C833.036 9.06 833.316 9.16667 833.53 9.38C833.756 9.59333 833.87 9.93333 833.87 10.4C833.87 10.8667 833.756 11.2067 833.53 11.42C833.316 11.6333 833.036 11.74 832.69 11.74H832.29ZM848.106 19C846.759 19 845.759 18.68 845.106 18.04C844.452 17.4 844.126 16.36 844.126 14.92V4.2H846.526V14.52C846.526 15.12 846.646 15.52 846.886 15.72C847.126 15.9067 847.539 16 848.126 16H848.726V18.4L848.126 19H848.106ZM848.127 16.6L848.727 16H849.307C849.787 16 850.18 15.98 850.487 15.94C850.807 15.9 851.06 15.8333 851.247 15.74C851.447 15.6333 851.58 15.5067 851.647 15.36C851.727 15.2 851.767 15.0067 851.767 14.78C851.767 14.58 851.747 14.3267 851.707 14.02C851.68 13.7 851.62 13.2867 851.527 12.78L851.187 10.92L853.367 10.56L853.667 12.42C853.733 12.78 853.787 13.18 853.827 13.62C853.867 14.06 853.887 14.4467 853.887 14.78C853.887 16.2333 853.527 17.3 852.807 17.98C852.1 18.66 850.933 19 849.307 19H848.127V16.6ZM851.767 8.96C851.42 8.96 851.133 8.85333 850.907 8.64C850.693 8.42667 850.587 8.08667 850.587 7.62C850.587 7.15333 850.693 6.81333 850.907 6.6C851.133 6.38667 851.42 6.28 851.767 6.28H852.167C852.513 6.28 852.793 6.38667 853.007 6.6C853.233 6.81333 853.347 7.15333 853.347 7.62C853.347 8.08667 853.233 8.42667 853.007 8.64C852.793 8.85333 852.513 8.96 852.167 8.96H851.767ZM854.688 16.68L857.928 15.92L856.368 7.1L858.728 6.68L860.268 15.32C860.748 15.1733 861.142 15.0133 861.448 14.84C861.768 14.6667 862.022 14.4733 862.208 14.26C862.395 14.0333 862.522 13.7733 862.588 13.48C862.668 13.1733 862.708 12.82 862.708 12.42V4.2H865.108V14.6C865.108 15.5333 865.575 16 866.508 16H867.308V18.4L866.708 19C865.415 18.9867 864.468 18.6533 863.868 18C863.268 17.3467 862.968 16.32 862.968 14.92V14.72H862.848C862.662 15.8267 862.342 16.6867 861.888 17.3C861.448 17.9133 860.835 18.3133 860.048 18.5L855.368 19.6L854.688 16.68ZM866.701 16.6L867.301 16H868.901V15.9C868.634 15.5133 868.427 15.1 868.281 14.66C868.147 14.22 868.081 13.7467 868.081 13.24C868.081 12.5867 868.194 11.9733 868.421 11.4C868.661 10.8267 868.981 10.3267 869.381 9.9C869.794 9.46 870.274 9.12 870.821 8.88C871.381 8.62667 871.987 8.5 872.641 8.5C873.721 8.5 874.601 8.72 875.281 9.16C875.961 9.6 876.527 10.2 876.981 10.96L874.841 12.86C874.547 12.3933 874.207 12.0533 873.821 11.84C873.434 11.6133 872.974 11.5 872.441 11.5C871.694 11.5 871.114 11.6533 870.701 11.96C870.287 12.2533 870.081 12.68 870.081 13.24C870.081 13.92 870.367 14.4467 870.941 14.82C871.514 15.18 872.321 15.36 873.361 15.36C873.707 15.36 874.074 15.3333 874.461 15.28C874.847 15.2267 875.201 15.1533 875.521 15.06L877.461 14.52L878.221 17.22L875.281 18.12C874.707 18.2933 874.154 18.44 873.621 18.56C873.087 18.6667 872.501 18.7533 871.861 18.82C871.221 18.8867 870.487 18.9333 869.661 18.96C868.834 18.9867 867.847 19 866.701 19V16.6ZM879.507 16L882.947 12.9L878.307 8.54L880.047 6.66L884.847 11.18C885.074 10.9267 885.234 10.6533 885.327 10.36C885.434 10.0533 885.487 9.65333 885.487 9.16V4.2H887.887V9.16C887.887 9.50667 887.854 9.82667 887.787 10.12C887.734 10.4133 887.64 10.6933 887.507 10.96C887.387 11.2267 887.22 11.4867 887.007 11.74C886.794 11.98 886.54 12.2333 886.247 12.5L886.947 13.14C887.227 13.4067 887.467 13.66 887.667 13.9C887.867 14.14 888.027 14.38 888.147 14.62C888.267 14.86 888.354 15.1133 888.407 15.38C888.46 15.6333 888.487 15.9067 888.487 16.2C888.487 16.6 888.414 16.9733 888.267 17.32C888.134 17.6533 887.94 17.9467 887.687 18.2C887.447 18.4533 887.16 18.6533 886.827 18.8C886.494 18.9333 886.127 19 885.727 19H879.507V16ZM884.287 14.14L882.167 15.92L882.187 16H886.287L884.287 14.14ZM879.607 22.7H880.447L880.467 22.6C880.2 22.3067 880.067 21.9533 880.067 21.54C880.067 20.98 880.267 20.5133 880.667 20.14C881.08 19.78 881.607 19.6 882.247 19.6C882.634 19.6 883.007 19.68 883.367 19.84C883.727 20 884.04 20.22 884.307 20.5L883.347 21.84C883.027 21.52 882.66 21.36 882.247 21.36C882.02 21.36 881.834 21.4133 881.687 21.52C881.554 21.6267 881.487 21.7533 881.487 21.9C881.487 22.34 881.947 22.56 882.867 22.56H884.347V24.32H879.607V22.7ZM890.395 4.2H892.795V19H890.395V4.2Z" fill="#333333"/>
<defs>
<clipPath id="clip0_23190_38447">
<rect y="2" width="94" height="20" rx="4" fill="white"/>
</clipPath>
</defs>
</svg>
