<svg xmlns="http://www.w3.org/2000/svg" width="1200" height="77" fill="none"><path fill="#202020" d="M1049.03 15.168c-1.01 0-1.87-.056-2.57-.168q-1.035-.168-1.68-.546a2.4 2.4 0 0 1-.94-1.008c-.19-.41-.28-.92-.28-1.526 0-.373.05-.784.14-1.232q.15-.672.42-1.33l1.34.392c-.15.317-.28.625-.37.924-.09.29-.13.55-.13.784 0 .27.06.5.17.686q.165.266.54.434c.26.112.59.196 1 .252.41.047.92.07 1.52.07h1.96q.93 0 1.56-.042c.42-.028.75-.075 1.01-.14.26-.075.44-.163.56-.266a.54.54 0 0 0 .18-.406c0-.14-.02-.317-.04-.532a8 8 0 0 0-.13-.868l-.24-1.302 1.53-.252.21 1.302c.04.252.08.532.11.84s.04.579.04.812c0 .625-.09 1.139-.26 1.54q-.255.602-.93.952-.66.35-1.8.49c-.76.093-1.73.14-2.92.14m1.1-5.25a.85.85 0 0 1-.61-.224c-.15-.15-.22-.387-.22-.714s.07-.565.22-.714c.16-.15.36-.224.61-.224h.28c.24 0 .43.075.58.224q.24.224.24.714t-.24.714a.78.78 0 0 1-.58.224zm-2.22 0a.85.85 0 0 1-.6-.224c-.15-.15-.22-.387-.22-.714s.07-.565.22-.714q.24-.225.6-.224h.28c.25 0 .44.075.59.224q.24.224.24.714t-.24.714c-.15.15-.34.224-.59.224zM1058.99 15q-1.425 0-2.1-.672-.69-.672-.69-2.184V4.64h1.68v7.224c0 .42.08.7.25.84q.255.196.87.196h.42v1.68l-.42.42zm.01-1.68.42-.42h.42c.75 0 1.12-.327 1.12-.98V9.918h1.54v2.002c0 .653.33.98.98.98h.56v1.68l-.42.42q-1.125 0-1.71-.448c-.38-.308-.64-.789-.77-1.442h-.08c-.13.653-.36 1.134-.67 1.442-.32.299-.78.448-1.39.448zm2.59 4.69a.85.85 0 0 1-.6-.224c-.15-.15-.23-.387-.23-.714s.08-.565.23-.714q.24-.224.6-.224h.28c.24 0 .44.075.59.224q.24.224.24.714t-.24.714a.8.8 0 0 1-.59.224zm2.03-4.69.42-.42h2.41q.48 0 .66-.098.18-.112.18-.392a.63.63 0 0 0-.17-.434c-.11-.121-.34-.275-.68-.462l-2.26-1.218V6.6l6.72-2.128V6.32l-6.02 1.89v.084l1.56.868c.42.233.77.462 1.06.686q.435.322.69.672c.17.233.3.48.37.742.09.252.13.537.13.854q0 1.484-.66 2.184c-.43.467-1.14.7-2.14.7h-2.27zm4.9 2.94h.56q1.275 0 1.86-.518c.4-.345.6-.92.59-1.722 0-.215-.01-.439-.04-.672-.03-.243-.07-.5-.11-.77l-.3-1.862 1.53-.238.21 1.302c.03.205.06.401.08.588.03.187.05.364.07.532h1.29v1.68l-.42.42h-.87q-.24 1.554-1.23 2.45c-.65.607-1.54.91-2.65.91h-.57zm7.37-2.044q-.315.435-.81.616c-.32.112-.73.168-1.25.168v-1.68l.42-.42c.35 0 .6-.051.76-.154q.24-.155.39-.546l.39-.966c.13-.299.26-.579.41-.84s.33-.49.53-.686q.315-.294.69-.462c.26-.112.56-.168.89-.168q1.32 0 1.98 1.036c.45.69.67 1.647.67 2.87v.406l-1.33 1.974zm.77-1.946 2.82.854v-.14c0-.56-.14-.999-.41-1.316q-.405-.476-1.11-.476c-.29 0-.56.08-.78.238-.21.159-.38.41-.49.756zm8.51 3.99h.9c1.22 0 2.12-.215 2.69-.644.57-.42.85-.966.85-1.638v-.364h-.08q-.21.714-.69 1.05-.465.336-1.17.336c-.76 0-1.35-.22-1.78-.658q-.63-.672-.63-1.862 0-.727.21-1.344.225-.63.6-1.078c.26-.308.56-.546.91-.714.35-.177.74-.266 1.15-.266.46 0 .86.098 1.22.294.36.187.66.462.91.826q.375.532.57 1.316c.13.523.2 1.11.2 1.764 0 1.596-.41 2.842-1.24 3.738-.81.896-2 1.344-3.58 1.344h-1.04zm2.93-3.36c.36 0 .67-.014.91-.042.24-.037.44-.093.59-.168-.04-.457-.21-.821-.52-1.092-.31-.28-.69-.42-1.13-.42q-.555 0-.93.294a.88.88 0 0 0-.36.728c0 .252.1.434.31.546q.3.154.84.154zm12.76 2.268c-1.01 0-1.87-.056-2.57-.168q-1.035-.168-1.68-.546a2.4 2.4 0 0 1-.94-1.008c-.19-.41-.28-.92-.28-1.526 0-.373.05-.784.14-1.232q.15-.672.42-1.33l1.34.392c-.15.317-.28.625-.37.924-.09.29-.13.55-.13.784 0 .27.06.5.17.686q.165.266.54.434c.26.112.59.196 1 .252.41.047.92.07 1.52.07h1.96q.93 0 1.56-.042c.42-.028.75-.075 1.01-.14.26-.075.44-.163.56-.266a.54.54 0 0 0 .18-.406c0-.14-.02-.317-.04-.532a8 8 0 0 0-.13-.868l-.24-1.302 1.53-.252.21 1.302c.04.252.08.532.11.84s.04.579.04.812c0 .625-.09 1.139-.26 1.54q-.255.602-.93.952-.66.35-1.8.49c-.76.093-1.73.14-2.92.14m1.1-5.25a.85.85 0 0 1-.61-.224c-.15-.15-.22-.387-.22-.714s.07-.565.22-.714c.16-.15.36-.224.61-.224h.28c.24 0 .43.075.58.224q.24.224.24.714t-.24.714a.78.78 0 0 1-.58.224zm-2.22 0a.85.85 0 0 1-.6-.224c-.15-.15-.22-.387-.22-.714s.07-.565.22-.714q.24-.225.6-.224h.28c.25 0 .44.075.59.224q.24.224.24.714t-.24.714c-.15.15-.34.224-.59.224zm8.29-5.278h1.68V15h-1.68zm1.68 11.62h.56q1.275 0 1.86-.518c.41-.345.6-.92.59-1.722 0-.215-.01-.439-.04-.672-.03-.243-.06-.5-.11-.77l-.3-1.862 1.53-.238.21 1.302c.08.448.13.863.17 1.246.05.373.07.681.07.924 0 .672-.09 1.279-.25 1.82a3.7 3.7 0 0 1-.76 1.386c-.34.392-.75.69-1.25.896-.49.205-1.06.308-1.7.308h-.58zm8.65-1.26q-1.41 0-2.1-.672c-.46-.448-.68-1.176-.68-2.184V4.64h1.68v7.224c0 .42.08.7.25.84q.255.196.87.196h.42v1.68l-.42.42zm.02-1.68.42-.42h.42c.74 0 1.12-.327 1.12-.98V9.918h1.54v2.002c0 .653.32.98.98.98h.56v1.68l-.42.42q-1.125 0-1.71-.448c-.38-.308-.64-.789-.77-1.442h-.09c-.13.653-.35 1.134-.67 1.442-.31.299-.78.448-1.38.448zm3.69 4.69a.85.85 0 0 1-.6-.224c-.15-.15-.22-.387-.22-.714s.07-.565.22-.714q.24-.224.6-.224h.28c.25 0 .44.075.59.224q.24.224.24.714t-.24.714c-.15.15-.34.224-.59.224zm-2.21 0a.85.85 0 0 1-.6-.224c-.15-.15-.23-.387-.23-.714s.08-.565.23-.714q.24-.224.6-.224h.28c.24 0 .44.075.59.224q.24.224.24.714t-.24.714a.8.8 0 0 1-.59.224zm3.14-4.69.42-.42h.01c.45 0 .78-.051 1-.154.22-.112.4-.303.53-.574l.54-1.134 1.39.672-.49 1.022q.33.154.69.266c.23.065.47.098.71.098q.6 0 .87-.252c.18-.177.26-.485.26-.924v-.882h1.54v.882c0 .392.07.677.2.854.14.177.33.266.56.266h.14c.2 0 .35-.07.48-.21q.18-.225.18-.7c0-.13-.02-.294-.04-.49q-.045-.308-.12-.742l-.12-.714 1.52-.252.12.714c.04.27.08.527.09.77q.03.35.03.714 0 1.568-.54 2.31c-.36.485-.91.728-1.67.728q-.99 0-1.5-.476c-.33-.317-.56-.807-.68-1.47h-.09c-.07.672-.24 1.167-.5 1.484-.25.308-.59.462-1.01.462q-.405 0-.81-.154c-.26-.093-.61-.266-1.04-.518l-.29-.168c-.29.28-.62.462-1 .546q-.54.126-1.38.126z"/><path fill="#e5e5e5" d="M1145.05 15.5h-1.1l3.63-10.056h1.09z"/><path fill="#646464" d="M1164.38 15c-.43 0-.79-.033-1.09-.098a1.7 1.7 0 0 1-.71-.35 1.44 1.44 0 0 1-.39-.63c-.09-.261-.13-.583-.13-.966v-.238h-.07c-.13.42-.35.737-.67.952-.31.205-.68.308-1.12.308q-.945 0-1.47-.504c-.35-.336-.52-.812-.52-1.428 0-.261.04-.504.13-.728.08-.233.22-.457.4-.672.2-.224.45-.443.74-.658.3-.224.67-.457 1.1-.7l1.41-.812v-.7h.98v5.04c0 .383.1.644.29.784.2.13.5.196.91.196h.49v.924zm-3.97-2.226c.57 0 .97-.08 1.22-.238q.36-.252.36-.882V9.61l-1.41.756c-.5.27-.85.523-1.07.756-.21.224-.32.485-.32.784q0 .448.27.658c.18.14.5.21.95.21m2.03-6.16q-.285 0-.45-.154c-.11-.112-.17-.29-.17-.532s.06-.415.17-.518a.6.6 0 0 1 .45-.168h.15q.285 0 .45.168c.11.103.17.275.17.518s-.06.42-.17.532q-.165.154-.45.154zm-1.81 0a.67.67 0 0 1-.45-.154c-.11-.112-.16-.29-.16-.532s.05-.415.16-.518a.63.63 0 0 1 .45-.168h.16c.18 0 .33.056.44.168.12.103.17.275.17.518s-.05.42-.17.532a.63.63 0 0 1-.44.154zm3.75 7.462.28-.28h.49c.79 0 1.19-.397 1.19-1.19v-2.212h.98v2.212c0 .793.39 1.19 1.19 1.19h.49v.924l-.28.28c-1.29 0-2.05-.457-2.27-1.372h-.07q-.15.77-.6 1.078c-.3.196-.77.294-1.4.294zm3.27 3.724a.6.6 0 0 1-.44-.168c-.12-.103-.17-.275-.17-.518s.05-.42.17-.532a.62.62 0 0 1 .44-.154h.16q.27 0 .45.154c.11.112.16.29.16.532s-.05.415-.16.518a.63.63 0 0 1-.45.168zm-1.8 0a.6.6 0 0 1-.45-.168c-.11-.103-.17-.275-.17-.518s.06-.42.17-.532q.165-.154.45-.154h.15q.285 0 .45.154c.11.112.17.29.17.532s-.06.415-.17.518a.6.6 0 0 1-.45.168zm2.86-3.724.28-.28h.49c.18 0 .33-.014.46-.042.14-.037.27-.098.38-.182s.22-.196.31-.336c.1-.14.21-.322.32-.546l.6-1.176.8.406-.74 1.4.2.126c.29.196.58.331.86.406q.435.112.84.112c.44 0 .76-.103.97-.308s.32-.555.32-1.05v-1.092h.98v1.092q0 .756.21 1.064c.14.196.38.294.7.294h.32q.495 0 .69-.294.21-.308.21-1.064v-1.652h.98v1.652c0 .793.4 1.19 1.19 1.19h.49v.924l-.28.28c-.62 0-1.1-.098-1.46-.294-.35-.205-.6-.518-.74-.938h-.07q-.075.785-.42 1.092c-.22.205-.55.308-.98.308-.96 0-1.52-.467-1.69-1.4h-.07c-.1.448-.28.793-.55 1.036q-.39.364-1.05.364c-.55 0-1.16-.22-1.85-.658l-.43-.28a2.14 2.14 0 0 1-.92.616q-.525.154-1.35.154zm11.58 0 .28-.28h.49c.8 0 1.19-.397 1.19-1.19v-2.212h.98v2.212c0 .793.4 1.19 1.19 1.19h.49v.924l-.28.28c-1.29 0-2.04-.457-2.27-1.372h-.07q-.15.77-.6 1.078c-.3.196-.76.294-1.4.294zm3.28 3.724a.6.6 0 0 1-.45-.168c-.11-.103-.17-.275-.17-.518s.06-.42.17-.532q.165-.154.45-.154h.15q.285 0 .45.154c.11.112.17.29.17.532s-.06.415-.17.518a.6.6 0 0 1-.45.168zm-1.81 0a.63.63 0 0 1-.45-.168c-.11-.103-.16-.275-.16-.518s.05-.42.16-.532a.67.67 0 0 1 .45-.154h.16c.18 0 .33.051.44.154.12.112.17.29.17.532s-.05.415-.17.518a.6.6 0 0 1-.44.168zm2.87-3.724.28-.28h.21c.61 0 1.06-.075 1.33-.224q.42-.238.42-.896c0-.168-.02-.383-.05-.644a8 8 0 0 0-.14-1.036l-.19-1.162.98-.154.17 1.162c.06.457.11.83.14 1.12.02.29.04.527.04.714 0 .784-.24 1.367-.7 1.75s-1.13.574-2 .574h-.49zm.75-6.356h.51l.01-.056a1.15 1.15 0 0 1-.25-.714q0-.546.36-.91t.93-.364c.21 0 .43.056.65.168q.345.155.51.42l-.52.63c-.19-.215-.4-.322-.64-.322q-.255 0-.42.14a.37.37 0 0 0-.17.322c0 .196.09.35.26.462q.27.168.75.168h.89v.896h-2.87zm2.23 9.436h.52q.765 0 1.26-.224c.32-.15.58-.35.77-.602q.27-.364.39-.868c.07-.327.11-.672.11-1.036 0-.27-.01-.55-.04-.84-.03-.299-.07-.583-.11-.854l-.3-1.582.98-.196.18 1.064c.06.327.1.635.13.924.04.29.06.574.08.854h1.33v.924l-.28.28h-1.06q-.06.686-.27 1.288-.195.616-.6 1.078c-.26.308-.61.55-1.03.728s-.94.266-1.54.266h-.52zm5.03-3.08.28-.28h.4c.45 0 .77-.103.97-.308.21-.205.31-.532.31-.98V4.64h1.03v7.868c0 .859-.18 1.489-.56 1.89-.36.401-.94.602-1.75.602h-.68zm5.09-9.436h1.03V15h-1.03z"/><rect width="148" height="39" x=".5" y="37.5" stroke="#3f51b5" rx="3.5"/><path fill="#3f51b5" d="M30.784 62.192q-1.711 0-2.88-.192-1.168-.176-1.888-.576-.72-.416-1.04-1.072-.304-.672-.304-1.632 0-1.28.656-2.864l1.232.368a8 8 0 0 0-.464 1.184q-.16.528-.16.992 0 .992.88 1.424.896.432 2.912.432h2.24q1.152 0 1.888-.048.736-.064 1.152-.208.432-.16.592-.416.176-.256.176-.656v-2.432h1.392v2.432q0 1.264 1.328 1.264h.528v1.424L38.64 62q-2.288 0-2.704-1.856h-.08a2.3 2.3 0 0 1-.416.992q-.288.384-.88.624-.576.24-1.504.336-.912.096-2.272.096m1.072-6.048q-.368 0-.592-.224-.224-.225-.224-.688 0-.48.224-.688.225-.224.592-.224h.224q.368 0 .592.224.224.208.224.688 0 .465-.224.688-.225.224-.592.224zm-2.272 0q-.368 0-.592-.224-.208-.225-.208-.688 0-.48.208-.688.225-.224.592-.224h.24q.368 0 .592.224.224.208.224.688 0 .465-.224.688-.225.224-.592.224zm1.136-2.112a.81.81 0 0 1-.576-.208q-.224-.225-.224-.688 0-.464.224-.672a.81.81 0 0 1 .576-.208h.24q.352 0 .56.208.224.209.224.672 0 .465-.224.688-.208.208-.56.208zm7.831 6.544.384-.384h.784q.785 0 1.44-.032.656-.032 1.28-.144a11 11 0 0 0 1.28-.352q.657-.24 1.456-.624l1.104-.528v-.08l-2.464-.528-2.928-.72v1.296h-1.424v-1.232q0-.864.416-1.28.432-.432 1.2-.432.209 0 .48.048.288.048.912.208l3.552.912q1.536.4 2.64.4h.288v1.808h-1.168v.08q0 .672.304.944.305.255.992.256h.528v1.424l-.384.384q-1.327 0-1.968-.544-.623-.56-.704-1.808l-.816.512q-1.023.64-1.824 1.008a9.5 9.5 0 0 1-1.472.56 7.7 7.7 0 0 1-1.344.224q-.64.048-1.376.048h-1.168zm10.576 0 .384-.384h.528q1.329 0 1.328-1.264v-2.432h1.392v2.432q0 1.264 1.248 1.264h.608v1.424l-.4.384q-1.185 0-1.84-.432-.64-.448-.848-1.392h-.096q-.192.991-.72 1.408Q50.2 62 49.127 62zm2.8 4.736q-.368 0-.592-.224-.208-.225-.208-.688 0-.48.208-.704.225-.208.592-.208h.24q.368 0 .592.208.224.225.224.704 0 .465-.224.688-.224.225-.592.224zm2.214-4.736.384-.384h.56q.703 0 .975-.304.288-.305.288-.96V50.16h1.505v8.768q0 1.584-.64 2.336-.64.735-2.129.736h-.944zM59.97 50.16h1.488V62H59.97zM78.462 62q-.591 0-1.04-.112a2.3 2.3 0 0 1-.832-.448q-.911.56-2.576.56h-7.2v-1.808h1.488l.528-.88V50.16h1.504v5.104l-.192 1.872.08.048q.945-1.169 1.952-1.632a5.2 5.2 0 0 1 2.224-.48q1.697 0 2.592.944.897.928.896 2.576 0 .896-.24 1.52.192.048.384.064.209.015.432.016h.384v1.424zm-4.448-1.808q1.329 0 1.936-.336.609-.336.608-1.232 0-1.728-1.92-1.728h-.48q-.672 0-1.2.096a3.5 3.5 0 0 0-.992.336q-.447.24-.848.656t-.832 1.056l-.688 1.056.048.096zm-.224-6.752q-.367 0-.592-.224-.208-.225-.208-.688 0-.48.208-.688.225-.224.592-.224h.24q.369 0 .592.224.225.208.224.688 0 .465-.224.688-.223.224-.592.224zm4.576 7.136.384-.384h2.064l.032-.08q-1.44-1.232-1.44-2.896 0-.672.208-1.264.224-.592.624-1.04t.944-.704q.56-.256 1.232-.256a2.82 2.82 0 0 1 2.16.96q.4.432.624 1.04.225.592.224 1.264 0 1.648-1.44 2.896l.032.08h2.08v1.424L85.71 62h-.192q-.849 0-1.632-.192a5.1 5.1 0 0 1-1.472-.672q-.689.464-1.472.672a6.8 6.8 0 0 1-1.616.192h-.96zm4.048-.752q.816-.448 1.264-1.024t.448-1.344-.464-1.232q-.448-.464-1.168-.464h-.176q-.72 0-1.184.464-.448.465-.448 1.232 0 .768.448 1.344.465.576 1.28 1.024m-.128-7.504q-.369 0-.592-.224-.208-.225-.208-.688 0-.48.208-.688.224-.224.592-.224h.24q.368 0 .592.224.225.208.224.688 0 .465-.224.688-.225.224-.592.224zm3.328 8.256.384-.384h.784q.783 0 1.44-.032t1.28-.144q.624-.128 1.28-.352.655-.24 1.456-.624l1.104-.528v-.08l-2.464-.528-2.928-.72v1.296h-1.424v-1.232q0-.864.416-1.28.432-.432 1.2-.432.207 0 .48.048.288.048.912.208l3.552.912q1.536.4 2.64.4h.288v1.808h-1.248l-1.888 1.184a19 19 0 0 1-1.824 1.024q-.8.367-1.504.576-.704.192-1.376.256-.657.048-1.392.048h-1.168z"/><path fill="#3f51b5" fill-rule="evenodd" d="M108.454 49.796c2.485-1.524 4.713-.917 6.059.094.222.166.374.28.487.357.113-.077.265-.19.487-.357 1.346-1.011 3.574-1.618 6.059-.095 1.717 1.054 2.684 3.255 2.345 5.784-.341 2.54-1.986 5.415-5.469 7.993l-.086.064c-1.21.895-2.011 1.489-3.336 1.489s-2.126-.594-3.336-1.49l-.086-.063c-3.483-2.578-5.128-5.452-5.469-7.993-.339-2.529.628-4.73 2.345-5.784m6.415.532h.002zm.26 0h.002zm-1.366.561c-.997-.748-2.67-1.246-4.655-.028-1.215.745-2.047 2.411-1.76 4.552.286 2.128 1.692 4.725 4.973 7.154 1.319.976 1.8 1.308 2.679 1.308s1.36-.332 2.679-1.308c3.281-2.43 4.687-5.026 4.973-7.154.287-2.14-.545-3.807-1.76-4.552-1.985-1.218-3.658-.72-4.655.029l-.017.013c-.225.169-.419.314-.574.416-.08.052-.169.106-.262.148a.9.9 0 0 1-.384.089.9.9 0 0 1-.384-.09 2 2 0 0 1-.262-.147 12 12 0 0 1-.574-.416z" clip-rule="evenodd"/><path fill="#616161" d="M169.402 55.204c.082.107.324.428.469.613.289.371.685.864 1.111 1.355.429.494.879.975 1.279 1.328q.303.267.523.4a.8.8 0 0 0 .217.1s.078-.018.215-.1q.22-.133.523-.4c.4-.353.85-.834 1.279-1.328a35 35 0 0 0 1.579-1.968.5.5 0 1 1 .805.593l-.001.001a35.926 35.926 0 0 1-1.628 2.03c-.44.506-.924 1.025-1.372 1.422a5 5 0 0 1-.668.506c-.204.123-.462.244-.733.244s-.529-.12-.733-.244a5 5 0 0 1-.668-.506c-.449-.397-.932-.916-1.372-1.422a35 35 0 0 1-1.145-1.395c-.147-.19-.398-.522-.483-.635l-.001-.001a.5.5 0 1 1 .804-.593"/><path fill="#333" d="M189.426 64.86q-1.834 0-2.828-.952-.98-.952-.98-2.688 0-.63.168-1.386.182-.756.49-1.484l1.064.322a8 8 0 0 0-.434 1.218q-.168.63-.168 1.134 0 1.022.588 1.582t1.624.56h.966a3.3 3.3 0 0 0 1.022-.14 1.47 1.47 0 0 0 .686-.462q.266-.323.378-.854.112-.518.112-1.274V51.14h1.316v8.778h1.638v1.246l-.336.336h-1.358q-.21 1.736-1.176 2.548t-2.772.812m5.304-4.606.336-.336h2.674q1.065 0 1.568-.35.518-.35.518-1.26v-.532h-.07q-.21.518-.672.784-.447.266-1.106.266-1.134 0-1.764-.588-.615-.588-.616-1.638 0-.659.196-1.232.21-.588.56-1.008.365-.434.854-.672a2.3 2.3 0 0 1 1.078-.252q1.274 0 1.988 1.092.728 1.092.728 3.024 0 1.148-.182 1.918-.181.756-.588 1.204a2.2 2.2 0 0 1-1.008.644q-.615.182-1.484.182h-3.01zm3.584-2.912q.588 0 .938-.084t.56-.252q-.055-.91-.504-1.442a1.4 1.4 0 0 0-1.148-.546q-.644 0-1.022.392-.378.378-.378.994 0 .49.322.714t.952.224zm.826-5.334a.7.7 0 0 1-.518-.196q-.182-.195-.182-.602 0-.42.182-.602a.7.7 0 0 1 .518-.196h.21q.323 0 .518.196.196.182.196.602 0 .405-.196.602a.7.7 0 0 1-.518.196zm-1.974 0a.7.7 0 0 1-.518-.196q-.182-.195-.182-.602 0-.42.182-.602a.7.7 0 0 1 .518-.196h.21q.323 0 .518.196.196.182.196.602 0 .405-.196.602a.7.7 0 0 1-.518.196zm5.165 7.938 2.548-2.394-3.458-3.64.952-.952 3.486 3.668q.223-.21.364-.406.154-.21.238-.42.097-.225.126-.49.042-.266.042-.616V51.14h1.316v3.556q0 .462-.07.812a2.5 2.5 0 0 1-.21.672q-.154.307-.406.616-.238.294-.616.644l.7.742q.531.546.728.952.21.391.21.84 0 .307-.112.588t-.322.49q-.196.21-.49.336-.294.112-.672.112h-4.354zm3.304-1.596-1.68 1.512.014.056h3.178zm-3.528-7h.546l.014-.07a1.04 1.04 0 0 1-.266-.728q0-.56.392-.924.391-.378.994-.378.363 0 .714.168.35.154.574.434l-.588.756q-.322-.322-.7-.322a.62.62 0 0 0-.406.126.35.35 0 0 0-.154.294q0 .56.98.56h.966v1.05h-3.066zm7.72-.21h1.302V61.5h-1.302zm10.609 13.72q-2.129 0-3.318-.966-1.176-.952-1.176-2.674 0-.63.168-1.386.182-.756.49-1.484l1.064.322a8 8 0 0 0-.434 1.176 4 4 0 0 0-.168 1.092q0 1.064.77 1.638.77.588 2.128.588h.966q.784 0 1.4-.14.63-.126 1.064-.364.448-.225.686-.532a1.14 1.14 0 0 0 .266-.63l-3.22-.63v-1.498h.686q.853 0 1.218-.224.378-.238.378-.868v-7.14h1.274v7.14q0 1.078-.882 1.596v.07l.56.154q1.12.28 1.12 1.344 0 .756-.35 1.372-.336.63-.994 1.078-.644.462-1.582.714-.924.252-2.114.252m6.426-13.72h1.302V61.5h-1.302zm10.609 13.72q-2.127 0-3.318-.966-1.176-.952-1.176-2.674 0-.63.168-1.386a9.6 9.6 0 0 1 .49-1.484l1.064.322a8 8 0 0 0-.434 1.176 4 4 0 0 0-.168 1.092q0 1.064.77 1.638.77.588 2.128.588h.966q1.4 0 2.254-.448.869-.434 1.092-1.232l-3.15-.448v-1.61l1.75.266q.729.112 1.33.168.617.056 1.064.056v.686l.21.28q0 .938-.35 1.68-.336.742-.994 1.246-.643.518-1.582.784-.924.266-2.114.266m4.496-4.606.336-.336h.434q1.162 0 1.162-1.106V51.14h1.302v7.672q0 1.106 1.106 1.106h.49v1.246l-.336.336q-1.05 0-1.652-.378-.588-.391-.77-1.218h-.084q-.169.869-.616 1.232-.448.364-1.372.364zm4.498 0 .336-.336h1.484v-.07a2.9 2.9 0 0 1-.672-.924 2.9 2.9 0 0 1-.252-1.218q0-.644.224-1.204t.602-.952q.391-.405.91-.63a2.8 2.8 0 0 1 1.148-.238q.924 0 1.568.392.657.378 1.078 1.064l-1.036 1.036q-.336-.476-.756-.686a1.94 1.94 0 0 0-.952-.224q-.784 0-1.218.392-.42.378-.42 1.05 0 .756.616 1.232.63.462 1.638.462.685 0 1.386-.196l1.232-.322.378 1.442-1.932.546q-.645.195-1.218.322-.561.112-1.176.182-.602.07-1.316.098t-1.652.028zm8.352-.308 2.548-2.394-3.458-3.64.952-.952 3.486 3.668a3 3 0 0 0 .364-.406 1.9 1.9 0 0 0 .364-.91q.042-.266.042-.616V51.14h1.316v3.556q0 .462-.07.812a2.4 2.4 0 0 1-.21.672q-.154.307-.406.616-.238.294-.616.644l.7.742q.532.546.728.952.21.391.21.84 0 .307-.112.588t-.322.49q-.196.21-.49.336-.294.112-.672.112h-4.354zm3.304-1.596-1.68 1.512.014.056h3.178zm-3.528-7h.546l.014-.07a1.05 1.05 0 0 1-.266-.728q0-.56.392-.924.392-.378.994-.378.365 0 .714.168.35.154.574.434l-.588.756q-.322-.322-.7-.322a.62.62 0 0 0-.406.126.35.35 0 0 0-.154.294q0 .56.98.56h.966v1.05h-3.066zm7.721-.21h1.302V61.5h-1.302zm10.188 13.72q-1.959 0-3.024-.952-1.05-.952-1.05-2.688 0-.63.168-1.386a9.6 9.6 0 0 1 .49-1.484l1.064.322a8 8 0 0 0-.434 1.176 4 4 0 0 0-.168 1.092q0 1.064.658 1.638.659.588 1.82.588h.966q1.358 0 1.988-.574.644-.56.644-1.792 0-.392-.07-.896a17 17 0 0 0-.21-1.19l-.266-1.218 1.218-.238.224 1.204q.07.42.126.784.07.35.098.672h1.316v1.246l-.336.336h-.966q-.153 1.722-1.19 2.534-1.035.825-3.066.826m.056-7.63a.7.7 0 0 1-.518-.196q-.182-.195-.182-.602 0-.42.182-.602a.7.7 0 0 1 .518-.196h.21q.323 0 .518.196.196.182.196.602 0 .405-.196.602a.7.7 0 0 1-.518.196zm7.079 3.472q-.323.435-.77.616-.449.182-1.148.182v-1.246l.336-.336q.531 0 .77-.224.252-.238.462-.798l.392-1.008q.336-.868.882-1.386.56-.532 1.498-.532 1.147 0 1.764.98.615.966.616 2.716v.546l-1.05 1.54zm.658-1.47 2.94.826v-.392q0-.994-.378-1.554a1.2 1.2 0 0 0-1.05-.56q-.49 0-.798.294-.295.28-.49.784z"/><path fill="#a5a5a5" d="M295.269 61.668q-.448 0-.658-.224-.196-.224-.196-.588v-.182q0-.364.196-.588.21-.224.658-.224.447 0 .644.224.21.224.21.588v.182q0 .364-.21.588-.197.224-.644.224m0-5.754q-.448 0-.658-.224-.196-.224-.196-.588v-.182q0-.364.196-.588.21-.224.658-.224.447 0 .644.224.21.224.21.588v.182q0 .364-.21.588-.197.224-.644.224m11.204 5.754q-1.47 0-2.478-.154-.994-.154-1.61-.49t-.896-.882q-.266-.56-.266-1.358 0-.56.14-1.148.155-.588.462-1.302l.868.266q-.574 1.19-.574 2.044 0 .91.812 1.344.811.42 2.562.42h1.96q1.008 0 1.666-.056t1.036-.196q.378-.154.518-.406.154-.252.154-.644v-2.212h.98v2.212q0 1.19 1.19 1.19h.49v.924l-.28.28q-1.932 0-2.268-1.428h-.07a1.76 1.76 0 0 1-.322.784q-.238.308-.742.49-.49.182-1.302.252-.798.07-2.03.07m-.084 2.632a.6.6 0 0 1-.448-.168q-.168-.154-.168-.518t.168-.532a.64.64 0 0 1 .448-.154h.154q.28 0 .448.154.168.168.168.532t-.168.518a.6.6 0 0 1-.448.168zm6.817-3.724.28-.28h.49q.267 0 .462-.042.21-.056.378-.182t.308-.336q.154-.21.322-.546l.602-1.176.798.406-.742 1.4.196.126q.448.294.868.406.435.112.84.112.659 0 .966-.308.322-.307.322-1.05v-1.092h.98v1.092q0 .756.21 1.064.21.294.7.294h.322q.49 0 .686-.294.21-.308.21-1.064v-1.652h.98v1.652q0 1.19 1.19 1.19h.49v.924l-.28.28q-.924 0-1.456-.294a1.64 1.64 0 0 1-.742-.938h-.07q-.084.785-.42 1.092t-.98.308q-1.442 0-1.694-1.4h-.07q-.14.672-.546 1.036-.392.364-1.05.364-.825 0-1.848-.658l-.434-.28q-.405.448-.924.616-.517.154-1.344.154zm11.58 0 .28-.28h.476q.617 0 1.134-.042a9 9 0 0 0 1.078-.154q.546-.126 1.148-.35.617-.224 1.386-.588l1.288-.616v-.056l-2.072-.462-2.898-.714v1.204h-.98V57.44q0-.588.322-.882.336-.308.84-.308.154 0 .364.042.224.028.686.14l3.416.882q.77.195 1.288.28.519.07.896.07h.224v1.204h-1.092l-1.904 1.148a16 16 0 0 1-1.54.826 8.6 8.6 0 0 1-1.26.448 7.3 7.3 0 0 1-1.148.182q-.546.028-1.176.028h-.756zm18.314 1.092q-1.47 0-2.478-.154-.994-.154-1.61-.49t-.896-.882q-.266-.56-.266-1.358 0-.56.14-1.148.154-.588.462-1.302l.868.266q-.574 1.19-.574 2.044 0 .91.812 1.344.812.42 2.562.42h1.96q1.008 0 1.666-.056t1.036-.196q.378-.154.518-.406.154-.252.154-.644v-2.212h.98v2.212q0 1.19 1.19 1.19h.49v.924l-.28.28q-1.932 0-2.268-1.428h-.07a1.76 1.76 0 0 1-.322.784q-.238.308-.742.49-.49.182-1.302.252-.798.07-2.03.07m-.084 2.632a.6.6 0 0 1-.448-.168q-.168-.154-.168-.518t.168-.532a.64.64 0 0 1 .448-.154h.154q.28 0 .448.154.168.168.168.532t-.168.518a.6.6 0 0 1-.448.168zm6.817-3.724.28-.28h.49q1.19 0 1.19-1.19v-2.212h.98v2.212q0 1.19 1.19 1.19h.49v.924l-.28.28q-1.932 0-2.268-1.372h-.07q-.153.77-.602 1.078-.447.294-1.4.294zm3.276 3.724a.6.6 0 0 1-.448-.168q-.168-.154-.168-.518t.168-.532a.64.64 0 0 1 .448-.154h.154q.28 0 .448.154.168.168.168.532t-.168.518a.6.6 0 0 1-.448.168zm-1.806 0a.6.6 0 0 1-.448-.168q-.168-.154-.168-.518t.168-.532a.64.64 0 0 1 .448-.154h.154q.28 0 .448.154.168.168.168.532t-.168.518a.6.6 0 0 1-.448.168zm2.864-3.724.28-.28h.21q.925 0 1.33-.224.42-.238.42-.896 0-.252-.042-.644a11 11 0 0 0-.14-1.036l-.196-1.162.98-.154.168 1.162q.099.685.14 1.12.042.434.042.714 0 1.176-.7 1.75-.685.574-2.002.574h-.49zm2.982-6.076a.64.64 0 0 1-.448-.154q-.168-.168-.168-.532t.168-.518a.6.6 0 0 1 .448-.168h.154q.28 0 .448.168.168.154.168.518t-.168.532a.64.64 0 0 1-.448.154zm-1.806 0a.64.64 0 0 1-.448-.154q-.168-.168-.168-.532t.168-.518a.6.6 0 0 1 .448-.168h.154q.28 0 .448.168.168.154.168.518t-.168.532a.64.64 0 0 1-.448.154zm1.805 9.156h.518q.771 0 1.26-.224.49-.225.77-.602.28-.364.392-.868a4.6 4.6 0 0 0 .112-1.036q0-.405-.042-.84a11 11 0 0 0-.112-.854l-.294-1.582.98-.196.182 1.064q.084.49.126.924.057.434.084.854h1.33v.924l-.28.28h-1.064a5.2 5.2 0 0 1-.266 1.288q-.195.616-.602 1.078-.391.462-1.036.728-.63.266-1.54.266h-.518zm5.031-3.08.28-.28h.21q.924 0 1.33-.224.42-.238.42-.896 0-.252-.042-.644a11 11 0 0 0-.14-1.036l-.196-1.162.98-.154.168 1.162q.098.685.14 1.12.042.434.042.714 0 1.176-.7 1.75-.686.574-2.002.574h-.49zm2.982-6.076a.64.64 0 0 1-.448-.154q-.168-.168-.168-.532t.168-.518a.6.6 0 0 1 .448-.168h.154q.28 0 .448.168.168.154.168.518t-.168.532a.64.64 0 0 1-.448.154zm-1.806 0a.64.64 0 0 1-.448-.154q-.168-.168-.168-.532t.168-.518a.6.6 0 0 1 .448-.168h.154q.28 0 .448.168.168.154.168.518t-.168.532a.64.64 0 0 1-.448.154z"/><path fill="#616161" d="M376.007 63.667a.5.5 0 0 1-.354-.147l-3.34-3.34a.504.504 0 0 1 0-.707.503.503 0 0 1 .707 0l3.34 3.34a.504.504 0 0 1 0 .707.52.52 0 0 1-.353.146"/><path fill="#616161" d="M376.007 63.667a.503.503 0 0 1-.5-.5V51.834c0-.274.226-.5.5-.5.273 0 .5.226.5.5v11.333c0 .273-.227.5-.5.5M383.34 55.673a.5.5 0 0 1-.353-.146l-3.34-3.34a.5.5 0 0 1 0-.707.5.5 0 0 1 .706 0l3.34 3.34a.502.502 0 0 1-.353.853"/><path fill="#616161" d="M379.993 63.667a.504.504 0 0 1-.5-.5V51.834c0-.274.227-.5.5-.5.274 0 .5.226.5.5v11.333a.5.5 0 0 1-.5.5"/><rect width="78" height="25" x="958" y="44.5" fill="#eceef8" rx="8"/><path fill="#333" d="M967.413 63.754q-1.96 0-3.024-.966-1.05-.952-1.05-2.674 0-.644.168-1.386a9.4 9.4 0 0 1 .49-1.484l1.064.322a7.7 7.7 0 0 0-.434 1.176 4 4 0 0 0-.168 1.092q0 1.05.658 1.638.657.588 1.82.588h.966q1.358 0 1.988-.56.644-.575.644-1.806 0-.392-.07-.896a18 18 0 0 0-.21-1.19l-.266-1.232 1.218-.238.224 1.218q.14.742.21 1.316t.07 1.022q0 2.086-1.036 3.066-1.036.994-3.262.994m.056-7.616a.7.7 0 0 1-.518-.196q-.183-.195-.182-.602 0-.42.182-.602a.7.7 0 0 1 .518-.196h.21q.321 0 .518.196.195.182.196.602 0 .405-.196.602a.7.7 0 0 1-.518.196zm4.884 4.242 2.324-.574-1.162-6.524 1.274-.224 1.134 6.412q.504-.168.84-.378a1.7 1.7 0 0 0 .532-.504q.196-.294.266-.7.084-.42.084-.994V51.14h1.302v7.672q0 1.106 1.106 1.106h.518v1.246l-.336.336q-1.26 0-1.848-.588-.574-.602-.574-1.876v-.378h-.07q-.196 1.12-.658 1.694-.448.574-1.302.798l-3.038.77zm7.877-.126.336-.336h1.484v-.07a2.9 2.9 0 0 1-.672-.924 2.9 2.9 0 0 1-.252-1.218q0-.644.224-1.204.225-.56.602-.952.393-.405.91-.63a2.8 2.8 0 0 1 1.148-.238q.924 0 1.568.392.658.378 1.078 1.064l-1.036 1.036q-.336-.476-.756-.686a1.94 1.94 0 0 0-.952-.224q-.783 0-1.218.392-.42.378-.42 1.05 0 .756.616 1.232.63.462 1.638.462.687 0 1.386-.196l1.232-.322.378 1.442-1.932.546q-.644.195-1.218.322-.56.112-1.176.182-.602.07-1.316.098a43 43 0 0 1-1.652.028zm8.549-9.114h1.302V61.5h-1.302zm-.812 13.062h.546l.014-.07a1.04 1.04 0 0 1-.266-.728q0-.56.392-.938.391-.364.994-.364.363 0 .714.154.35.168.574.448l-.588.756q-.322-.322-.7-.322a.67.67 0 0 0-.406.112.38.38 0 0 0-.154.308q0 .56.98.56h.966v1.05h-3.066zm10.622-2.534a3.8 3.8 0 0 1-1.456-.266 3.05 3.05 0 0 1-1.078-.756 3.6 3.6 0 0 1-.672-1.204 4.9 4.9 0 0 1-.238-1.582q0-1.065.322-2.002a7.95 7.95 0 0 1 1.946-3.108q.63-.615 1.232-1.022h2.105c-.56.401-1.05.789-1.489 1.162a9.6 9.6 0 0 0-1.148 1.148 6.7 6.7 0 0 0-.826 1.246q-.321.659-.504 1.442l.098.028q.155-.294.35-.546.21-.266.476-.462.28-.195.63-.308a2.7 2.7 0 0 1 .812-.112q.617 0 1.131.21c.36.14.66.345.91.616.26.261.47.579.61.952s.22.789.22 1.246c0 .495-.08.947-.25 1.358q-.24.602-.69 1.036c-.3.29-.66.518-1.091.686q-.63.238-1.4.238m0-1.288q.855 0 1.33-.448.481-.462.481-1.344v-.196q0-.882-.481-1.33-.475-.462-1.33-.462-.853 0-1.33.462-.476.448-.476 1.33v.196q0 .882.476 1.344.477.448 1.33.448m6.201-.826c.34 0 .6.089.77.266.16.177.25.406.25.686v.224c0 .457-.13.933-.38 1.428q-.36.756-.99 1.274h-1.14c.3-.299.55-.588.74-.868q.3-.42.45-.938-.36-.07-.54-.308a.93.93 0 0 1-.19-.588v-.224c0-.28.09-.509.26-.686.16-.177.42-.266.77-.266m6.23 2.114c-.57 0-1.08-.07-1.52-.21-.42-.15-.79-.35-1.09-.602-.29-.252-.51-.55-.67-.896a2.8 2.8 0 0 1-.22-1.12c0-.653.17-1.176.53-1.568.36-.401.84-.681 1.43-.84v-.112a2.64 2.64 0 0 1-1.22-.84q-.45-.574-.45-1.414 0-.56.21-1.022.225-.462.63-.784c.27-.224.61-.397 1.01-.518s.85-.182 1.36-.182q.75 0 1.35.182c.41.121.74.294 1.01.518.27.215.48.476.62.784.15.308.22.649.22 1.022 0 .56-.15 1.031-.46 1.414q-.45.575-1.2.84v.112c.58.159 1.06.439 1.41.84.36.392.55.915.55 1.568q0 .602-.24 1.12c-.15.345-.37.644-.67.896-.29.252-.66.453-1.1.602-.42.14-.92.21-1.49.21m0-1.274c.58 0 1.04-.135 1.35-.406.33-.27.49-.649.49-1.134v-.28c0-.485-.16-.863-.49-1.134-.31-.27-.77-.406-1.35-.406q-.885 0-1.38.406c-.31.27-.47.649-.47 1.134v.28c0 .485.16.863.47 1.134q.495.405 1.38.406m0-4.578q.81 0 1.23-.35c.29-.233.43-.574.43-1.022v-.238c0-.448-.14-.789-.43-1.022q-.42-.35-1.23-.35c-.54 0-.96.117-1.25.35q-.42.35-.42 1.022v.238q0 .672.42 1.022c.29.233.71.35 1.25.35m11.3-2.716h-4.34l-.25 3.458h.1c.11-.196.23-.369.35-.518q.18-.238.42-.406t.54-.252c.21-.065.45-.098.73-.098.42 0 .81.07 1.16.21.37.14.68.34.94.602q.405.392.63.966c.15.373.23.798.23 1.274q0 .727-.24 1.344c-.15.41-.37.765-.67 1.064q-.45.434-1.11.686-.645.238-1.47.238c-.44 0-.83-.051-1.16-.154q-.51-.14-.9-.378a4.2 4.2 0 0 1-.67-.56 6 6 0 0 1-.5-.658l1.14-.91c.13.196.25.373.38.532q.195.238.45.42c.17.121.36.215.56.28.22.065.46.098.73.098.58 0 1.02-.159 1.33-.476.32-.317.47-.756.47-1.316v-.168c0-.56-.15-.999-.47-1.316-.31-.317-.75-.476-1.33-.476-.42 0-.76.08-1.01.238-.25.159-.47.336-.64.532l-1.31-.182.37-5.446h5.54zm5.49 8.568q-.915 0-1.59-.336a3 3 0 0 1-1.1-.994c-.29-.43-.51-.957-.65-1.582q-.21-.938-.21-2.142 0-1.19.21-2.128c.14-.635.36-1.167.65-1.596s.66-.756 1.1-.98q.675-.35 1.59-.35 1.815 0 2.67 1.33.87 1.33.87 3.724t-.87 3.724q-.855 1.33-2.67 1.33m0-1.344c.33 0 .62-.065.85-.196.24-.14.44-.336.59-.588s.25-.55.32-.896c.06-.355.1-.747.1-1.176V55.76c0-.43-.04-.817-.1-1.162-.07-.355-.17-.658-.32-.91a1.54 1.54 0 0 0-.59-.574c-.23-.14-.52-.21-.85-.21q-.51 0-.87.21c-.24.13-.43.322-.58.574s-.25.555-.32.91c-.06.345-.1.733-.1 1.162v1.708c0 .43.04.821.1 1.176.07.345.17.644.32.896s.34.448.58.588q.36.195.87.196M1054.46 65.788q-2.61 0-4.41-.288-1.785-.288-2.88-.936c-.74-.448-1.28-1.024-1.61-1.728q-.48-1.056-.48-2.616 0-.96.24-2.112.255-1.152.72-2.28l2.3.672a11 11 0 0 0-.65 1.584q-.21.744-.21 1.344c0 .464.09.856.29 1.176q.285.456.93.744t1.71.432q1.05.12 2.61.12h3.36q1.59 0 2.67-.072c.72-.048 1.29-.128 1.72-.24q.675-.192.96-.456a.91.91 0 0 0 .32-.696c0-.24-.03-.544-.08-.912q-.045-.576-.21-1.488l-.41-2.232 2.62-.432.36 2.232c.08.432.14.912.19 1.44s.07.992.07 1.392c0 1.072-.15 1.952-.46 2.64-.28.688-.81 1.232-1.58 1.632-.75.4-1.78.68-3.1.84-1.29.16-2.96.24-4.99.24m1.87-9c-.41 0-.76-.128-1.03-.384-.25-.256-.38-.664-.38-1.224s.13-.968.38-1.224c.27-.256.62-.384 1.03-.384h.48c.42 0 .76.128 1.01.384.27.256.41.664.41 1.224s-.14.968-.41 1.224c-.25.256-.59.384-1.01.384zm-3.79 0c-.41 0-.76-.128-1.03-.384-.26-.256-.38-.664-.38-1.224s.12-.968.38-1.224c.27-.256.62-.384 1.03-.384h.48c.42 0 .75.128 1.01.384.27.256.41.664.41 1.224s-.14.968-.41 1.224c-.26.256-.59.384-1.01.384zm18.98 8.712q-2.43 0-3.6-1.152c-.78-.768-1.18-2.016-1.18-3.744V47.74h2.88v12.384c0 .72.15 1.2.44 1.44.28.224.78.336 1.48.336h.72v2.88l-.72.72zm.03-2.88.72-.72h.72q1.92 0 1.92-1.68v-3.432h2.64v3.432q0 1.68 1.68 1.68h.96v2.88l-.72.72c-1.28 0-2.26-.256-2.93-.768q-.99-.792-1.32-2.472h-.15c-.22 1.12-.6 1.944-1.15 2.472q-.81.768-2.37.768zm4.44 8.04c-.42 0-.76-.128-1.04-.384-.25-.256-.38-.664-.38-1.224s.13-.968.38-1.224c.28-.256.62-.384 1.04-.384h.48c.41 0 .75.128 1 .384.28.256.41.664.41 1.224s-.13.968-.41 1.224c-.25.256-.59.384-1 .384zm3.48-8.04.72-.72h4.13c.54 0 .92-.056 1.12-.168.21-.128.32-.352.32-.672 0-.288-.1-.536-.29-.744s-.59-.472-1.18-.792l-3.86-2.088V51.1l11.52-3.648v3.168l-10.32 3.24v.144l2.66 1.488q1.08.6 1.83 1.176.735.552 1.17 1.152c.31.4.52.824.65 1.272.14.432.22.92.22 1.464 0 1.696-.38 2.944-1.13 3.744-.74.8-1.96 1.2-3.67 1.2h-3.89zm8.39 5.04h.96c1.46 0 2.52-.296 3.2-.888s1.02-1.576 1-2.952c0-.368-.02-.752-.07-1.152a26 26 0 0 0-.19-1.32l-.5-3.192 2.61-.408.36 2.232c.07.352.11.688.15 1.008q.06.48.12.912h2.2v2.88l-.72.72h-1.48c-.28 1.776-.98 3.176-2.12 4.2q-1.68 1.56-4.53 1.56h-.99zm12.64-3.504c-.36.496-.83.848-1.39 1.056q-.81.288-2.13.288v-2.88l.72-.72q.885 0 1.29-.264c.27-.176.5-.488.67-.936l.68-1.656c.2-.512.44-.992.69-1.44a5.3 5.3 0 0 1 .91-1.176c.36-.336.75-.6 1.18-.792.45-.192.96-.288 1.54-.288 1.5 0 2.63.592 3.38 1.776.77 1.184 1.15 2.824 1.15 4.92v.696l-2.28 3.384zm1.32-3.336 4.83 1.464v-.24c0-.96-.23-1.712-.7-2.256q-.69-.816-1.89-.816c-.52 0-.96.136-1.35.408q-.555.408-.84 1.296zm14.6 6.84h1.53c2.1 0 3.63-.368 4.61-1.104.98-.72 1.46-1.656 1.46-2.808v-.624h-.14c-.24.816-.63 1.416-1.18 1.8-.52.384-1.2.576-2.01.576-1.3 0-2.31-.376-3.05-1.128q-1.08-1.152-1.08-3.192 0-1.248.36-2.304c.26-.72.6-1.336 1.03-1.848q.675-.792 1.56-1.224a4.4 4.4 0 0 1 1.97-.456c.78 0 1.48.168 2.09.504q.93.48 1.56 1.416c.43.608.76 1.36.98 2.256.23.896.34 1.904.34 3.024 0 2.736-.71 4.872-2.11 6.408s-3.44 2.304-6.15 2.304h-1.77zm5.01-5.76q.945 0 1.56-.072c.42-.064.75-.16 1.01-.288-.06-.784-.36-1.408-.89-1.872-.53-.48-1.17-.72-1.94-.72-.63 0-1.15.168-1.59.504-.41.32-.62.736-.62 1.248 0 .432.18.744.53.936q.525.264 1.44.264zm21.88 3.888q-2.61 0-4.41-.288-1.785-.288-2.88-.936c-.74-.448-1.28-1.024-1.61-1.728q-.48-1.056-.48-2.616 0-.96.24-2.112.255-1.152.72-2.28l2.3.672a11 11 0 0 0-.65 1.584q-.21.744-.21 1.344c0 .464.09.856.29 1.176q.285.456.93.744t1.71.432q1.05.12 2.61.12h3.36q1.59 0 2.67-.072c.72-.048 1.29-.128 1.72-.24q.675-.192.96-.456a.91.91 0 0 0 .32-.696c0-.24-.03-.544-.08-.912q-.045-.576-.21-1.488l-.41-2.232 2.62-.432.36 2.232c.08.432.14.912.19 1.44s.07.992.07 1.392c0 1.072-.15 1.952-.46 2.64-.28.688-.81 1.232-1.58 1.632-.75.4-1.78.68-3.1.84-1.29.16-2.96.24-4.99.24m1.87-9c-.41 0-.76-.128-1.03-.384-.25-.256-.38-.664-.38-1.224s.13-.968.38-1.224c.27-.256.62-.384 1.03-.384h.48c.42 0 .76.128 1.01.384.27.256.41.664.41 1.224s-.14.968-.41 1.224c-.25.256-.59.384-1.01.384zm-3.79 0c-.41 0-.76-.128-1.03-.384-.26-.256-.38-.664-.38-1.224s.12-.968.38-1.224c.27-.256.62-.384 1.03-.384h.48c.42 0 .75.128 1.01.384.27.256.41.664.41 1.224s-.14.968-.41 1.224c-.26.256-.59.384-1.01.384zm14.21-9.048h2.88V65.5h-2.88zm2.88 19.92h.96c1.46 0 2.52-.296 3.19-.888.69-.592 1.03-1.576 1.01-2.952 0-.368-.02-.752-.07-1.152a26 26 0 0 0-.19-1.32l-.51-3.192 2.62-.408.36 2.232c.13.768.22 1.48.29 2.136q.12.96.12 1.584c0 1.152-.15 2.192-.43 3.12-.29.928-.72 1.72-1.3 2.376a5.6 5.6 0 0 1-2.14 1.536c-.84.352-1.82.528-2.92.528h-.99zm14.83-2.16q-2.43 0-3.6-1.152c-.78-.768-1.18-2.016-1.18-3.744V47.74h2.88v12.384c0 .72.15 1.2.44 1.44.28.224.78.336 1.48.336h.72v2.88l-.72.72zm.02-2.88.72-.72h.72q1.92 0 1.92-1.68v-3.432h2.64v3.432q0 1.68 1.68 1.68h.96v2.88l-.72.72c-1.28 0-2.25-.256-2.92-.768q-.99-.792-1.32-2.472h-.15c-.22 1.12-.61 1.944-1.15 2.472-.54.512-1.34.768-2.38.768zm6.34 8.04c-.42 0-.76-.128-1.03-.384q-.39-.384-.39-1.224t.39-1.224c.27-.256.61-.384 1.03-.384h.48c.42 0 .75.128 1.01.384.27.256.41.664.41 1.224s-.14.968-.41 1.224c-.26.256-.59.384-1.01.384zm-3.79 0c-.42 0-.76-.128-1.03-.384q-.39-.384-.39-1.224t.39-1.224c.27-.256.61-.384 1.03-.384h.48c.41 0 .75.128 1.01.384.27.256.4.664.4 1.224s-.13.968-.4 1.224c-.26.256-.6.384-1.01.384zm5.38-8.04.72-.72h.02c.77 0 1.34-.088 1.7-.264.39-.192.69-.52.92-.984l.93-1.944 2.38 1.152-.84 1.752q.57.264 1.17.456.6.168 1.23.168c.69 0 1.18-.144 1.49-.432q.45-.456.45-1.584v-1.512h2.64v1.512c0 .672.11 1.16.34 1.464q.36.456.96.456h.24c.33 0 .61-.12.81-.36.21-.256.32-.656.32-1.2 0-.224-.03-.504-.08-.84-.04-.352-.11-.776-.19-1.272l-.21-1.224 2.61-.432.19 1.224c.08.464.14.904.17 1.32.03.4.05.808.05 1.224 0 1.792-.31 3.112-.94 3.96-.6.832-1.56 1.248-2.85 1.248-1.14 0-1.99-.272-2.57-.816s-.97-1.384-1.18-2.52h-.14c-.13 1.152-.42 2-.86 2.544-.44.528-1.01.792-1.73.792-.47 0-.93-.088-1.39-.264-.45-.16-1.04-.456-1.78-.888l-.5-.288q-.75.72-1.71.936-.93.216-2.37.216z"/></svg>