<svg width="1440" height="343" viewBox="0 0 1440 343" fill="none" xmlns="http://www.w3.org/2000/svg">
<g opacity="0.1">
<mask id="mask0_23230_5719" style="mask-type:luminance" maskUnits="userSpaceOnUse" x="87" y="15" width="1353" height="328">
<path fill-rule="evenodd" clip-rule="evenodd" d="M87.1963 15.2568H1440V343H87.1963V15.2568Z" fill="white"/>
</mask>
<g mask="url(#mask0_23230_5719)">
<path fill-rule="evenodd" clip-rule="evenodd" d="M1437.53 151.548C1437.96 149.21 1433.48 147.016 1425.57 145.679L664.363 17.07C658.23 16.0329 650.792 15.637 643.424 15.9544C636.061 16.2728 629.646 17.2661 625.372 18.7532L94.6683 203.132C91.6246 204.189 89.8917 205.427 89.6609 206.71C89.2411 209.047 93.716 211.241 101.627 212.579L862.828 341.188C868.968 342.225 876.398 342.621 883.77 342.303C891.132 341.984 897.548 340.992 901.824 339.505L1432.52 155.127C1435.57 154.069 1437.3 152.83 1437.53 151.548ZM87.2259 206.684C87.4793 205.288 89.3635 203.944 92.6735 202.794L623.371 18.4151C628.022 16.7992 634.993 15.719 643 15.373C651.007 15.0277 659.089 15.4583 665.76 16.5851L1426.96 145.195C1435.57 146.649 1440.43 149.033 1439.97 151.574C1439.72 152.969 1437.83 154.313 1434.52 155.464L903.822 339.842C899.173 341.458 892.205 342.537 884.198 342.883C876.193 343.23 868.11 342.798 861.435 341.671L100.237 213.061C91.6353 211.609 86.7685 209.224 87.2259 206.684Z" fill="#DADADA"/>
</g>
<path fill-rule="evenodd" clip-rule="evenodd" d="M1402.17 149.687C1402.58 147.445 1398.33 145.327 1390.81 144.022L655.435 16.3814C649.516 15.3528 642.296 14.945 635.108 15.2321C627.919 15.5197 621.626 16.4682 617.382 17.9026L90.6772 196.023C87.5873 197.069 85.8308 198.297 85.6011 199.576C85.1974 201.819 89.4468 203.937 96.9709 205.241L832.34 332.883C844.571 335.004 861.638 334.323 870.391 331.362L1397.1 153.241C1400.19 152.195 1401.94 150.966 1402.17 149.687ZM83.1676 199.55C83.4156 198.157 85.3299 196.819 88.6979 195.679L615.404 17.5596C620.023 15.9966 626.881 14.9639 634.709 14.6505C642.538 14.3375 650.402 14.7819 656.853 15.9015L1392.22 143.542C1400.42 144.964 1405.05 147.271 1404.61 149.713C1404.35 151.107 1402.45 152.446 1399.08 153.585L872.369 331.705C862.834 334.93 844.234 335.674 830.92 333.363L95.5498 205.722C87.358 204.3 82.7263 201.993 83.1676 199.55Z" fill="#DADADA"/>
<path fill-rule="evenodd" clip-rule="evenodd" d="M1366.82 147.827C1367.2 145.68 1363.17 143.637 1356.05 142.364L646.505 15.6929C634.723 13.5896 618.077 14.2001 609.394 17.0536L86.6877 188.916C83.5463 189.948 81.764 191.169 81.5343 192.444C81.1478 194.592 85.176 196.633 92.3093 197.906L801.843 324.579C807.556 325.598 814.556 326.017 821.567 325.76C828.579 325.504 834.756 324.6 838.96 323.218L1361.67 151.354C1364.81 150.323 1366.59 149.103 1366.82 147.827ZM79.102 192.418C79.3533 191.025 81.2955 189.693 84.7246 188.567L607.434 16.7038C616.912 13.5879 635.087 12.9216 647.949 15.2179L1357.49 141.889C1365.28 143.28 1369.67 145.51 1369.25 147.854C1369 149.247 1367.06 150.578 1363.63 151.705L840.922 323.568C836.328 325.077 829.589 326.063 821.933 326.343C814.281 326.624 806.635 326.166 800.406 325.054L90.8658 198.382C83.0798 196.992 78.6801 194.763 79.102 192.418Z" fill="#DADADA"/>
<path fill-rule="evenodd" clip-rule="evenodd" d="M1331.47 145.967C1331.84 143.913 1328.03 141.948 1321.28 140.706L637.575 15.0042C632.079 13.9941 625.294 13.5628 618.461 13.7894C611.634 14.0158 605.574 14.8735 601.409 16.2043L82.6896 181.81C79.4999 182.83 77.6908 184.04 77.4621 185.312C77.0928 187.365 80.8999 189.33 87.6487 190.572L771.361 316.274C782.696 318.357 798.919 317.82 807.525 315.074L1326.24 149.469C1329.43 148.45 1331.24 147.239 1331.47 145.967ZM75.0305 185.286C75.2786 183.893 77.2583 182.567 80.7509 181.453L599.466 15.8481C604.028 14.3919 610.657 13.4535 618.131 13.205C625.605 12.9573 633.032 13.4295 639.046 14.5345L1322.75 140.237C1330.14 141.595 1334.3 143.746 1333.9 145.993C1333.65 147.386 1331.68 148.712 1328.18 149.827L809.465 315.431C800.047 318.436 782.293 319.026 769.885 316.745L86.1791 191.041C78.7926 189.684 74.6247 187.533 75.0305 185.286Z" fill="#DADADA"/>
<path fill-rule="evenodd" clip-rule="evenodd" d="M1296.12 144.107C1296.47 142.147 1292.88 140.256 1286.51 139.049L628.638 14.3152C623.359 13.3148 616.788 12.8714 610.136 13.0681C603.48 13.2645 597.544 14.0765 593.414 15.3552L78.6903 174.703C75.4447 175.707 73.6109 176.908 73.3822 178.178C73.029 180.138 76.6224 182.029 82.9891 183.236L740.863 307.97C746.145 308.97 752.711 309.413 759.367 309.217C766.02 309.021 771.958 308.208 776.091 306.93L1290.81 147.582C1294.06 146.579 1295.89 145.376 1296.12 144.107ZM70.9478 178.152C71.2011 176.758 73.212 175.441 76.7711 174.338L591.495 14.9915C596.026 13.5889 602.543 12.6978 609.838 12.4827C617.138 12.267 624.345 12.7529 630.14 13.851L1288.01 138.584C1295 139.909 1298.94 141.983 1298.55 144.133C1298.3 145.526 1296.29 146.845 1292.73 147.947L778.008 307.293C773.476 308.697 766.959 309.588 759.661 309.802C752.363 310.019 745.152 309.533 739.365 308.435L81.4865 183.701C74.5015 182.377 70.5623 180.302 70.9478 178.152Z" fill="#DADADA"/>
<path fill-rule="evenodd" clip-rule="evenodd" d="M1260.79 142.247C1261.12 140.38 1257.75 138.565 1251.75 137.392L619.71 13.6271C609.255 11.5799 593.876 11.9742 585.43 14.5065L74.6967 167.597C71.4017 168.585 69.5325 169.778 69.3038 171.046C68.9667 172.913 72.3465 174.728 78.3373 175.901L710.38 299.665C715.447 300.658 721.802 301.112 728.272 300.946C734.751 300.779 740.571 300.013 744.66 298.786L1255.39 145.697C1258.69 144.708 1260.56 143.515 1260.79 142.247ZM66.87 171.02C67.1191 169.625 69.173 168.314 72.8029 167.226L583.532 14.1356C592.822 11.3504 609.737 10.9165 621.238 13.1679L1253.29 136.933C1259.87 138.223 1263.59 140.219 1263.22 142.273C1262.97 143.667 1260.92 144.979 1257.29 146.068L746.554 299.157C742.056 300.507 735.65 301.35 728.531 301.533C721.408 301.716 714.418 301.216 708.849 300.124L76.8054 176.36C70.2133 175.07 66.4996 173.073 66.87 171.02Z" fill="#DADADA"/>
<path fill-rule="evenodd" clip-rule="evenodd" d="M1225.45 140.387C1225.78 138.586 1222.69 136.89 1216.99 135.734L610.776 12.9379C605.922 11.956 599.788 11.4895 593.489 11.6256C587.191 11.7615 581.492 12.4836 577.438 13.6585L70.6996 160.49C67.337 161.465 65.4399 162.647 65.2133 163.912C64.8902 165.714 67.9801 167.411 73.6811 168.566L679.894 291.362C689.908 293.391 704.861 293.068 713.23 290.642L1219.96 143.81C1223.33 142.837 1225.23 141.653 1225.45 140.387ZM62.7819 163.886C63.0299 162.492 65.1224 161.186 68.8286 160.111L575.566 13.28C580.04 11.9839 586.325 11.1877 593.271 11.0383C600.216 10.8881 606.988 11.4026 612.337 12.4859L1218.55 135.281C1224.84 136.556 1228.24 138.426 1227.89 140.414C1227.64 141.81 1225.54 143.115 1221.83 144.188L715.098 291.021C705.865 293.696 689.373 294.051 678.327 291.815L72.1171 169.02C65.8246 167.745 62.4211 165.875 62.7819 163.886Z" fill="#DADADA"/>
<path fill-rule="evenodd" clip-rule="evenodd" d="M1190.13 138.527C1190.44 136.816 1187.56 135.195 1182.23 134.074L601.846 12.2492C597.21 11.2749 591.287 10.7969 585.164 10.9033C579.044 11.0091 573.464 11.6856 569.445 12.8088L66.7078 153.383C63.2787 154.342 61.3483 155.515 61.1207 156.78C60.8125 158.49 63.6963 160.112 69.0269 161.232L649.406 283.058C654.046 284.031 659.969 284.509 666.09 284.403C672.205 284.298 677.786 283.621 681.805 282.498L1184.54 141.923C1187.97 140.966 1189.91 139.791 1190.13 138.527ZM58.6867 156.754C58.9379 155.356 61.0777 154.057 64.8665 152.997L567.605 12.4228C572.048 11.1802 578.223 10.4317 584.991 10.3149C591.761 10.1975 598.314 10.7262 603.44 11.803L1183.82 133.629C1189.72 134.868 1192.9 136.662 1192.57 138.553C1192.31 139.951 1190.18 141.25 1186.39 142.311L683.645 282.884C679.205 284.127 673.03 284.875 666.263 284.993C659.493 285.109 652.94 284.581 647.816 283.504L67.4325 161.678C61.5329 160.439 58.3485 158.645 58.6867 156.754Z" fill="#DADADA"/>
<path fill-rule="evenodd" clip-rule="evenodd" d="M1154.81 136.666C1155.1 135.048 1152.42 133.499 1147.45 132.416L592.904 11.5583C588.484 10.5941 582.775 10.1054 576.834 10.1816C570.893 10.2572 565.428 10.8888 561.451 11.9604L62.7036 146.277C59.2562 147.204 57.2356 148.402 57.0112 149.647C56.7224 151.265 59.4044 152.815 64.3699 153.897L618.918 274.755C623.337 275.718 629.046 276.208 634.993 276.132C640.929 276.056 646.393 275.425 650.374 274.354L1149.12 140.037C1152.57 139.109 1154.59 137.911 1154.81 136.666ZM54.577 149.622C54.8282 148.24 57.0668 146.912 60.8932 145.883L559.639 11.5664C564.051 10.3783 570.114 9.67673 576.707 9.5925C583.299 9.50826 589.63 10.0515 594.537 11.1207L1149.08 131.978C1154.59 133.179 1157.57 134.897 1157.24 136.693C1156.99 138.074 1154.75 139.401 1150.93 140.432L652.183 274.749C647.772 275.936 641.71 276.638 635.118 276.722C628.529 276.806 622.195 276.264 617.289 275.194L62.7398 154.335C57.2289 153.136 54.2571 151.417 54.577 149.622Z" fill="#DADADA"/>
<path fill-rule="evenodd" clip-rule="evenodd" d="M1119.51 134.807C1119.78 133.278 1117.3 131.802 1112.69 130.757L583.973 10.8693C579.764 9.91429 574.268 9.41357 568.508 9.45999C562.745 9.50615 557.398 10.0929 553.455 11.1131L58.7053 139.172C55.186 140.082 53.1246 141.27 52.9002 142.515C52.6264 144.044 55.1108 145.519 59.7135 146.564L588.433 266.452C597.122 268.423 610.814 268.314 618.949 266.209L1113.7 138.15C1117.22 137.239 1119.28 136.052 1119.51 134.807ZM50.4664 142.489C50.7176 141.104 53.012 139.782 56.9254 138.769L551.679 10.71C556.063 9.57481 562.009 8.92153 568.423 8.87042C574.838 8.81931 580.951 9.37583 585.638 10.4388L1114.35 130.327C1119.48 131.489 1122.25 133.131 1121.94 134.833C1121.69 136.218 1119.4 137.539 1115.48 138.554L620.725 266.613C611.673 268.955 596.437 269.077 586.769 266.883L58.0516 146.995C52.9261 145.833 50.1625 144.19 50.4664 142.489Z" fill="#DADADA"/>
<path fill-rule="evenodd" clip-rule="evenodd" d="M1084.21 132.947C1084.47 131.508 1082.18 130.105 1077.92 129.099L575.041 10.1788C566.785 8.22736 553.515 8.26621 545.461 10.2654L54.7025 132.066C51.1059 132.958 48.9994 134.137 48.7771 135.381C48.5163 136.822 50.8095 138.224 55.0643 139.23L557.947 258.151C566.205 260.102 579.47 260.062 587.523 258.064L1078.28 136.263C1081.88 135.371 1083.98 134.193 1084.21 132.947ZM46.3447 135.355C46.5927 133.965 48.945 132.65 52.9593 131.653L543.72 9.85254C552.713 7.62097 567.523 7.57794 576.737 9.75709L1079.62 128.676C1084.37 129.799 1086.93 131.366 1086.64 132.973C1086.39 134.364 1084.04 135.679 1080.03 136.676L589.264 258.476C580.274 260.708 565.462 260.751 556.245 258.572L53.3652 139.652C48.6143 138.529 46.0559 136.963 46.3447 135.355Z" fill="#DADADA"/>
<path fill-rule="evenodd" clip-rule="evenodd" d="M1048.91 131.087C1049.16 129.735 1047.05 128.406 1043.15 127.44L566.094 9.48895C558.277 7.55677 545.432 7.52469 537.457 9.41723L50.693 124.96C47.0137 125.834 44.86 127.001 44.6335 128.249C44.3919 129.602 46.4984 130.93 50.4042 131.897L527.451 249.849C535.272 251.781 548.114 251.812 556.093 249.918L1042.86 134.377C1046.54 133.503 1048.69 132.335 1048.91 131.087ZM42.2013 128.223C42.4536 126.826 44.8682 125.518 48.9899 124.539L535.752 8.99553C544.688 6.87532 559.077 6.91157 567.833 9.07585L1044.89 127.027C1049.27 128.109 1051.62 129.598 1051.35 131.113C1051.1 132.511 1048.68 133.819 1044.56 134.798L557.799 250.342C548.87 252.461 534.474 252.426 525.718 250.262L48.6635 132.311C44.2874 131.228 41.9297 129.738 42.2013 128.223Z" fill="#DADADA"/>
<path fill-rule="evenodd" clip-rule="evenodd" d="M1013.64 129.227C1013.87 127.943 1012 126.718 1008.38 125.778L557.155 8.79779C553.586 7.87147 548.734 7.33685 543.506 7.29382C538.273 7.25079 533.285 7.70404 529.46 8.56934L46.6929 117.854C42.9191 118.708 40.7192 119.866 40.4937 121.116C40.2629 122.4 42.1289 123.625 45.7513 124.565L496.975 241.546C504.353 243.458 516.775 243.559 524.672 241.774L1007.44 132.489C1011.22 131.635 1013.41 130.477 1013.64 129.227ZM38.0619 121.089C38.3152 119.684 40.7878 118.384 45.0254 117.424L527.799 8.13819C532.099 7.16467 537.705 6.65561 543.59 6.70438C549.471 6.75262 554.92 7.35322 558.942 8.39481L1010.16 125.376C1014.24 126.432 1016.34 127.809 1016.08 129.253C1015.82 130.658 1013.35 131.961 1009.1 132.92L526.335 242.205C517.464 244.213 503.492 244.099 495.196 241.949L43.9754 124.967C39.9042 123.91 37.7999 122.535 38.0619 121.089Z" fill="#DADADA"/>
<path fill-rule="evenodd" clip-rule="evenodd" d="M978.373 127.367C978.591 126.168 976.897 125.016 973.608 124.119L548.218 8.10638C541.275 6.21331 529.27 6.04041 521.457 7.72119L42.6799 110.75C38.8116 111.581 36.558 112.729 36.3336 113.982C36.1189 115.18 37.8109 116.335 41.1005 117.232L466.491 233.244C473.433 235.138 485.433 235.311 493.253 233.629L972.026 130.601C975.896 129.769 978.151 128.62 978.373 127.367ZM33.8975 113.956C34.153 112.544 36.6986 111.247 41.0651 110.308L519.839 7.27998C528.655 5.38327 542.202 5.57808 550.038 7.71419L975.43 123.727C979.14 124.739 981.053 126.041 980.808 127.393C980.554 128.807 978.008 130.103 973.646 131.042L494.868 234.072C486.048 235.967 472.501 235.773 464.665 233.636L39.2775 117.625C35.5659 116.612 33.6549 115.309 33.8975 113.956Z" fill="#DADADA"/>
<path fill-rule="evenodd" clip-rule="evenodd" d="M943.13 125.507C943.331 124.393 941.806 123.31 938.843 122.456L539.283 7.41314C536.134 6.50559 531.71 5.94933 526.834 5.84788C521.955 5.74592 517.204 6.10972 513.459 6.8733L38.6762 103.644C34.7628 104.441 32.3922 105.609 32.1678 106.848C31.9681 107.962 33.4873 109.045 36.4527 109.899L436.011 224.943C442.517 226.815 454.104 227.057 461.837 225.481L936.619 128.712C940.533 127.915 942.907 126.746 943.13 125.507ZM29.7327 106.823C29.986 105.418 32.6744 104.096 37.1053 103.193L511.889 6.42214C516.136 5.55763 521.514 5.14454 527.041 5.26033C532.568 5.37586 537.577 6.00592 541.147 7.03369L940.703 122.077C944.064 123.044 945.787 124.272 945.561 125.533C945.31 126.937 942.621 128.26 938.187 129.164L463.403 225.934C454.643 227.719 441.517 227.445 434.148 225.323L34.5919 110.279C31.2315 109.312 29.5061 108.085 29.7327 106.823Z" fill="#DADADA"/>
<path fill-rule="evenodd" clip-rule="evenodd" d="M907.889 123.648C908.074 122.617 906.717 121.604 904.068 120.795L530.339 6.72166C527.396 5.82376 523.187 5.25655 518.485 5.12537C513.784 4.99394 509.156 5.31418 505.453 6.02614L34.6597 96.5392C30.6368 97.3127 28.2018 98.4701 27.9764 99.7159C27.7939 100.745 29.1499 101.758 31.7985 102.568L405.522 216.642C411.597 218.497 422.762 218.808 430.416 217.337L901.202 126.825C905.228 126.052 907.667 124.893 907.889 123.648ZM25.5429 99.6889C25.7941 98.273 28.5684 96.9568 33.1496 96.0762L503.935 5.56358C508.151 4.75331 513.416 4.38925 518.764 4.53868C524.112 4.68812 528.9 5.33278 532.248 6.35455L905.974 120.428C908.988 121.348 910.534 122.501 910.322 123.674C910.067 125.089 907.3 126.407 902.719 127.286L431.925 217.799C423.232 219.472 410.527 219.117 403.618 217.009L29.89 102.936C26.8785 102.014 25.3325 100.861 25.5429 99.6889Z" fill="#DADADA"/>
<path fill-rule="evenodd" clip-rule="evenodd" d="M872.675 121.79C872.846 120.84 871.647 119.897 869.3 119.133L521.403 6.02861C515.761 4.195 505.015 3.81399 497.443 5.17974L30.6568 89.435C26.5094 90.1826 24.0014 91.3298 23.777 92.5814C23.6084 93.5306 24.8087 94.4731 27.1535 95.2383L375.052 208.344C380.691 210.177 391.438 210.558 399.005 209.192L865.802 124.937C869.947 124.189 872.449 123.042 872.675 121.79ZM21.3435 92.556C21.6001 91.1253 24.4667 89.8159 29.2003 88.9605L495.99 4.70683C504.636 3.14627 516.914 3.58152 523.358 5.67644L871.251 118.781C873.932 119.653 875.307 120.731 875.11 121.816C874.853 123.246 871.99 124.556 867.255 125.411L400.463 209.665C391.816 211.225 379.542 210.789 373.098 208.696L25.201 95.5908C22.5202 94.7179 21.1491 93.6403 21.3435 92.556Z" fill="#DADADA"/>
<path fill-rule="evenodd" clip-rule="evenodd" d="M837.472 119.931C837.629 119.049 836.612 118.198 834.526 117.471L512.461 5.33501C507.252 3.52096 496.922 3.07162 489.432 4.3328L26.6328 82.3301C22.3608 83.0504 19.7798 84.1862 19.5533 85.4473C19.3965 86.3298 20.4165 87.18 22.5036 87.9066L344.564 200.044C349.774 201.859 360.102 202.308 367.594 201.046L830.395 123.049C834.667 122.329 837.245 121.192 837.472 119.931ZM17.122 85.4213C17.3808 83.9752 20.3429 82.6713 25.2462 81.8453L488.041 3.84878C496.633 2.40166 508.484 2.91698 514.459 4.99781L836.523 117.134C838.918 117.968 840.089 118.944 839.904 119.957C839.646 121.404 836.687 122.707 831.79 123.534L368.984 201.531C360.394 202.978 348.543 202.463 342.568 200.382L20.5051 88.2448C18.1087 87.4111 16.9395 86.4352 17.122 85.4213Z" fill="#DADADA"/>
<path fill-rule="evenodd" clip-rule="evenodd" d="M802.291 118.073C802.436 117.269 801.56 116.486 799.748 115.808L503.516 4.64008C498.735 2.84716 488.822 2.32898 481.416 3.48636L22.6114 75.2248C18.2653 75.9054 15.5329 77.0597 15.3096 78.3136C15.1658 79.117 16.0461 79.8994 17.8552 80.5777L314.084 191.747C318.864 193.539 328.776 194.057 336.183 192.899L794.99 121.16C799.334 120.481 802.062 119.327 802.291 118.073ZM12.8762 78.2877C13.136 76.8424 16.2829 75.5127 21.2914 74.73L480.095 2.99084C488.626 1.65665 500.052 2.25385 505.562 4.32086L801.792 115.488C803.877 116.27 804.889 117.173 804.723 118.099C804.464 119.543 801.318 120.874 796.307 121.656L337.503 193.395C328.972 194.729 317.546 194.133 312.038 192.066L15.8029 80.8992C13.7244 80.1166 12.7087 79.2143 12.8762 78.2877Z" fill="#DADADA"/>
<path fill-rule="evenodd" clip-rule="evenodd" d="M767.134 116.213C767.266 115.487 766.519 114.771 764.982 114.143L494.583 3.94407C490.227 2.17044 480.728 1.58445 473.407 2.6383L18.598 68.1196C14.1016 68.7666 11.279 69.9102 11.0514 71.1774C10.9204 71.9042 11.6677 72.6201 13.2084 73.2488L283.608 183.447C287.963 185.221 297.46 185.807 304.779 184.752L759.593 119.271C764.09 118.624 766.907 117.481 767.134 116.213ZM8.6177 71.1526C8.88182 69.6855 12.1446 68.3622 17.3485 67.6138L472.157 2.13216C480.637 0.911931 491.633 1.5905 496.669 3.64395L767.069 113.842C768.856 114.569 769.717 115.398 769.567 116.241C769.303 117.708 766.038 119.031 760.836 119.78L306.022 185.262C297.548 186.481 286.55 185.803 281.512 183.75L11.1118 73.5514C9.32845 72.8243 8.46632 71.9939 8.6177 71.1526Z" fill="#DADADA"/>
<path fill-rule="evenodd" clip-rule="evenodd" d="M732.001 114.357C732.118 113.705 731.499 113.055 730.203 112.478L485.636 3.2489C481.709 1.49484 472.626 0.841306 465.382 1.7924L14.5674 61.0151C9.91211 61.6271 6.99505 62.7584 6.76422 64.0423C6.64612 64.6945 7.2656 65.3444 8.55826 65.9215L253.128 175.151C257.056 176.905 266.139 177.558 273.382 176.607L724.198 117.383C728.854 116.772 731.771 115.641 732.001 114.357ZM4.33243 64.0169C4.59654 62.5463 8.07296 61.198 13.4089 60.4973L464.225 1.27354C472.645 0.167802 483.213 0.927739 487.78 2.96789L732.349 112.197C733.852 112.869 734.569 113.623 734.437 114.383C734.169 115.853 730.691 117.201 725.362 117.903L274.542 177.126C266.122 178.232 255.556 177.472 250.987 175.431L6.42172 66.2028C4.91756 65.5307 4.195 64.7752 4.33243 64.0169Z" fill="#DADADA"/>
<mask id="mask1_23230_5719" style="mask-type:luminance" maskUnits="userSpaceOnUse" x="0" y="0" width="700" height="170">
<path fill-rule="evenodd" clip-rule="evenodd" d="M0 0H699.346V169.408H0V0Z" fill="white"/>
</mask>
<g mask="url(#mask1_23230_5719)">
<path fill-rule="evenodd" clip-rule="evenodd" d="M696.894 112.5C696.997 111.92 696.49 111.337 695.426 110.813L476.69 2.55235C473.192 0.818368 464.518 0.097288 457.36 0.945632L10.5343 53.9117C5.77493 54.4758 2.67857 55.6236 2.44774 56.9066C2.3436 57.4866 2.84713 58.0703 3.90896 58.5952L222.644 166.855C226.15 168.589 234.818 169.31 241.977 168.461L688.803 115.496C693.559 114.932 696.661 113.784 696.894 112.5ZM0.014138 56.8809C0.28362 55.3814 3.90713 54.0401 9.4621 53.3819L456.287 0.415532C464.651 -0.575203 474.788 0.266622 478.883 2.29295L697.622 110.553C698.859 111.166 699.45 111.848 699.329 112.526C699.058 114.026 695.438 115.367 689.874 116.026L243.05 168.991C234.684 169.983 224.551 169.141 220.458 167.115L1.71799 58.854C0.480094 58.2419 -0.108256 57.5589 0.014138 56.8809Z" fill="#DADADA"/>
</g>
</g>
</svg>
