<svg width="1440" height="123" viewBox="0 0 1440 123" fill="none" xmlns="http://www.w3.org/2000/svg">
<path opacity="0.8" fill-rule="evenodd" clip-rule="evenodd" d="M0 27.4586L59.8946 41.0546C119.789 54.6506 240.422 81.8426 360.211 75.1779C480 68.2466 599.789 27.4586 720.422 20.5273C840.211 13.596 960 41.0546 1079.79 43.1873C1200.42 45.5866 1320.21 22.9266 1380.11 11.4633L1440 0V122.897H1380.11C1320.21 122.897 1200.42 122.897 1079.79 122.897C960 122.897 840.211 122.897 720.422 122.897C599.789 122.897 480 122.897 360.211 122.897C240.422 122.897 119.789 122.897 59.8946 122.897H0V27.4586Z" fill="#ECEEF8"/>
</svg>
